<svg xmlns="http://www.w3.org/2000/svg" xmlns:xlink="http://www.w3.org/1999/xlink" width="500" zoomAndPan="magnify" viewBox="0 0 375 374.999991" height="500" preserveAspectRatio="xMidYMid meet" version="1.0"><defs><g/><clipPath id="858434b897"><path d="M 73.660156 43.214844 L 301.660156 43.214844 L 301.660156 260.714844 L 73.660156 260.714844 Z M 73.660156 43.214844 " clip-rule="nonzero"/></clipPath></defs><g clip-path="url(#858434b897)"><path fill="#fb7ea2" d="M 217.085938 152.578125 C 214.785156 153.324219 212.332031 152.320312 211.179688 150.304688 L 198.445312 154.429688 C 198.617188 155.191406 198.707031 155.980469 198.707031 156.792969 C 198.707031 160.074219 197.25 163.023438 194.949219 165.035156 L 202.824219 175.851562 C 204.949219 174.898438 207.523438 175.519531 208.941406 177.476562 C 210.574219 179.710938 210.074219 182.84375 207.832031 184.46875 C 205.589844 186.09375 202.453125 185.597656 200.824219 183.359375 C 199.398438 181.410156 199.597656 178.773438 201.164062 177.054688 L 193.285156 166.238281 C 191.652344 167.199219 189.75 167.753906 187.71875 167.753906 C 185.667969 167.753906 183.75 167.1875 182.105469 166.210938 L 174.226562 177.023438 C 175.792969 178.742188 175.992188 181.378906 174.570312 183.332031 C 172.941406 185.566406 169.800781 186.0625 167.558594 184.4375 C 165.316406 182.8125 164.820312 179.683594 166.449219 177.445312 C 167.871094 175.492188 170.445312 174.867188 172.566406 175.820312 L 180.445312 165 C 178.167969 162.988281 176.730469 160.054688 176.730469 156.792969 C 176.730469 155.964844 176.824219 155.15625 177.003906 154.378906 L 164.273438 150.253906 C 163.117188 152.269531 160.667969 153.273438 158.367188 152.527344 C 155.730469 151.671875 154.285156 148.847656 155.140625 146.21875 C 156 143.585938 158.832031 142.148438 161.464844 143.003906 C 163.769531 143.75 165.160156 145.996094 164.90625 148.304688 L 177.640625 152.433594 C 179.203125 148.84375 182.640625 146.246094 186.714844 145.878906 L 186.714844 132.535156 C 184.4375 132.0625 182.722656 130.046875 182.722656 127.632812 C 182.722656 124.871094 184.96875 122.628906 187.742188 122.628906 C 190.515625 122.628906 192.761719 124.871094 192.761719 127.632812 C 192.761719 130.046875 191.046875 132.0625 188.769531 132.535156 L 188.769531 145.882812 C 192.839844 146.269531 196.269531 148.878906 197.820312 152.480469 L 210.542969 148.355469 C 210.289062 146.046875 211.679688 143.796875 213.984375 143.050781 C 216.621094 142.199219 219.453125 143.636719 220.308594 146.269531 C 221.164062 148.898438 219.722656 151.722656 217.085938 152.578125 Z M 300.980469 137.542969 C 300.617188 136.210938 300.070312 134.9375 299.359375 133.757812 C 299.074219 133.289062 298.765625 132.832031 298.429688 132.394531 C 297.761719 131.519531 296.992188 130.714844 296.132812 130 C 295.707031 129.644531 295.253906 129.308594 294.78125 129 C 293.132812 127.917969 291.226562 127.140625 289.121094 126.78125 L 287.078125 126.433594 C 286.714844 126.371094 286.40625 126.210938 286.164062 125.996094 C 286.039062 125.886719 285.9375 125.761719 285.847656 125.625 C 285.761719 125.492188 285.691406 125.34375 285.644531 125.195312 C 285.59375 125.042969 285.566406 124.882812 285.554688 124.722656 C 285.535156 124.40625 285.601562 124.078125 285.761719 123.777344 C 285.84375 123.628906 285.945312 123.484375 286.074219 123.351562 L 287.644531 121.742188 C 288.707031 120.652344 289.5625 119.457031 290.21875 118.195312 C 290.871094 116.929688 291.332031 115.597656 291.59375 114.238281 C 291.644531 113.96875 291.691406 113.695312 291.726562 113.421875 C 291.800781 112.875 291.847656 112.328125 291.859375 111.78125 C 291.878906 110.957031 291.832031 110.132812 291.714844 109.320312 C 291.601562 108.503906 291.421875 107.699219 291.171875 106.914062 C 290.925781 106.128906 290.613281 105.363281 290.234375 104.625 C 289.984375 104.128906 289.703125 103.652344 289.394531 103.183594 C 288.777344 102.253906 288.046875 101.382812 287.207031 100.59375 C 286.367188 99.804688 285.417969 99.097656 284.363281 98.496094 C 284.015625 98.296875 283.664062 98.105469 283.3125 97.917969 C 283.195312 97.855469 283.078125 97.796875 282.960938 97.738281 C 282.722656 97.617188 282.480469 97.488281 282.234375 97.371094 C 282.09375 97.300781 281.945312 97.238281 281.804688 97.167969 C 281.582031 97.0625 281.355469 96.957031 281.128906 96.855469 C 280.972656 96.785156 280.816406 96.722656 280.660156 96.652344 C 280.441406 96.558594 280.21875 96.464844 279.996094 96.375 C 279.832031 96.308594 279.671875 96.242188 279.507812 96.179688 C 279.285156 96.089844 279.058594 96.007812 278.828125 95.921875 C 278.667969 95.859375 278.5 95.800781 278.335938 95.742188 C 278.101562 95.660156 277.867188 95.578125 277.632812 95.5 C 277.46875 95.445312 277.304688 95.390625 277.140625 95.335938 C 276.890625 95.257812 276.636719 95.183594 276.382812 95.105469 C 276.230469 95.0625 276.078125 95.015625 275.921875 94.96875 C 275.613281 94.882812 275.292969 94.796875 274.976562 94.714844 C 274.878906 94.691406 274.78125 94.660156 274.683594 94.636719 C 274.269531 94.535156 273.851562 94.4375 273.429688 94.34375 C 273.292969 94.3125 273.15625 94.289062 273.015625 94.261719 C 272.726562 94.199219 272.433594 94.136719 272.140625 94.082031 C 271.96875 94.050781 271.792969 94.023438 271.621094 93.992188 C 271.355469 93.945312 271.089844 93.902344 270.820312 93.859375 C 270.636719 93.832031 270.449219 93.804688 270.261719 93.777344 C 270.003906 93.738281 269.742188 93.703125 269.476562 93.671875 C 269.285156 93.648438 269.089844 93.625 268.894531 93.601562 C 268.632812 93.574219 268.371094 93.546875 268.105469 93.519531 C 267.910156 93.5 267.710938 93.484375 267.515625 93.464844 C 267.242188 93.445312 266.972656 93.425781 266.695312 93.40625 C 266.503906 93.394531 266.3125 93.378906 266.117188 93.371094 C 265.824219 93.355469 265.53125 93.34375 265.230469 93.332031 C 265.054688 93.324219 264.875 93.316406 264.695312 93.3125 C 264.347656 93.304688 263.996094 93.296875 263.644531 93.296875 C 263.511719 93.296875 263.378906 93.292969 263.246094 93.292969 C 263.125 93.292969 263.003906 93.292969 262.882812 93.296875 C 262.570312 93.296875 262.257812 93.300781 261.941406 93.308594 C 261.777344 93.316406 261.613281 93.320312 261.445312 93.324219 C 261.171875 93.335938 260.898438 93.347656 260.621094 93.359375 C 260.4375 93.367188 260.253906 93.378906 260.074219 93.390625 C 259.808594 93.40625 259.542969 93.421875 259.277344 93.441406 C 259.089844 93.453125 258.898438 93.46875 258.707031 93.484375 C 258.441406 93.503906 258.171875 93.53125 257.90625 93.554688 C 257.714844 93.574219 257.527344 93.589844 257.335938 93.609375 C 257.054688 93.640625 256.773438 93.671875 256.496094 93.703125 C 256.3125 93.726562 256.132812 93.746094 255.949219 93.769531 C 255.632812 93.808594 255.3125 93.855469 254.992188 93.902344 C 254.84375 93.921875 254.699219 93.941406 254.546875 93.960938 C 254.082031 94.03125 253.613281 94.105469 253.144531 94.1875 C 253.035156 94.203125 252.925781 94.226562 252.820312 94.246094 C 252.449219 94.308594 252.078125 94.375 251.707031 94.445312 C 251.527344 94.480469 251.347656 94.519531 251.167969 94.554688 C 250.863281 94.617188 250.558594 94.675781 250.25 94.742188 C 250.050781 94.785156 249.855469 94.828125 249.652344 94.871094 C 249.359375 94.9375 249.066406 95.003906 248.769531 95.074219 C 248.566406 95.121094 248.359375 95.171875 248.152344 95.21875 C 247.859375 95.292969 247.5625 95.367188 247.265625 95.441406 C 247.058594 95.492188 246.855469 95.546875 246.644531 95.601562 C 246.339844 95.683594 246.03125 95.765625 245.722656 95.851562 C 245.527344 95.90625 245.328125 95.960938 245.128906 96.015625 C 244.789062 96.113281 244.445312 96.214844 244.101562 96.316406 C 243.933594 96.367188 243.765625 96.414062 243.597656 96.464844 C 243.085938 96.621094 242.570312 96.78125 242.050781 96.949219 C 241.601562 97.097656 241.152344 97.25 240.707031 97.410156 C 237.140625 98.703125 233.6875 100.5 230.367188 102.664062 C 230.316406 102.695312 230.269531 102.730469 230.21875 102.761719 C 229.390625 105.496094 228.367188 108.289062 227.144531 111.136719 C 227.128906 111.175781 227.109375 111.21875 227.09375 111.257812 C 220.605469 126.25 209.777344 140.089844 201.589844 149.289062 C 200.804688 147.847656 199.796875 146.546875 198.617188 145.421875 C 201.019531 142.695312 203.648438 139.570312 206.3125 136.132812 C 206.882812 135.394531 207.453125 134.644531 208.023438 133.882812 C 210.027344 131.210938 212.027344 128.375 213.945312 125.417969 C 217.230469 120.355469 220.28125 114.933594 222.691406 109.363281 L 222.691406 109.359375 C 222.890625 108.902344 223.082031 108.445312 223.273438 107.984375 C 224.386719 105.269531 225.34375 102.527344 226.097656 99.78125 C 226.382812 98.738281 226.644531 97.695312 226.871094 96.652344 C 227.074219 95.707031 227.253906 94.757812 227.40625 93.8125 C 227.78125 91.449219 227.984375 89.089844 227.984375 86.753906 C 227.984375 68.472656 222.421875 55.339844 213.65625 47.28125 C 213.449219 47.09375 213.242188 46.914062 213.027344 46.738281 C 212.964844 46.683594 212.894531 46.632812 212.832031 46.578125 C 212.679688 46.460938 212.527344 46.34375 212.375 46.230469 C 212.296875 46.175781 212.222656 46.117188 212.144531 46.0625 C 211.988281 45.957031 211.835938 45.851562 211.675781 45.746094 C 211.605469 45.703125 211.539062 45.65625 211.464844 45.609375 C 211.25 45.476562 211.035156 45.347656 210.816406 45.226562 C 210.804688 45.21875 210.792969 45.210938 210.78125 45.207031 C 210.546875 45.074219 210.3125 44.957031 210.074219 44.839844 C 210.007812 44.808594 209.9375 44.777344 209.871094 44.746094 C 209.699219 44.664062 209.527344 44.589844 209.351562 44.515625 C 209.269531 44.480469 209.1875 44.449219 209.109375 44.417969 C 208.9375 44.347656 208.765625 44.285156 208.59375 44.222656 C 208.519531 44.195312 208.445312 44.167969 208.371094 44.144531 C 208.148438 44.070312 207.925781 44 207.703125 43.9375 C 207.675781 43.929688 207.652344 43.921875 207.628906 43.914062 C 207.382812 43.84375 207.128906 43.78125 206.878906 43.726562 C 206.808594 43.710938 206.742188 43.699219 206.675781 43.683594 C 206.488281 43.644531 206.304688 43.609375 206.121094 43.578125 C 206.035156 43.566406 205.949219 43.550781 205.867188 43.539062 C 205.691406 43.511719 205.515625 43.488281 205.339844 43.46875 C 205.257812 43.460938 205.175781 43.449219 205.09375 43.441406 C 204.882812 43.421875 204.671875 43.40625 204.460938 43.394531 C 204.417969 43.390625 204.375 43.386719 204.332031 43.386719 C 204.085938 43.375 203.835938 43.371094 203.589844 43.371094 C 203.28125 43.371094 202.976562 43.378906 202.671875 43.402344 C 202.621094 43.402344 202.566406 43.410156 202.515625 43.414062 C 202.261719 43.433594 202.011719 43.457031 201.757812 43.488281 C 201.65625 43.503906 201.554688 43.519531 201.457031 43.535156 C 201.25 43.5625 201.046875 43.597656 200.84375 43.636719 C 200.734375 43.65625 200.625 43.679688 200.515625 43.703125 C 200.320312 43.742188 200.121094 43.789062 199.921875 43.839844 C 199.820312 43.867188 199.714844 43.894531 199.613281 43.921875 C 199.398438 43.980469 199.183594 44.046875 198.96875 44.117188 C 198.894531 44.140625 198.8125 44.164062 198.734375 44.191406 C 198.441406 44.292969 198.152344 44.402344 197.867188 44.519531 C 197.839844 44.53125 197.8125 44.542969 197.789062 44.554688 C 197.53125 44.664062 197.277344 44.777344 197.023438 44.902344 C 196.941406 44.945312 196.855469 44.988281 196.769531 45.035156 C 196.578125 45.132812 196.390625 45.234375 196.203125 45.339844 C 196.105469 45.394531 196.011719 45.449219 195.917969 45.507812 C 195.742188 45.613281 195.566406 45.722656 195.394531 45.835938 C 195.304688 45.894531 195.210938 45.957031 195.125 46.019531 C 194.941406 46.144531 194.761719 46.277344 194.582031 46.410156 C 194.511719 46.464844 194.4375 46.519531 194.367188 46.578125 C 194.117188 46.769531 193.875 46.972656 193.640625 47.183594 C 193.628906 47.195312 193.617188 47.207031 193.601562 47.21875 C 193.382812 47.417969 193.167969 47.628906 192.957031 47.84375 C 192.886719 47.914062 192.816406 47.992188 192.75 48.066406 C 192.597656 48.226562 192.453125 48.386719 192.308594 48.554688 C 192.230469 48.644531 192.15625 48.734375 192.082031 48.828125 C 191.949219 48.988281 191.820312 49.15625 191.695312 49.324219 C 191.621094 49.421875 191.550781 49.515625 191.480469 49.613281 C 191.351562 49.796875 191.226562 49.984375 191.105469 50.175781 C 191.046875 50.265625 190.988281 50.351562 190.933594 50.441406 C 190.757812 50.726562 190.589844 51.011719 190.433594 51.3125 L 189.464844 53.144531 C 189.40625 53.261719 189.332031 53.363281 189.253906 53.457031 C 189.179688 53.550781 189.097656 53.632812 189.007812 53.707031 C 188.933594 53.769531 188.855469 53.828125 188.773438 53.875 C 188.769531 53.875 188.769531 53.878906 188.765625 53.878906 C 188.625 53.960938 188.476562 54.019531 188.320312 54.0625 C 188.265625 54.074219 188.210938 54.082031 188.152344 54.09375 C 188.128906 54.097656 188.105469 54.105469 188.082031 54.109375 C 188.042969 54.113281 188 54.113281 187.957031 54.117188 C 187.921875 54.117188 187.882812 54.125 187.84375 54.125 C 187.804688 54.125 187.765625 54.117188 187.726562 54.117188 C 187.6875 54.113281 187.644531 54.113281 187.605469 54.109375 C 187.53125 54.097656 187.457031 54.082031 187.382812 54.066406 C 187.378906 54.0625 187.371094 54.0625 187.367188 54.0625 C 187.328125 54.050781 187.292969 54.035156 187.253906 54.023438 C 187.136719 53.984375 187.027344 53.941406 186.921875 53.878906 C 186.917969 53.878906 186.917969 53.875 186.914062 53.875 C 186.632812 53.710938 186.390625 53.46875 186.21875 53.144531 L 185.171875 51.15625 C 185.011719 50.855469 184.84375 50.570312 184.671875 50.289062 C 184.617188 50.195312 184.554688 50.109375 184.5 50.019531 C 184.378906 49.832031 184.253906 49.644531 184.125 49.464844 C 184.054688 49.363281 183.980469 49.265625 183.910156 49.167969 C 183.785156 49.003906 183.65625 48.835938 183.527344 48.679688 C 183.449219 48.585938 183.375 48.492188 183.292969 48.398438 C 183.152344 48.238281 183.011719 48.078125 182.863281 47.921875 C 182.792969 47.84375 182.722656 47.765625 182.648438 47.691406 C 182.441406 47.480469 182.230469 47.273438 182.011719 47.078125 C 181.996094 47.0625 181.984375 47.046875 181.96875 47.035156 C 181.734375 46.824219 181.496094 46.625 181.253906 46.433594 C 181.171875 46.371094 181.089844 46.308594 181.007812 46.246094 C 180.839844 46.121094 180.671875 45.996094 180.5 45.878906 C 180.402344 45.8125 180.300781 45.746094 180.203125 45.683594 C 180.042969 45.574219 179.875 45.472656 179.710938 45.371094 C 179.609375 45.308594 179.507812 45.25 179.402344 45.1875 C 179.226562 45.089844 179.046875 44.996094 178.867188 44.902344 C 178.773438 44.851562 178.679688 44.800781 178.585938 44.757812 C 178.339844 44.636719 178.089844 44.523438 177.835938 44.414062 C 177.808594 44.402344 177.78125 44.390625 177.75 44.375 C 177.46875 44.261719 177.183594 44.152344 176.898438 44.054688 C 176.804688 44.023438 176.710938 43.996094 176.617188 43.964844 C 176.417969 43.898438 176.21875 43.839844 176.019531 43.78125 C 175.910156 43.753906 175.796875 43.722656 175.6875 43.695312 C 175.496094 43.648438 175.308594 43.601562 175.121094 43.5625 C 175.003906 43.539062 174.890625 43.515625 174.78125 43.496094 C 174.578125 43.457031 174.375 43.421875 174.175781 43.394531 C 174.074219 43.378906 173.972656 43.363281 173.871094 43.347656 C 173.601562 43.316406 173.328125 43.289062 173.054688 43.269531 C 173.023438 43.265625 172.992188 43.261719 172.960938 43.261719 C 172.65625 43.242188 172.351562 43.230469 172.046875 43.230469 C 171.800781 43.230469 171.554688 43.234375 171.308594 43.242188 C 171.285156 43.242188 171.261719 43.246094 171.238281 43.246094 C 171.011719 43.257812 170.78125 43.277344 170.554688 43.296875 C 170.472656 43.304688 170.390625 43.316406 170.308594 43.328125 C 170.136719 43.34375 169.964844 43.367188 169.789062 43.390625 C 169.703125 43.40625 169.613281 43.421875 169.523438 43.433594 C 169.347656 43.464844 169.175781 43.496094 169.003906 43.53125 C 168.921875 43.546875 168.84375 43.5625 168.765625 43.578125 C 168.519531 43.632812 168.273438 43.695312 168.027344 43.761719 C 168.003906 43.769531 167.984375 43.773438 167.960938 43.78125 C 167.738281 43.84375 167.515625 43.914062 167.292969 43.988281 C 167.210938 44.011719 167.132812 44.042969 167.050781 44.070312 C 166.886719 44.128906 166.71875 44.1875 166.558594 44.253906 C 166.46875 44.289062 166.382812 44.324219 166.296875 44.359375 C 166.128906 44.425781 165.96875 44.5 165.804688 44.574219 C 165.726562 44.609375 165.652344 44.640625 165.574219 44.679688 C 165.339844 44.792969 165.109375 44.910156 164.878906 45.035156 C 164.863281 45.042969 164.851562 45.050781 164.835938 45.058594 C 164.621094 45.179688 164.40625 45.304688 164.191406 45.4375 C 164.121094 45.480469 164.046875 45.527344 163.972656 45.574219 C 163.820312 45.671875 163.664062 45.777344 163.515625 45.882812 C 163.433594 45.9375 163.355469 45.992188 163.28125 46.050781 C 163.128906 46.160156 162.976562 46.273438 162.828125 46.390625 C 162.757812 46.441406 162.691406 46.496094 162.625 46.550781 C 162.410156 46.722656 162.199219 46.898438 161.996094 47.085938 C 153.105469 55.125 147.445312 68.320312 147.445312 86.753906 C 147.445312 89.582031 147.742188 92.441406 148.289062 95.308594 C 148.378906 95.785156 148.476562 96.261719 148.582031 96.742188 C 149.101562 99.128906 149.789062 101.515625 150.609375 103.890625 C 151.265625 105.789062 152.011719 107.679688 152.824219 109.550781 L 152.824219 109.558594 C 158.929688 123.566406 169.046875 136.613281 176.816406 145.425781 C 175.636719 146.550781 174.632812 147.851562 173.847656 149.292969 C 165.675781 140.109375 154.921875 126.359375 148.429688 111.464844 C 148.414062 111.421875 148.398438 111.382812 148.382812 111.34375 C 147.113281 108.425781 146.0625 105.566406 145.214844 102.765625 C 144.878906 102.542969 144.542969 102.328125 144.207031 102.117188 C 143.628906 101.757812 143.054688 101.402344 142.472656 101.066406 C 141.210938 100.335938 139.933594 99.660156 138.640625 99.046875 C 136.917969 98.230469 135.160156 97.527344 133.378906 96.949219 C 132.863281 96.78125 132.347656 96.621094 131.839844 96.464844 C 131.671875 96.414062 131.507812 96.367188 131.347656 96.320312 C 131 96.21875 130.65625 96.113281 130.3125 96.019531 C 130.121094 95.960938 129.929688 95.910156 129.738281 95.859375 C 129.421875 95.769531 129.109375 95.683594 128.796875 95.601562 C 128.597656 95.550781 128.402344 95.5 128.203125 95.449219 C 127.898438 95.371094 127.597656 95.296875 127.296875 95.222656 C 127.097656 95.175781 126.898438 95.128906 126.703125 95.082031 C 126.402344 95.007812 126.097656 94.941406 125.796875 94.875 C 125.609375 94.832031 125.421875 94.789062 125.230469 94.75 C 124.917969 94.683594 124.601562 94.621094 124.289062 94.558594 C 124.121094 94.523438 123.949219 94.488281 123.78125 94.457031 C 123.425781 94.386719 123.070312 94.324219 122.71875 94.261719 C 122.59375 94.238281 122.472656 94.214844 122.347656 94.195312 C 121.867188 94.113281 121.390625 94.035156 120.914062 93.964844 C 120.914062 93.964844 120.910156 93.964844 120.910156 93.964844 C 120.445312 93.894531 119.980469 93.832031 119.519531 93.773438 C 119.382812 93.753906 119.25 93.738281 119.113281 93.722656 C 118.789062 93.683594 118.460938 93.648438 118.140625 93.613281 C 117.976562 93.597656 117.8125 93.582031 117.648438 93.566406 C 117.359375 93.535156 117.066406 93.507812 116.777344 93.484375 C 116.601562 93.472656 116.429688 93.457031 116.257812 93.445312 C 115.980469 93.425781 115.703125 93.40625 115.425781 93.390625 C 115.253906 93.378906 115.074219 93.371094 114.902344 93.359375 C 114.628906 93.347656 114.359375 93.335938 114.089844 93.328125 C 113.917969 93.320312 113.746094 93.316406 113.574219 93.308594 C 113.296875 93.304688 113.023438 93.296875 112.75 93.296875 C 112.589844 93.292969 112.429688 93.289062 112.269531 93.289062 C 112.082031 93.289062 111.894531 93.292969 111.710938 93.292969 C 111.410156 93.296875 111.113281 93.300781 110.816406 93.304688 C 110.628906 93.3125 110.441406 93.320312 110.25 93.324219 C 109.96875 93.335938 109.683594 93.347656 109.402344 93.363281 C 109.210938 93.371094 109.023438 93.382812 108.835938 93.398438 C 108.558594 93.414062 108.28125 93.433594 108.007812 93.457031 C 107.824219 93.472656 107.636719 93.488281 107.453125 93.503906 C 107.175781 93.53125 106.902344 93.558594 106.625 93.589844 C 106.449219 93.609375 106.273438 93.628906 106.101562 93.648438 C 105.816406 93.683594 105.53125 93.722656 105.25 93.761719 C 105.089844 93.785156 104.929688 93.804688 104.773438 93.832031 C 104.460938 93.878906 104.152344 93.929688 103.84375 93.984375 C 103.71875 94.003906 103.59375 94.023438 103.46875 94.046875 C 102.601562 94.203125 101.75 94.386719 100.914062 94.589844 C 100.8125 94.617188 100.710938 94.648438 100.605469 94.671875 C 100.296875 94.75 99.988281 94.832031 99.6875 94.914062 C 99.542969 94.957031 99.402344 94.996094 99.261719 95.039062 C 99 95.113281 98.738281 95.195312 98.480469 95.273438 C 98.324219 95.324219 98.171875 95.375 98.019531 95.421875 C 97.777344 95.503906 97.535156 95.582031 97.292969 95.667969 C 97.136719 95.722656 96.984375 95.777344 96.828125 95.832031 C 96.59375 95.917969 96.363281 96.003906 96.132812 96.09375 C 95.976562 96.152344 95.820312 96.214844 95.667969 96.273438 C 95.441406 96.367188 95.214844 96.460938 94.988281 96.554688 C 94.835938 96.617188 94.6875 96.679688 94.539062 96.746094 C 94.3125 96.847656 94.082031 96.953125 93.859375 97.054688 C 93.71875 97.121094 93.578125 97.183594 93.4375 97.25 C 93.191406 97.367188 92.953125 97.488281 92.710938 97.609375 C 92.59375 97.667969 92.480469 97.722656 92.367188 97.78125 C 92.015625 97.964844 91.664062 98.152344 91.320312 98.34375 C 90.523438 98.792969 89.785156 99.296875 89.109375 99.855469 C 88.433594 100.414062 87.820312 101.019531 87.269531 101.667969 C 86.902344 102.097656 86.5625 102.546875 86.253906 103.015625 C 85.941406 103.480469 85.660156 103.960938 85.40625 104.453125 C 85.28125 104.699219 85.160156 104.949219 85.046875 105.203125 C 84.820312 105.707031 84.625 106.226562 84.460938 106.75 C 84.292969 107.273438 84.15625 107.808594 84.046875 108.347656 C 83.941406 108.886719 83.863281 109.429688 83.816406 109.976562 C 83.792969 110.253906 83.773438 110.527344 83.765625 110.800781 C 83.730469 111.902344 83.816406 113.007812 84.03125 114.097656 C 84.132812 114.640625 84.269531 115.183594 84.4375 115.71875 C 84.691406 116.519531 85.011719 117.304688 85.40625 118.066406 C 86.066406 119.335938 86.925781 120.535156 87.988281 121.625 L 89.433594 123.109375 C 89.691406 123.371094 89.851562 123.679688 89.917969 124 C 89.953125 124.160156 89.964844 124.320312 89.957031 124.480469 C 89.9375 124.800781 89.835938 125.113281 89.660156 125.382812 C 89.402344 125.785156 88.976562 126.09375 88.429688 126.1875 L 86.210938 126.570312 C 84.113281 126.929688 82.214844 127.699219 80.570312 128.777344 C 80.335938 128.929688 80.105469 129.09375 79.878906 129.257812 C 79.429688 129.589844 79.003906 129.945312 78.597656 130.324219 C 78.191406 130.703125 77.808594 131.097656 77.453125 131.515625 C 76.734375 132.351562 76.113281 133.265625 75.597656 134.230469 C 75.339844 134.714844 75.109375 135.214844 74.90625 135.722656 C 74.703125 136.234375 74.527344 136.753906 74.382812 137.285156 C 74.089844 138.34375 73.914062 139.441406 73.863281 140.558594 C 73.851562 140.835938 73.847656 141.117188 73.851562 141.398438 C 73.875 143.359375 74.296875 145.363281 75.167969 147.300781 C 77.320312 152.078125 80.605469 156.574219 85.089844 160.59375 C 86.691406 162.03125 88.445312 163.40625 90.355469 164.714844 C 91.121094 165.238281 91.910156 165.75 92.726562 166.25 C 97.207031 169.003906 102.453125 171.402344 108.492188 173.363281 C 109.050781 173.542969 109.617188 173.707031 110.1875 173.867188 C 110.351562 173.914062 110.511719 173.953125 110.675781 173.996094 C 111.128906 174.117188 111.582031 174.230469 112.042969 174.335938 C 112.179688 174.367188 112.3125 174.402344 112.445312 174.429688 C 113.023438 174.558594 113.605469 174.679688 114.1875 174.785156 C 114.320312 174.808594 114.449219 174.828125 114.582031 174.851562 C 115.054688 174.933594 115.53125 175.007812 116.011719 175.078125 C 116.183594 175.105469 116.355469 175.128906 116.527344 175.152344 C 117.085938 175.226562 117.648438 175.296875 118.214844 175.355469 C 118.257812 175.359375 118.296875 175.363281 118.335938 175.367188 C 118.941406 175.429688 119.550781 175.476562 120.164062 175.519531 C 120.335938 175.53125 120.507812 175.542969 120.679688 175.550781 C 121.160156 175.582031 121.644531 175.605469 122.128906 175.621094 C 122.28125 175.625 122.433594 175.632812 122.585938 175.636719 C 123.199219 175.65625 123.816406 175.667969 124.4375 175.667969 C 124.589844 175.667969 124.75 175.664062 124.90625 175.664062 C 125.308594 175.660156 125.714844 175.65625 126.121094 175.648438 C 126.324219 175.644531 126.53125 175.636719 126.734375 175.628906 C 127.105469 175.617188 127.476562 175.605469 127.847656 175.585938 C 128.054688 175.578125 128.261719 175.566406 128.46875 175.558594 C 128.859375 175.535156 129.253906 175.511719 129.644531 175.484375 C 129.824219 175.472656 130.003906 175.460938 130.183594 175.449219 C 130.75 175.40625 131.320312 175.355469 131.890625 175.300781 L 131.894531 175.304688 C 132.398438 175.253906 132.902344 175.203125 133.410156 175.144531 C 135.9375 174.859375 138.46875 174.464844 140.984375 173.984375 C 141.988281 173.792969 142.988281 173.585938 143.988281 173.367188 C 149.476562 172.171875 154.828125 170.605469 159.796875 168.914062 C 160.246094 168.761719 160.695312 168.605469 161.140625 168.449219 C 163.367188 167.671875 165.511719 166.871094 167.546875 166.074219 C 167.953125 165.914062 168.355469 165.753906 168.753906 165.59375 C 170.421875 164.929688 172.007812 164.269531 173.503906 163.625 C 174.222656 165.105469 175.164062 166.453125 176.289062 167.632812 C 165.011719 172.546875 148.570312 178.507812 132.351562 180.0625 C 132.308594 180.066406 132.265625 180.070312 132.222656 180.074219 C 129.582031 180.324219 126.992188 180.449219 124.523438 180.449219 C 124.035156 180.449219 123.554688 180.433594 123.066406 180.425781 C 122.988281 180.488281 122.90625 180.546875 122.828125 180.609375 C 121.683594 181.535156 120.582031 182.492188 119.527344 183.484375 C 118.476562 184.476562 117.472656 185.503906 116.527344 186.5625 C 115.578125 187.625 114.691406 188.722656 113.863281 189.859375 C 113.191406 190.78125 112.546875 191.703125 111.929688 192.621094 C 109.777344 195.832031 107.984375 198.992188 106.519531 202.09375 C 105.683594 203.867188 104.957031 205.617188 104.335938 207.347656 C 103.558594 209.511719 102.945312 211.636719 102.492188 213.722656 C 102.308594 214.558594 102.152344 215.386719 102.019531 216.207031 C 101.820312 217.441406 101.679688 218.65625 101.589844 219.859375 C 101.53125 220.660156 101.496094 221.449219 101.480469 222.238281 C 101.441406 224.988281 101.683594 227.644531 102.199219 230.195312 C 102.25 230.460938 102.316406 230.726562 102.382812 230.988281 C 102.402344 231.066406 102.425781 231.144531 102.445312 231.222656 C 102.5 231.414062 102.554688 231.601562 102.613281 231.789062 C 102.636719 231.867188 102.664062 231.945312 102.6875 232.019531 C 102.765625 232.253906 102.847656 232.484375 102.9375 232.714844 C 102.945312 232.730469 102.953125 232.746094 102.957031 232.765625 C 103.054688 233.007812 103.160156 233.25 103.269531 233.488281 C 103.300781 233.554688 103.332031 233.617188 103.363281 233.6875 C 103.449219 233.859375 103.535156 234.035156 103.625 234.203125 C 103.660156 234.269531 103.695312 234.339844 103.734375 234.40625 C 103.84375 234.609375 103.957031 234.808594 104.078125 235.003906 C 104.09375 235.027344 104.105469 235.050781 104.121094 235.074219 C 104.257812 235.292969 104.398438 235.507812 104.542969 235.714844 C 104.582031 235.773438 104.621094 235.824219 104.664062 235.882812 C 104.773438 236.035156 104.886719 236.191406 105.007812 236.34375 C 105.054688 236.402344 105.101562 236.460938 105.144531 236.519531 C 105.28125 236.6875 105.421875 236.855469 105.566406 237.019531 C 105.589844 237.046875 105.613281 237.074219 105.636719 237.101562 C 105.804688 237.289062 105.976562 237.472656 106.15625 237.652344 C 106.199219 237.695312 106.242188 237.738281 106.289062 237.78125 C 106.425781 237.917969 106.566406 238.054688 106.710938 238.183594 C 106.765625 238.234375 106.820312 238.28125 106.875 238.332031 C 107.03125 238.46875 107.191406 238.605469 107.351562 238.738281 C 107.386719 238.761719 107.417969 238.789062 107.449219 238.816406 C 107.648438 238.972656 107.847656 239.125 108.050781 239.273438 C 108.097656 239.304688 108.144531 239.335938 108.195312 239.371094 C 108.355469 239.484375 108.515625 239.589844 108.679688 239.695312 C 108.742188 239.734375 108.804688 239.777344 108.867188 239.816406 C 109.039062 239.921875 109.210938 240.027344 109.386719 240.125 C 109.429688 240.148438 109.472656 240.175781 109.515625 240.199219 C 109.734375 240.320312 109.957031 240.4375 110.179688 240.546875 C 110.230469 240.570312 110.28125 240.59375 110.328125 240.617188 C 110.507812 240.703125 110.683594 240.785156 110.867188 240.863281 C 110.9375 240.894531 111.003906 240.921875 111.074219 240.949219 C 111.253906 241.023438 111.4375 241.09375 111.621094 241.164062 C 111.675781 241.183594 111.726562 241.203125 111.78125 241.222656 C 112.015625 241.308594 112.253906 241.386719 112.488281 241.457031 C 112.539062 241.472656 112.589844 241.484375 112.640625 241.5 C 112.832031 241.554688 113.023438 241.605469 113.21875 241.65625 C 113.292969 241.671875 113.367188 241.691406 113.445312 241.707031 C 113.628906 241.75 113.816406 241.789062 114.003906 241.824219 C 114.066406 241.839844 114.128906 241.851562 114.191406 241.859375 C 114.4375 241.90625 114.683594 241.945312 114.933594 241.976562 C 114.980469 241.980469 115.027344 241.984375 115.074219 241.988281 C 115.277344 242.015625 115.480469 242.03125 115.6875 242.050781 C 115.765625 242.054688 115.84375 242.058594 115.925781 242.0625 C 116.109375 242.074219 116.300781 242.082031 116.488281 242.085938 C 116.558594 242.085938 116.625 242.089844 116.695312 242.089844 C 116.847656 242.089844 117 242.085938 117.152344 242.082031 C 117.285156 242.078125 117.414062 242.078125 117.542969 242.070312 C 117.691406 242.0625 117.839844 242.050781 117.988281 242.039062 C 118.121094 242.027344 118.25 242.019531 118.382812 242.003906 C 118.53125 241.988281 118.683594 241.964844 118.832031 241.945312 C 118.960938 241.925781 119.089844 241.910156 119.21875 241.890625 C 119.371094 241.863281 119.523438 241.832031 119.671875 241.800781 C 119.800781 241.777344 119.929688 241.753906 120.058594 241.722656 C 120.210938 241.6875 120.363281 241.644531 120.515625 241.605469 C 120.640625 241.574219 120.765625 241.542969 120.894531 241.507812 C 121.050781 241.460938 121.210938 241.40625 121.367188 241.355469 C 121.488281 241.316406 121.605469 241.28125 121.722656 241.238281 C 121.898438 241.175781 122.078125 241.105469 122.253906 241.035156 C 122.351562 240.996094 122.449219 240.964844 122.546875 240.921875 C 122.816406 240.808594 123.082031 240.6875 123.34375 240.558594 C 123.351562 240.554688 123.355469 240.554688 123.363281 240.550781 L 125.222656 239.632812 C 125.300781 239.597656 125.375 239.566406 125.453125 239.539062 C 125.476562 239.53125 125.5 239.527344 125.527344 239.519531 C 125.578125 239.503906 125.632812 239.488281 125.6875 239.480469 C 125.714844 239.472656 125.742188 239.46875 125.769531 239.464844 C 125.820312 239.457031 125.871094 239.453125 125.925781 239.449219 C 125.949219 239.445312 125.976562 239.445312 126 239.445312 C 126.011719 239.445312 126.023438 239.441406 126.035156 239.441406 C 126.089844 239.441406 126.144531 239.445312 126.195312 239.453125 C 126.207031 239.453125 126.214844 239.453125 126.226562 239.453125 C 126.300781 239.460938 126.371094 239.472656 126.445312 239.492188 C 126.464844 239.496094 126.488281 239.503906 126.507812 239.507812 C 126.558594 239.523438 126.609375 239.535156 126.660156 239.554688 C 126.683594 239.566406 126.707031 239.574219 126.730469 239.582031 C 126.777344 239.601562 126.820312 239.625 126.867188 239.648438 C 126.886719 239.660156 126.910156 239.667969 126.929688 239.679688 C 126.988281 239.710938 127.042969 239.746094 127.09375 239.785156 C 127.101562 239.789062 127.109375 239.792969 127.113281 239.796875 C 127.171875 239.839844 127.230469 239.886719 127.28125 239.9375 C 127.300781 239.953125 127.3125 239.96875 127.332031 239.984375 C 127.367188 240.019531 127.402344 240.058594 127.4375 240.097656 C 127.453125 240.113281 127.46875 240.136719 127.484375 240.15625 C 127.515625 240.195312 127.546875 240.238281 127.574219 240.28125 C 127.585938 240.300781 127.601562 240.320312 127.613281 240.339844 C 127.648438 240.398438 127.679688 240.460938 127.707031 240.523438 C 127.710938 240.527344 127.714844 240.53125 127.714844 240.535156 C 127.746094 240.601562 127.773438 240.671875 127.792969 240.746094 C 127.800781 240.765625 127.804688 240.789062 127.8125 240.8125 C 127.824219 240.867188 127.835938 240.917969 127.84375 240.972656 C 127.847656 240.996094 127.851562 241.027344 127.855469 241.050781 C 127.863281 241.105469 127.867188 241.160156 127.867188 241.21875 C 127.867188 241.242188 127.867188 241.265625 127.867188 241.292969 C 127.867188 241.371094 127.863281 241.453125 127.851562 241.535156 C 127.851562 241.535156 127.851562 241.539062 127.851562 241.539062 L 127.527344 243.761719 C 127.527344 243.765625 127.527344 243.773438 127.527344 243.777344 C 127.484375 244.0625 127.453125 244.351562 127.425781 244.632812 C 127.417969 244.730469 127.414062 244.828125 127.410156 244.925781 C 127.398438 245.117188 127.382812 245.308594 127.375 245.5 C 127.375 245.613281 127.375 245.726562 127.375 245.839844 C 127.375 246.011719 127.375 246.183594 127.378906 246.351562 C 127.382812 246.472656 127.390625 246.589844 127.398438 246.710938 C 127.40625 246.875 127.414062 247.035156 127.425781 247.195312 C 127.4375 247.316406 127.453125 247.4375 127.464844 247.558594 C 127.484375 247.714844 127.5 247.871094 127.523438 248.027344 C 127.539062 248.148438 127.5625 248.269531 127.582031 248.390625 C 127.609375 248.539062 127.632812 248.691406 127.664062 248.84375 C 127.6875 248.964844 127.71875 249.082031 127.742188 249.203125 C 127.777344 249.351562 127.8125 249.5 127.851562 249.644531 C 127.882812 249.765625 127.914062 249.882812 127.949219 250 C 127.992188 250.144531 128.035156 250.289062 128.082031 250.429688 C 128.117188 250.546875 128.15625 250.660156 128.199219 250.777344 C 128.25 250.917969 128.300781 251.0625 128.355469 251.199219 C 128.398438 251.3125 128.441406 251.425781 128.488281 251.535156 C 128.546875 251.675781 128.605469 251.8125 128.667969 251.953125 C 128.714844 252.058594 128.765625 252.164062 128.816406 252.273438 C 128.882812 252.410156 128.953125 252.546875 129.023438 252.679688 C 129.074219 252.785156 129.128906 252.886719 129.183594 252.988281 C 129.257812 253.125 129.335938 253.257812 129.417969 253.390625 C 129.472656 253.488281 129.53125 253.585938 129.589844 253.683594 C 129.671875 253.816406 129.761719 253.949219 129.851562 254.082031 C 129.910156 254.171875 129.96875 254.265625 130.03125 254.351562 C 130.125 254.488281 130.226562 254.621094 130.324219 254.753906 C 130.386719 254.835938 130.445312 254.917969 130.503906 254.996094 C 130.617188 255.140625 130.734375 255.28125 130.851562 255.417969 C 130.90625 255.484375 130.960938 255.550781 131.015625 255.613281 C 131.167969 255.789062 131.324219 255.960938 131.484375 256.128906 C 131.507812 256.152344 131.53125 256.179688 131.554688 256.203125 C 131.746094 256.398438 131.9375 256.585938 132.132812 256.769531 C 132.171875 256.800781 132.210938 256.832031 132.246094 256.867188 C 132.40625 257.011719 132.570312 257.160156 132.738281 257.296875 C 132.804688 257.351562 132.875 257.40625 132.945312 257.464844 C 133.085938 257.574219 133.222656 257.683594 133.367188 257.789062 C 133.449219 257.851562 133.535156 257.910156 133.621094 257.972656 C 133.753906 258.066406 133.886719 258.164062 134.023438 258.253906 C 134.113281 258.316406 134.210938 258.371094 134.304688 258.433594 C 134.433594 258.515625 134.566406 258.601562 134.703125 258.679688 C 134.804688 258.738281 134.90625 258.792969 135.003906 258.851562 C 135.140625 258.925781 135.273438 259 135.410156 259.070312 C 135.515625 259.125 135.621094 259.175781 135.726562 259.226562 C 135.863281 259.292969 136 259.359375 136.140625 259.421875 C 136.25 259.472656 136.359375 259.519531 136.46875 259.566406 C 136.609375 259.625 136.75 259.683594 136.890625 259.738281 C 137.003906 259.78125 137.117188 259.824219 137.234375 259.863281 C 137.375 259.914062 137.515625 259.964844 137.660156 260.007812 C 137.777344 260.046875 137.894531 260.085938 138.011719 260.121094 C 138.160156 260.164062 138.304688 260.203125 138.449219 260.242188 C 138.570312 260.273438 138.691406 260.304688 138.8125 260.335938 C 138.960938 260.367188 139.109375 260.398438 139.257812 260.429688 C 139.378906 260.457031 139.503906 260.480469 139.625 260.503906 C 139.777344 260.53125 139.933594 260.554688 140.085938 260.574219 C 140.210938 260.59375 140.332031 260.609375 140.457031 260.625 C 140.613281 260.644531 140.769531 260.660156 140.929688 260.671875 C 141.054688 260.683594 141.175781 260.695312 141.300781 260.703125 C 141.460938 260.714844 141.628906 260.71875 141.792969 260.722656 C 141.914062 260.726562 142.035156 260.734375 142.15625 260.734375 C 142.34375 260.734375 142.535156 260.726562 142.726562 260.722656 C 142.820312 260.71875 142.914062 260.71875 143.011719 260.714844 C 143.300781 260.699219 143.589844 260.675781 143.878906 260.644531 C 146.117188 260.402344 148.367188 259.945312 150.621094 259.269531 C 151.746094 258.929688 152.875 258.535156 154 258.082031 C 155.128906 257.632812 156.253906 257.121094 157.375 256.554688 C 157.75 256.367188 158.125 256.171875 158.496094 255.96875 C 159.246094 255.5625 159.992188 255.132812 160.734375 254.679688 C 161.109375 254.449219 161.480469 254.214844 161.847656 253.972656 C 162.964844 253.246094 164.070312 252.460938 165.171875 251.617188 C 166.277344 250.773438 167.371094 249.863281 168.460938 248.894531 C 172.085938 245.667969 175.625 241.746094 179.019531 237.085938 C 180.6875 234.792969 182.128906 232.308594 183.378906 229.671875 C 183.792969 228.792969 184.1875 227.894531 184.5625 226.984375 C 184.9375 226.078125 185.289062 225.152344 185.621094 224.214844 C 186.433594 221.925781 187.125 219.558594 187.714844 217.144531 C 187.847656 216.59375 187.976562 216.039062 188.101562 215.484375 L 188.105469 215.480469 C 190.191406 206.089844 190.765625 196.078125 190.636719 187.035156 C 190.628906 186.558594 190.617188 186.082031 190.609375 185.613281 C 190.5 180.820312 190.195312 176.332031 189.828125 172.390625 C 191.484375 172.167969 193.058594 171.695312 194.507812 171 C 195.710938 183.21875 196.308594 200.652344 192.785156 216.515625 C 192.773438 216.558594 192.765625 216.601562 192.753906 216.644531 C 192.058594 219.746094 191.226562 222.679688 190.261719 225.441406 C 190.296875 225.535156 190.328125 225.628906 190.363281 225.71875 C 190.714844 226.632812 191.085938 227.539062 191.476562 228.421875 C 192.066406 229.753906 192.699219 231.046875 193.386719 232.300781 C 193.84375 233.136719 194.324219 233.953125 194.828125 234.753906 C 195.078125 235.152344 195.335938 235.546875 195.601562 235.933594 C 195.863281 236.324219 196.132812 236.707031 196.40625 237.085938 C 197.753906 238.933594 199.125 240.667969 200.511719 242.285156 C 201.207031 243.097656 201.90625 243.878906 202.609375 244.632812 C 203.3125 245.382812 204.019531 246.109375 204.734375 246.808594 C 207.9375 249.949219 211.21875 252.53125 214.539062 254.582031 C 215.277344 255.039062 216.015625 255.472656 216.757812 255.875 C 217.125 256.078125 217.496094 256.277344 217.871094 256.464844 C 222.324219 258.738281 226.820312 260.097656 231.257812 260.617188 C 231.257812 260.617188 231.257812 260.617188 231.261719 260.617188 C 231.558594 260.652344 231.855469 260.675781 232.152344 260.695312 C 232.246094 260.699219 232.34375 260.699219 232.4375 260.703125 C 232.640625 260.710938 232.835938 260.71875 233.035156 260.71875 C 233.121094 260.71875 233.207031 260.714844 233.292969 260.710938 C 233.492188 260.707031 233.691406 260.703125 233.890625 260.691406 C 234 260.6875 234.109375 260.671875 234.21875 260.664062 C 234.390625 260.652344 234.5625 260.636719 234.734375 260.617188 C 234.851562 260.605469 234.96875 260.585938 235.085938 260.566406 C 235.246094 260.546875 235.40625 260.523438 235.5625 260.496094 C 235.683594 260.476562 235.800781 260.449219 235.921875 260.425781 C 236.074219 260.394531 236.226562 260.363281 236.375 260.328125 C 236.496094 260.300781 236.617188 260.269531 236.738281 260.238281 C 236.882812 260.199219 237.027344 260.160156 237.167969 260.117188 C 237.292969 260.082031 237.414062 260.042969 237.53125 260.003906 C 237.671875 259.960938 237.808594 259.914062 237.949219 259.863281 C 238.066406 259.820312 238.1875 259.777344 238.304688 259.730469 C 238.441406 259.679688 238.574219 259.625 238.707031 259.570312 C 238.824219 259.519531 238.941406 259.46875 239.058594 259.417969 C 239.1875 259.359375 239.316406 259.296875 239.445312 259.234375 C 239.558594 259.179688 239.675781 259.125 239.789062 259.0625 C 239.914062 259 240.039062 258.929688 240.160156 258.863281 C 240.273438 258.800781 240.386719 258.738281 240.496094 258.671875 C 240.617188 258.601562 240.738281 258.527344 240.855469 258.453125 C 240.964844 258.382812 241.074219 258.316406 241.179688 258.246094 C 241.296875 258.167969 241.410156 258.085938 241.527344 258 C 241.628906 257.929688 241.734375 257.859375 241.835938 257.78125 C 241.949219 257.695312 242.058594 257.605469 242.171875 257.519531 C 242.269531 257.441406 242.367188 257.367188 242.464844 257.285156 C 242.578125 257.191406 242.6875 257.09375 242.796875 257 C 242.886719 256.917969 242.976562 256.839844 243.066406 256.757812 C 243.179688 256.648438 243.292969 256.539062 243.402344 256.429688 C 243.480469 256.351562 243.5625 256.277344 243.640625 256.195312 C 243.820312 256.007812 244 255.816406 244.171875 255.617188 C 244.238281 255.539062 244.300781 255.460938 244.367188 255.382812 C 244.472656 255.257812 244.578125 255.128906 244.679688 255 C 244.753906 254.90625 244.824219 254.808594 244.894531 254.714844 C 244.984375 254.59375 245.074219 254.476562 245.15625 254.355469 C 245.230469 254.253906 245.296875 254.148438 245.363281 254.046875 C 245.445312 253.925781 245.523438 253.808594 245.597656 253.6875 C 245.667969 253.578125 245.730469 253.46875 245.792969 253.359375 C 245.867188 253.238281 245.9375 253.113281 246.003906 252.992188 C 246.066406 252.878906 246.125 252.765625 246.183594 252.652344 C 246.25 252.527344 246.3125 252.398438 246.375 252.273438 C 246.429688 252.15625 246.480469 252.039062 246.535156 251.921875 C 246.59375 251.792969 246.652344 251.664062 246.703125 251.535156 C 246.753906 251.414062 246.800781 251.292969 246.847656 251.175781 C 246.898438 251.039062 246.949219 250.90625 246.996094 250.773438 C 247.039062 250.652344 247.078125 250.53125 247.121094 250.40625 C 247.164062 250.269531 247.207031 250.132812 247.246094 249.992188 C 247.28125 249.871094 247.316406 249.746094 247.347656 249.621094 C 247.386719 249.480469 247.417969 249.335938 247.453125 249.195312 C 247.480469 249.070312 247.507812 248.945312 247.535156 248.820312 C 247.5625 248.675781 247.589844 248.527344 247.613281 248.378906 C 247.636719 248.253906 247.65625 248.128906 247.675781 248.003906 C 247.695312 247.851562 247.714844 247.699219 247.730469 247.542969 C 247.746094 247.421875 247.761719 247.296875 247.773438 247.171875 C 247.785156 247.011719 247.792969 246.855469 247.804688 246.691406 C 247.808594 246.570312 247.816406 246.453125 247.820312 246.328125 C 247.824219 246.160156 247.824219 245.988281 247.824219 245.816406 C 247.824219 245.703125 247.824219 245.589844 247.820312 245.476562 C 247.816406 245.285156 247.800781 245.089844 247.789062 244.898438 C 247.78125 244.800781 247.78125 244.707031 247.773438 244.609375 C 247.746094 244.320312 247.714844 244.03125 247.671875 243.738281 L 247.371094 241.6875 C 247.359375 241.605469 247.355469 241.523438 247.355469 241.441406 C 247.355469 241.417969 247.355469 241.394531 247.355469 241.367188 C 247.359375 241.3125 247.363281 241.257812 247.367188 241.203125 C 247.371094 241.175781 247.375 241.148438 247.378906 241.121094 C 247.386719 241.070312 247.398438 241.015625 247.414062 240.964844 C 247.417969 240.941406 247.421875 240.917969 247.429688 240.894531 C 247.453125 240.824219 247.476562 240.753906 247.507812 240.683594 C 247.507812 240.683594 247.511719 240.679688 247.511719 240.675781 C 247.542969 240.609375 247.574219 240.550781 247.613281 240.488281 C 247.621094 240.46875 247.636719 240.453125 247.648438 240.429688 C 247.675781 240.386719 247.707031 240.347656 247.738281 240.304688 C 247.753906 240.285156 247.769531 240.265625 247.785156 240.246094 C 247.820312 240.207031 247.855469 240.167969 247.894531 240.132812 C 247.910156 240.117188 247.921875 240.101562 247.941406 240.085938 C 247.992188 240.039062 248.050781 239.988281 248.109375 239.945312 C 248.113281 239.945312 248.121094 239.941406 248.125 239.9375 C 248.179688 239.898438 248.234375 239.863281 248.292969 239.832031 C 248.3125 239.820312 248.335938 239.808594 248.355469 239.796875 C 248.402344 239.773438 248.445312 239.753906 248.492188 239.734375 C 248.515625 239.726562 248.539062 239.714844 248.5625 239.707031 C 248.613281 239.6875 248.664062 239.671875 248.714844 239.660156 C 248.734375 239.652344 248.753906 239.644531 248.777344 239.640625 C 248.851562 239.625 248.921875 239.609375 248.996094 239.601562 C 249.007812 239.601562 249.015625 239.601562 249.023438 239.601562 C 249.078125 239.597656 249.132812 239.59375 249.1875 239.59375 C 249.199219 239.59375 249.210938 239.59375 249.222656 239.59375 C 249.246094 239.59375 249.273438 239.597656 249.296875 239.597656 C 249.351562 239.601562 249.402344 239.609375 249.453125 239.613281 C 249.480469 239.621094 249.507812 239.625 249.535156 239.628906 C 249.589844 239.640625 249.640625 239.652344 249.695312 239.671875 C 249.722656 239.675781 249.746094 239.683594 249.769531 239.691406 C 249.847656 239.714844 249.921875 239.746094 250 239.785156 L 252.019531 240.777344 C 252.023438 240.78125 252.03125 240.78125 252.035156 240.785156 C 252.300781 240.914062 252.566406 241.035156 252.832031 241.148438 C 252.925781 241.1875 253.019531 241.21875 253.113281 241.257812 C 253.292969 241.328125 253.476562 241.402344 253.65625 241.46875 C 253.765625 241.503906 253.871094 241.535156 253.980469 241.574219 C 254.148438 241.628906 254.316406 241.683594 254.484375 241.734375 C 254.601562 241.765625 254.714844 241.792969 254.832031 241.824219 C 254.992188 241.867188 255.15625 241.914062 255.320312 241.949219 C 255.441406 241.976562 255.558594 241.996094 255.679688 242.019531 C 255.839844 242.054688 255.996094 242.085938 256.15625 242.113281 C 256.28125 242.132812 256.402344 242.148438 256.527344 242.167969 C 256.683594 242.1875 256.835938 242.210938 256.988281 242.226562 C 257.117188 242.242188 257.246094 242.25 257.375 242.261719 C 257.523438 242.273438 257.675781 242.289062 257.824219 242.296875 C 257.953125 242.300781 258.082031 242.304688 258.210938 242.308594 C 258.363281 242.3125 258.515625 242.316406 258.667969 242.316406 C 258.734375 242.316406 258.800781 242.3125 258.867188 242.3125 C 259.058594 242.308594 259.246094 242.300781 259.4375 242.289062 C 259.515625 242.285156 259.59375 242.28125 259.671875 242.273438 C 259.871094 242.261719 260.074219 242.238281 260.273438 242.21875 C 260.324219 242.210938 260.375 242.207031 260.425781 242.199219 C 260.671875 242.171875 260.917969 242.132812 261.164062 242.089844 C 261.222656 242.078125 261.285156 242.066406 261.347656 242.054688 C 261.535156 242.019531 261.71875 241.980469 261.902344 241.9375 C 261.980469 241.921875 262.058594 241.902344 262.132812 241.882812 C 262.320312 241.835938 262.507812 241.785156 262.695312 241.734375 C 262.75 241.714844 262.804688 241.703125 262.859375 241.6875 C 263.097656 241.617188 263.328125 241.539062 263.5625 241.457031 C 263.617188 241.4375 263.671875 241.414062 263.730469 241.394531 C 263.90625 241.328125 264.085938 241.257812 264.261719 241.1875 C 264.335938 241.15625 264.410156 241.125 264.480469 241.09375 C 264.65625 241.019531 264.824219 240.941406 264.996094 240.859375 C 265.050781 240.832031 265.109375 240.808594 265.164062 240.78125 C 265.382812 240.671875 265.601562 240.558594 265.816406 240.441406 C 265.867188 240.414062 265.914062 240.382812 265.960938 240.355469 C 266.128906 240.261719 266.296875 240.164062 266.460938 240.0625 C 266.527344 240.019531 266.597656 239.976562 266.664062 239.933594 C 266.820312 239.832031 266.972656 239.730469 267.125 239.625 C 267.179688 239.585938 267.234375 239.546875 267.289062 239.507812 C 267.488281 239.367188 267.6875 239.21875 267.878906 239.066406 C 267.917969 239.035156 267.957031 239 267.996094 238.96875 C 268.152344 238.84375 268.304688 238.714844 268.453125 238.585938 C 268.511719 238.53125 268.574219 238.476562 268.632812 238.421875 C 268.765625 238.300781 268.902344 238.175781 269.03125 238.046875 C 269.082031 237.996094 269.132812 237.949219 269.183594 237.898438 C 269.359375 237.722656 269.527344 237.542969 269.695312 237.359375 C 269.722656 237.328125 269.75 237.292969 269.78125 237.261719 C 269.917969 237.105469 270.054688 236.945312 270.1875 236.78125 C 270.234375 236.71875 270.285156 236.65625 270.335938 236.59375 C 270.449219 236.449219 270.558594 236.300781 270.667969 236.152344 C 270.710938 236.089844 270.753906 236.035156 270.796875 235.972656 C 270.941406 235.765625 271.082031 235.558594 271.214844 235.339844 C 271.234375 235.3125 271.25 235.285156 271.265625 235.257812 C 271.382812 235.066406 271.496094 234.875 271.605469 234.679688 C 271.644531 234.609375 271.683594 234.539062 271.71875 234.46875 C 271.808594 234.300781 271.894531 234.132812 271.980469 233.960938 C 272.011719 233.894531 272.046875 233.824219 272.078125 233.757812 C 272.1875 233.523438 272.292969 233.28125 272.390625 233.039062 C 272.398438 233.023438 272.402344 233.007812 272.410156 232.992188 C 272.5 232.765625 272.585938 232.53125 272.667969 232.296875 C 272.691406 232.222656 272.71875 232.144531 272.742188 232.070312 C 272.804688 231.882812 272.859375 231.695312 272.914062 231.503906 C 272.933594 231.429688 272.957031 231.351562 272.976562 231.273438 C 273.046875 231.011719 273.113281 230.75 273.167969 230.480469 C 273.859375 227.1875 274.101562 223.710938 273.851562 220.085938 C 273.796875 219.28125 273.71875 218.464844 273.613281 217.648438 C 273.507812 216.828125 273.378906 216 273.226562 215.164062 C 273.070312 214.332031 272.890625 213.492188 272.6875 212.644531 C 272.484375 211.796875 272.25 210.945312 271.992188 210.082031 C 270.0625 203.636719 266.65625 196.851562 261.566406 189.859375 C 260.730469 188.714844 259.835938 187.609375 258.878906 186.539062 C 258.242188 185.824219 257.578125 185.125 256.890625 184.445312 C 256.207031 183.761719 255.496094 183.097656 254.765625 182.445312 C 254.03125 181.796875 253.28125 181.160156 252.507812 180.539062 C 249.804688 178.371094 246.867188 176.382812 243.777344 174.570312 L 243.777344 174.566406 C 230.585938 166.8125 214.71875 162.191406 203.242188 159.617188 C 203.40625 158.699219 203.5 157.757812 203.5 156.792969 C 203.5 156.097656 203.449219 155.417969 203.359375 154.746094 C 215.382812 157.382812 232.183594 162.199219 246.210938 170.445312 C 246.246094 170.46875 246.285156 170.492188 246.320312 170.515625 C 249.0625 172.128906 251.597656 173.824219 253.933594 175.59375 C 254.210938 175.578125 254.496094 175.570312 254.773438 175.550781 C 254.945312 175.542969 255.117188 175.53125 255.289062 175.519531 C 255.867188 175.480469 256.441406 175.433594 257.011719 175.375 C 257.050781 175.375 257.089844 175.371094 257.125 175.367188 C 257.734375 175.304688 258.332031 175.230469 258.929688 175.152344 C 259.09375 175.128906 259.257812 175.105469 259.417969 175.082031 C 259.894531 175.011719 260.371094 174.933594 260.84375 174.855469 C 260.980469 174.828125 261.121094 174.808594 261.253906 174.785156 C 261.839844 174.675781 262.421875 174.558594 263 174.429688 C 263.121094 174.402344 263.246094 174.371094 263.367188 174.34375 C 263.835938 174.234375 264.300781 174.121094 264.765625 173.996094 C 264.921875 173.953125 265.082031 173.914062 265.242188 173.871094 C 265.8125 173.710938 266.378906 173.542969 266.941406 173.363281 C 277.832031 169.832031 286.136719 164.859375 292.046875 158.992188 C 295.59375 155.46875 298.277344 151.621094 300.140625 147.570312 C 301.035156 145.636719 301.46875 143.632812 301.5 141.664062 C 301.511719 141.101562 301.488281 140.542969 301.433594 139.988281 C 301.351562 139.15625 301.199219 138.339844 300.980469 137.542969 " fill-opacity="1" fill-rule="nonzero"/></g><g fill="#fb7ea2" fill-opacity="1"><g transform="translate(82.937805, 294.885331)"><g><path d="M 2.429688 0 L 18.089844 0 C 22.53125 0 25.828125 -1.949219 25.828125 -5.550781 C 25.828125 -9.058594 22.710938 -10.800781 18.78125 -10.800781 L 18.210938 -10.800781 L 18.210938 -11.101562 L 18.511719 -11.101562 C 21.960938 -11.101562 24.628906 -13.050781 24.628906 -15.898438 C 24.628906 -19.230469 21.511719 -21 17.578125 -21 L 2.429688 -21 C 2.761719 -19.828125 2.96875 -18 2.96875 -15.960938 L 2.96875 -5.039062 C 2.96875 -3 2.789062 -1.171875 2.429688 0 Z M 7.648438 -12.601562 L 7.648438 -17.429688 L 16.230469 -17.429688 C 18.390625 -17.429688 20.070312 -16.621094 20.070312 -15.03125 C 20.070312 -13.441406 18.359375 -12.601562 16.171875 -12.601562 Z M 7.648438 -3.71875 L 7.648438 -9.238281 L 16.621094 -9.238281 C 19.230469 -9.238281 21.121094 -8.21875 21.121094 -6.421875 C 21.121094 -4.648438 19.320312 -3.71875 16.679688 -3.71875 Z M 7.648438 -3.71875 "/></g></g></g><g fill="#fb7ea2" fill-opacity="1"><g transform="translate(112.667774, 294.885331)"><g><path d="M 18.238281 0.449219 C 20.101562 0.449219 21.988281 -0.0585938 22.738281 -0.210938 L 23.011719 -4.828125 C 21.75 -4.320312 19.378906 -3.960938 16.800781 -3.960938 L 7.648438 -3.960938 L 7.648438 -15.480469 C 7.648438 -17.519531 7.890625 -19.828125 8.191406 -21 L 2.429688 -21 C 2.761719 -19.828125 3 -18 3 -15.960938 L 3 -5.039062 C 3 -3 2.789062 -0.75 2.429688 0.449219 C 3.808594 0.0585938 6.121094 -0.421875 8.878906 -0.421875 C 12.570312 -0.421875 14.789062 0.449219 18.238281 0.449219 Z M 18.238281 0.449219 "/></g></g></g><g fill="#fb7ea2" fill-opacity="1"><g transform="translate(139.067753, 294.885331)"><g><path d="M 14.339844 0.421875 C 21.839844 0.421875 27.328125 -3.691406 27.328125 -10.5 C 27.328125 -17.308594 21.839844 -21.421875 14.339844 -21.421875 C 6.839844 -21.421875 1.351562 -17.308594 1.351562 -10.5 C 1.351562 -3.691406 6.839844 0.421875 14.339844 0.421875 Z M 14.339844 -3.300781 C 9.628906 -3.300781 6.089844 -6.058594 6.089844 -10.5 C 6.089844 -14.96875 9.628906 -17.699219 14.339844 -17.699219 C 19.050781 -17.699219 22.589844 -14.96875 22.589844 -10.5 C 22.589844 -6.058594 19.050781 -3.300781 14.339844 -3.300781 Z M 14.339844 -3.300781 "/></g></g></g><g fill="#fb7ea2" fill-opacity="1"><g transform="translate(170.297722, 294.885331)"><g><path d="M 13.019531 0.421875 C 19.859375 0.421875 24.210938 -2.011719 24.210938 -6.03125 C 24.210938 -14.609375 6.359375 -10.621094 6.359375 -15.179688 C 6.359375 -16.980469 9.359375 -17.460938 12.75 -17.460938 C 16.289062 -17.460938 19.890625 -16.589844 22.109375 -15.300781 L 22.109375 -19.738281 C 19.738281 -20.730469 15.988281 -21.421875 12.570312 -21.421875 C 6.480469 -21.421875 1.53125 -19.289062 1.53125 -15.238281 C 1.53125 -6.570312 19.351562 -10.378906 19.351562 -6 C 19.351562 -4.140625 16.738281 -3.511719 12.929688 -3.511719 C 8.609375 -3.511719 4.46875 -4.46875 1.320312 -6.480469 L 1.109375 -1.710938 C 4.378906 -0.421875 9.390625 0.421875 13.019531 0.421875 Z M 13.019531 0.421875 "/></g></g></g><g fill="#fb7ea2" fill-opacity="1"><g transform="translate(198.227695, 294.885331)"><g><path d="M 13.019531 0.421875 C 19.859375 0.421875 24.210938 -2.011719 24.210938 -6.03125 C 24.210938 -14.609375 6.359375 -10.621094 6.359375 -15.179688 C 6.359375 -16.980469 9.359375 -17.460938 12.75 -17.460938 C 16.289062 -17.460938 19.890625 -16.589844 22.109375 -15.300781 L 22.109375 -19.738281 C 19.738281 -20.730469 15.988281 -21.421875 12.570312 -21.421875 C 6.480469 -21.421875 1.53125 -19.289062 1.53125 -15.238281 C 1.53125 -6.570312 19.351562 -10.378906 19.351562 -6 C 19.351562 -4.140625 16.738281 -3.511719 12.929688 -3.511719 C 8.609375 -3.511719 4.46875 -4.46875 1.320312 -6.480469 L 1.109375 -1.710938 C 4.378906 -0.421875 9.390625 0.421875 13.019531 0.421875 Z M 13.019531 0.421875 "/></g></g></g><g fill="#fb7ea2" fill-opacity="1"><g transform="translate(226.157674, 294.885331)"><g><path d="M 14.339844 0.421875 C 21.839844 0.421875 27.328125 -3.691406 27.328125 -10.5 C 27.328125 -17.308594 21.839844 -21.421875 14.339844 -21.421875 C 6.839844 -21.421875 1.351562 -17.308594 1.351562 -10.5 C 1.351562 -3.691406 6.839844 0.421875 14.339844 0.421875 Z M 14.339844 -3.300781 C 9.628906 -3.300781 6.089844 -6.058594 6.089844 -10.5 C 6.089844 -14.96875 9.628906 -17.699219 14.339844 -17.699219 C 19.050781 -17.699219 22.589844 -14.96875 22.589844 -10.5 C 22.589844 -6.058594 19.050781 -3.300781 14.339844 -3.300781 Z M 14.339844 -3.300781 "/></g></g></g><g fill="#fb7ea2" fill-opacity="1"><g transform="translate(257.387638, 294.885331)"><g><path d="M 2.429688 0 L 8.191406 0 C 7.890625 -1.078125 7.648438 -3.089844 7.648438 -5.160156 L 7.648438 -15.148438 L 7.890625 -15.148438 L 16.410156 0 L 18.148438 0 L 26.671875 -15.148438 L 27 -15.148438 L 27 -5.160156 C 27 -3.089844 26.761719 -1.078125 26.460938 0 L 32.21875 0 C 31.890625 -1.171875 31.679688 -3 31.679688 -5.039062 L 31.679688 -15.960938 C 31.679688 -18 31.859375 -19.828125 32.21875 -21 L 26.101562 -21 L 20.160156 -10.351562 C 19.171875 -8.550781 18.421875 -7.171875 17.550781 -5.21875 L 17.21875 -5.21875 C 16.320312 -7.199219 15.570312 -8.640625 14.609375 -10.351562 L 8.699219 -21 L 2.429688 -21 C 2.789062 -19.828125 2.96875 -18 2.96875 -15.960938 L 2.96875 -5.039062 C 2.96875 -3 2.761719 -1.171875 2.429688 0 Z M 2.429688 0 "/></g></g></g><g fill="#fb7ea2" fill-opacity="1"><g transform="translate(130.574521, 321.135329)"><g><path d="M 2.429688 0 L 18.089844 0 C 22.53125 0 25.828125 -1.949219 25.828125 -5.550781 C 25.828125 -9.058594 22.710938 -10.800781 18.78125 -10.800781 L 18.210938 -10.800781 L 18.210938 -11.101562 L 18.511719 -11.101562 C 21.960938 -11.101562 24.628906 -13.050781 24.628906 -15.898438 C 24.628906 -19.230469 21.511719 -21 17.578125 -21 L 2.429688 -21 C 2.761719 -19.828125 2.96875 -18 2.96875 -15.960938 L 2.96875 -5.039062 C 2.96875 -3 2.789062 -1.171875 2.429688 0 Z M 7.648438 -12.601562 L 7.648438 -17.429688 L 16.230469 -17.429688 C 18.390625 -17.429688 20.070312 -16.621094 20.070312 -15.03125 C 20.070312 -13.441406 18.359375 -12.601562 16.171875 -12.601562 Z M 7.648438 -3.71875 L 7.648438 -9.238281 L 16.621094 -9.238281 C 19.230469 -9.238281 21.121094 -8.21875 21.121094 -6.421875 C 21.121094 -4.648438 19.320312 -3.71875 16.679688 -3.71875 Z M 7.648438 -3.71875 "/></g></g></g><g fill="#fb7ea2" fill-opacity="1"><g transform="translate(160.30449, 321.135329)"><g><path d="M 14.070312 0.421875 C 21.300781 0.421875 25.378906 -3.210938 25.378906 -9.179688 L 25.378906 -15.960938 C 25.378906 -18 25.589844 -19.828125 25.921875 -21 L 20.160156 -21 C 20.488281 -19.828125 20.699219 -17.910156 20.699219 -15.898438 L 20.699219 -9.871094 C 20.699219 -6.058594 18 -3.660156 14.070312 -3.660156 C 10.140625 -3.660156 7.46875 -6.058594 7.46875 -9.871094 L 7.46875 -15.898438 C 7.46875 -17.910156 7.679688 -19.828125 7.980469 -21 L 2.25 -21 C 2.578125 -19.828125 2.789062 -18 2.789062 -15.960938 L 2.789062 -9.179688 C 2.789062 -3.058594 7.050781 0.421875 14.070312 0.421875 Z M 14.070312 0.421875 "/></g></g></g><g fill="#fb7ea2" fill-opacity="1"><g transform="translate(191.024464, 321.135329)"><g><path d="M 19.109375 0.570312 C 21.300781 0.570312 22.921875 0.121094 23.941406 -0.0898438 L 24.238281 -5.160156 C 22.890625 -4.46875 19.890625 -3.898438 17.671875 -3.898438 L 7.019531 -3.898438 L 6.960938 -4.171875 L 23.371094 -17.371094 L 23.371094 -21 L 2.519531 -21 L 1.621094 -16.230469 C 2.550781 -16.738281 3.78125 -16.921875 5.941406 -16.921875 L 17.609375 -16.921875 L 17.640625 -16.710938 L 1.171875 -3.570312 L 1.171875 0.390625 C 2.671875 0.03125 5.039062 -0.300781 7.980469 -0.300781 C 12.359375 -0.300781 15.089844 0.570312 19.109375 0.570312 Z M 19.109375 0.570312 "/></g></g></g><g fill="#fb7ea2" fill-opacity="1"><g transform="translate(218.984445, 321.135329)"><g><path d="M 19.109375 0.570312 C 21.300781 0.570312 22.921875 0.121094 23.941406 -0.0898438 L 24.238281 -5.160156 C 22.890625 -4.46875 19.890625 -3.898438 17.671875 -3.898438 L 7.019531 -3.898438 L 6.960938 -4.171875 L 23.371094 -17.371094 L 23.371094 -21 L 2.519531 -21 L 1.621094 -16.230469 C 2.550781 -16.738281 3.78125 -16.921875 5.941406 -16.921875 L 17.609375 -16.921875 L 17.640625 -16.710938 L 1.171875 -3.570312 L 1.171875 0.390625 C 2.671875 0.03125 5.039062 -0.300781 7.980469 -0.300781 C 12.359375 -0.300781 15.089844 0.570312 19.109375 0.570312 Z M 19.109375 0.570312 "/></g></g></g></svg>