<svg xmlns="http://www.w3.org/2000/svg" xmlns:xlink="http://www.w3.org/1999/xlink" width="500" zoomAndPan="magnify" viewBox="0 0 375 374.999991" height="500" preserveAspectRatio="xMidYMid meet" version="1.0"><defs><g/><clipPath id="728d0fd462"><path d="M 161 107 L 279 107 L 279 149 L 161 149 Z M 161 107 " clip-rule="nonzero"/></clipPath><clipPath id="2e8d1562e1"><path d="M 192.207031 177.164062 L 156.015625 115.789062 L 245.8125 62.832031 L 282.003906 124.203125 Z M 192.207031 177.164062 " clip-rule="nonzero"/></clipPath><clipPath id="d2ed1d468b"><path d="M 192.207031 177.164062 L 156.015625 115.789062 L 245.8125 62.832031 L 282.003906 124.203125 Z M 192.207031 177.164062 " clip-rule="nonzero"/></clipPath><clipPath id="65120523ef"><path d="M 89.460938 105 L 181 105 L 181 165 L 89.460938 165 Z M 89.460938 105 " clip-rule="nonzero"/></clipPath><clipPath id="bdc43cf1e2"><path d="M 141 103 L 148 103 L 148 166.582031 L 141 166.582031 Z M 141 103 " clip-rule="nonzero"/></clipPath></defs><g fill="#80481a" fill-opacity="1"><g transform="translate(98.720482, 238.027238)"><g><path d="M 18.242188 -20.511719 C 18.0625 -23.507812 17.878906 -26.5 17.699219 -29.40625 C 17.605469 -30.949219 17.515625 -32.402344 17.152344 -33.851562 C 16.882812 -34.578125 16.609375 -35.304688 16.246094 -36.03125 C 16.0625 -36.574219 15.703125 -37.210938 15.339844 -37.664062 C 14.976562 -38.300781 14.519531 -38.84375 13.886719 -39.390625 C 13.703125 -39.570312 13.523438 -39.753906 13.25 -39.933594 C 13.433594 -40.117188 13.703125 -40.296875 13.886719 -40.476562 C 14.25 -40.839844 14.519531 -41.203125 14.792969 -41.566406 C 15.882812 -42.929688 16.425781 -44.652344 16.425781 -46.285156 C 16.425781 -46.832031 16.335938 -47.375 16.246094 -47.828125 C 16.0625 -48.375 15.882812 -48.738281 15.703125 -49.191406 C 15.429688 -49.828125 14.976562 -50.460938 14.429688 -51.007812 C 13.523438 -51.914062 12.253906 -52.367188 10.980469 -52.640625 C 10.253906 -52.730469 9.53125 -52.730469 8.894531 -52.730469 C 8.710938 -52.730469 8.53125 -52.730469 8.351562 -52.730469 C 7.894531 -52.730469 7.441406 -52.730469 6.988281 -52.640625 C 6.898438 -52.640625 6.714844 -52.640625 6.535156 -52.550781 C 6.351562 -52.550781 6.171875 -52.457031 6.082031 -52.367188 C 5.898438 -52.367188 5.808594 -52.367188 5.628906 -52.367188 C 5.171875 -52.367188 4.71875 -52.1875 4.355469 -51.914062 C 3.992188 -51.550781 3.902344 -51.097656 3.8125 -50.550781 C 3.539062 -47.558594 3.265625 -44.472656 2.902344 -41.476562 C 2.632812 -38.300781 2.269531 -35.214844 2.269531 -32.128906 C 2.179688 -29.132812 2.179688 -26.136719 2.179688 -23.050781 C 2.179688 -20.058594 2.359375 -16.972656 2.359375 -13.976562 C 2.449219 -12.976562 2.449219 -11.980469 2.449219 -10.980469 C 2.449219 -7.625 2.632812 -4.445312 3.085938 -1.542969 C 3.085938 -1.089844 3.265625 -0.542969 3.628906 -0.273438 C 3.902344 0.0898438 4.445312 0.273438 4.902344 0.273438 C 5.265625 0.273438 5.535156 0.179688 5.808594 0 C 6.261719 0.363281 6.898438 0.636719 7.441406 0.542969 C 8.804688 0.542969 9.894531 0.363281 10.890625 0.179688 C 11.707031 0 12.523438 -0.363281 13.160156 -0.726562 C 13.886719 -1.089844 14.519531 -1.632812 15.246094 -2.179688 C 16.0625 -2.8125 16.699219 -3.722656 17.152344 -4.71875 C 18.332031 -6.808594 18.425781 -9.347656 18.515625 -11.617188 C 18.515625 -14.613281 18.425781 -17.605469 18.242188 -20.511719 Z M 10.074219 -49.101562 C 10.527344 -49.007812 10.980469 -48.917969 11.4375 -48.738281 C 11.527344 -48.648438 11.617188 -48.648438 11.796875 -48.554688 C 11.890625 -48.375 12.070312 -48.191406 12.253906 -48.011719 C 12.34375 -47.828125 12.433594 -47.648438 12.617188 -47.464844 C 12.707031 -47.195312 12.707031 -46.921875 12.796875 -46.648438 C 12.796875 -46.285156 12.796875 -46.015625 12.796875 -45.742188 C 12.707031 -45.378906 12.617188 -45.015625 12.433594 -44.652344 C 12.253906 -44.289062 12.070312 -43.925781 11.796875 -43.5625 C 11.527344 -43.199219 11.164062 -42.839844 10.800781 -42.566406 C 10.527344 -42.382812 10.253906 -42.292969 9.984375 -42.113281 C 9.347656 -41.839844 8.621094 -41.65625 7.894531 -41.386719 C 7.53125 -41.296875 7.167969 -41.203125 6.808594 -41.113281 C 6.714844 -41.113281 6.625 -41.113281 6.535156 -41.023438 C 6.625 -42.113281 6.714844 -43.109375 6.808594 -44.109375 C 6.988281 -45.742188 7.167969 -47.375 7.351562 -49.007812 C 8.257812 -49.101562 9.167969 -49.191406 10.074219 -49.101562 Z M 14.25 -6.808594 C 13.976562 -5.898438 12.976562 -5.265625 12.433594 -4.539062 C 11.34375 -3.265625 9.074219 -3.085938 8.257812 -3.085938 C 7.625 -3.085938 7.167969 -3.449219 6.535156 -3.449219 C 6.535156 -3.539062 6.535156 -3.539062 6.535156 -3.628906 C 6.445312 -4.355469 6.445312 -5.171875 6.351562 -5.898438 C 6.261719 -7.351562 6.082031 -8.894531 6.082031 -10.4375 C 5.988281 -11.890625 5.988281 -13.433594 5.988281 -14.976562 C 5.988281 -16.519531 5.898438 -17.96875 5.898438 -19.511719 C 5.808594 -22.507812 5.808594 -25.59375 5.808594 -28.589844 C 5.808594 -30.132812 5.808594 -31.675781 5.898438 -33.125 C 5.898438 -34.578125 5.988281 -35.941406 6.171875 -37.300781 C 7.167969 -37.210938 6.988281 -37.210938 8.351562 -37.210938 C 8.984375 -37.300781 9.710938 -37.300781 10.347656 -37.210938 C 11.074219 -37.121094 11.890625 -36.304688 12.160156 -35.941406 C 12.617188 -35.214844 13.523438 -33.398438 13.613281 -32.945312 C 13.796875 -32.492188 13.886719 -32.128906 13.886719 -31.675781 C 14.066406 -30.3125 14.066406 -29.042969 14.160156 -27.679688 C 14.25 -26.136719 14.339844 -24.6875 14.429688 -23.144531 C 14.613281 -20.148438 14.882812 -17.0625 14.882812 -14.066406 C 14.882812 -9.710938 14.792969 -8.078125 14.25 -6.808594 Z M 14.25 -6.808594 "/></g></g></g><g fill="#80481a" fill-opacity="1"><g transform="translate(118.868347, 238.027238)"><g><path d="M 3.902344 -53.09375 C 3.8125 -53.003906 3.722656 -52.820312 3.628906 -52.730469 C 3.449219 -52.457031 3.359375 -52.1875 3.359375 -51.824219 C 3.175781 -50.28125 2.996094 -48.648438 2.902344 -47.105469 C 2.8125 -46.285156 2.8125 -45.5625 2.722656 -44.742188 C 2.722656 -43.925781 2.632812 -43.199219 2.542969 -42.382812 C 2.449219 -40.933594 2.449219 -39.480469 2.359375 -37.9375 C 2.269531 -36.484375 2.269531 -35.125 2.269531 -33.671875 C 2.269531 -32.128906 2.269531 -30.675781 2.269531 -29.222656 C 2.269531 -27.679688 2.179688 -26.230469 2.269531 -24.6875 C 2.269531 -23.234375 2.359375 -21.691406 2.542969 -20.238281 C 2.632812 -18.695312 2.8125 -17.152344 3.085938 -15.609375 C 3.359375 -14.160156 3.722656 -12.707031 4.085938 -11.34375 C 4.445312 -9.984375 4.902344 -8.804688 5.355469 -7.53125 C 5.71875 -6.808594 5.988281 -5.988281 6.445312 -5.265625 C 7.078125 -4.355469 7.804688 -3.539062 8.710938 -3.085938 C 9.4375 -2.632812 10.164062 -2.359375 10.980469 -2.179688 C 11.164062 -2.179688 11.34375 -2.085938 11.4375 -2.085938 C 11.796875 -1.996094 12.160156 -1.996094 12.523438 -1.996094 C 12.796875 -1.996094 13.070312 -2.085938 13.339844 -2.085938 C 13.886719 -2.179688 14.429688 -2.359375 14.976562 -2.632812 C 16.519531 -3.265625 17.789062 -4.445312 18.515625 -5.988281 C 19.242188 -7.441406 19.605469 -8.984375 19.785156 -10.527344 C 19.96875 -11.34375 20.058594 -12.253906 20.148438 -13.070312 C 20.238281 -13.703125 20.328125 -14.429688 20.328125 -15.15625 C 20.421875 -16.519531 20.421875 -17.96875 20.511719 -19.332031 C 20.511719 -20.785156 20.601562 -22.234375 20.691406 -23.777344 C 20.691406 -25.230469 20.785156 -26.683594 20.785156 -28.136719 C 20.875 -29.585938 20.875 -31.039062 20.875 -32.492188 C 20.964844 -34.035156 21.054688 -35.488281 21.054688 -36.9375 C 21.148438 -39.480469 21.148438 -41.929688 21.238281 -44.472656 C 21.238281 -45.652344 21.238281 -46.832031 21.238281 -48.101562 C 21.238281 -49.191406 21.054688 -50.28125 21.148438 -51.371094 C 21.148438 -51.460938 21.148438 -51.460938 21.148438 -51.460938 C 21.148438 -52.003906 21.148438 -52.277344 20.964844 -52.457031 C 20.691406 -52.914062 20.328125 -53.183594 19.875 -53.367188 C 19.421875 -53.457031 18.878906 -53.367188 18.425781 -53.183594 C 18.0625 -52.914062 17.699219 -52.550781 17.605469 -52.09375 C 17.515625 -51.277344 17.515625 -50.460938 17.605469 -49.734375 C 17.605469 -49.007812 17.605469 -48.285156 17.605469 -47.648438 C 17.605469 -46.195312 17.605469 -44.835938 17.605469 -43.382812 C 17.515625 -40.476562 17.515625 -37.484375 17.335938 -34.578125 C 17.335938 -33.035156 17.242188 -31.582031 17.242188 -30.042969 C 17.152344 -28.589844 17.242188 -27.136719 17.152344 -25.683594 C 16.972656 -22.871094 16.882812 -19.96875 16.789062 -17.0625 C 16.789062 -16.0625 16.699219 -15.066406 16.609375 -14.066406 C 16.519531 -13.160156 16.425781 -12.253906 16.335938 -11.34375 C 16.15625 -10.164062 15.882812 -8.984375 15.429688 -7.894531 C 15.246094 -7.53125 15.066406 -7.261719 14.882812 -6.898438 C 14.703125 -6.714844 14.519531 -6.535156 14.339844 -6.351562 C 13.976562 -6.171875 13.703125 -5.988281 13.433594 -5.808594 C 13.160156 -5.71875 12.796875 -5.71875 12.523438 -5.628906 C 12.433594 -5.628906 12.253906 -5.628906 12.160156 -5.628906 C 11.796875 -5.71875 11.34375 -5.808594 10.980469 -5.898438 C 10.710938 -6.082031 10.4375 -6.171875 10.253906 -6.351562 C 10.074219 -6.535156 9.984375 -6.625 9.800781 -6.808594 C 9.4375 -7.351562 9.167969 -7.894531 8.894531 -8.441406 C 8.351562 -9.800781 7.804688 -11.164062 7.441406 -12.523438 C 7.078125 -14.25 6.625 -15.882812 6.351562 -17.515625 C 6.171875 -18.878906 6.082031 -20.238281 5.988281 -21.601562 C 5.898438 -23.050781 5.808594 -24.59375 5.808594 -26.046875 C 5.808594 -27.5 5.808594 -28.953125 5.808594 -30.496094 C 5.808594 -31.945312 5.808594 -33.398438 5.898438 -34.851562 C 5.898438 -36.210938 5.988281 -37.574219 5.988281 -38.933594 C 6.082031 -40.296875 6.082031 -41.65625 6.261719 -43.019531 C 6.351562 -44.472656 6.351562 -45.832031 6.535156 -47.285156 C 6.625 -48.828125 6.808594 -50.28125 6.988281 -51.824219 C 6.988281 -52.277344 6.714844 -52.820312 6.445312 -53.09375 C 6.082031 -53.457031 5.628906 -53.636719 5.171875 -53.636719 C 4.71875 -53.636719 4.175781 -53.457031 3.902344 -53.09375 Z M 3.902344 -53.09375 "/></g></g></g><g fill="#80481a" fill-opacity="1"><g transform="translate(142.101922, 238.027238)"><g><path d="M 11.074219 -52.640625 C 10.253906 -52.550781 9.53125 -52.457031 8.804688 -52.1875 C 8.351562 -52.003906 7.894531 -51.824219 7.441406 -51.460938 C 6.988281 -51.1875 6.625 -50.824219 6.261719 -50.460938 C 5.988281 -50.097656 5.628906 -49.644531 5.355469 -49.28125 C 4.902344 -48.648438 4.539062 -48.011719 4.175781 -47.285156 C 3.539062 -45.832031 3.175781 -43.382812 2.902344 -41.75 C 2.632812 -40.117188 2.449219 -38.480469 2.359375 -36.847656 C 2.179688 -35.394531 2.179688 -33.945312 2.085938 -32.582031 C 1.996094 -29.585938 1.996094 -26.59375 2.179688 -23.6875 C 2.269531 -22.144531 2.359375 -20.601562 2.542969 -19.058594 C 2.632812 -17.699219 2.8125 -16.246094 2.996094 -14.792969 C 3.175781 -13.25 3.359375 -11.707031 3.722656 -10.164062 C 3.992188 -8.984375 4.265625 -7.804688 4.71875 -6.625 C 4.992188 -5.898438 5.355469 -5.171875 5.808594 -4.445312 C 6.082031 -4.085938 6.351562 -3.722656 6.714844 -3.359375 C 6.988281 -3.085938 7.351562 -2.8125 7.714844 -2.542969 C 7.988281 -2.359375 8.257812 -2.179688 8.621094 -2.085938 C 8.984375 -1.816406 9.4375 -1.632812 9.894531 -1.453125 C 10.527344 -1.179688 11.253906 -1.089844 11.980469 -1 C 12.617188 -0.90625 13.25 -0.90625 13.886719 -1 C 14.339844 -1 14.792969 -1.089844 15.246094 -1.269531 C 15.703125 -1.453125 16.15625 -1.632812 16.609375 -1.816406 C 17.335938 -2.085938 17.878906 -2.632812 18.425781 -3.175781 C 19.058594 -3.8125 19.511719 -4.628906 19.785156 -5.445312 C 20.148438 -6.261719 20.238281 -7.167969 20.328125 -7.988281 C 20.328125 -8.710938 20.328125 -9.4375 20.328125 -10.074219 C 20.238281 -11.617188 20.148438 -13.070312 20.058594 -14.613281 C 19.96875 -16.0625 19.96875 -17.515625 19.875 -18.96875 C 19.785156 -20.421875 19.695312 -21.871094 19.605469 -23.324219 C 19.605469 -24.414062 19.605469 -25.503906 19.511719 -26.5 C 19.511719 -27.589844 19.421875 -28.679688 19.332031 -29.679688 C 19.332031 -30.765625 19.332031 -31.765625 19.242188 -32.855469 C 19.148438 -34.035156 19.058594 -35.125 18.878906 -36.210938 C 18.878906 -36.121094 18.878906 -35.941406 18.96875 -35.757812 C 18.878906 -36.394531 18.785156 -37.121094 18.695312 -37.753906 C 18.605469 -38.480469 17.96875 -39.117188 17.335938 -39.390625 C 16.882812 -39.570312 16.519531 -39.660156 15.972656 -39.753906 C 15.609375 -39.753906 15.339844 -39.753906 15.066406 -39.753906 C 14.25 -39.660156 13.523438 -39.480469 12.707031 -39.296875 C 12.433594 -39.207031 12.160156 -39.117188 11.796875 -39.027344 C 11.4375 -38.933594 10.980469 -38.753906 10.527344 -38.574219 C 9.710938 -38.027344 9.4375 -36.9375 9.894531 -36.121094 C 10.4375 -35.214844 11.527344 -34.941406 12.34375 -35.394531 C 12.707031 -35.578125 13.160156 -35.667969 13.523438 -35.757812 C 13.976562 -35.941406 14.519531 -36.03125 14.976562 -36.121094 C 15.066406 -36.121094 15.15625 -36.121094 15.246094 -36.121094 C 15.246094 -36.121094 15.339844 -35.214844 15.429688 -34.851562 C 15.609375 -33.488281 15.703125 -32.21875 15.703125 -30.859375 C 15.792969 -29.316406 15.882812 -27.863281 15.882812 -26.320312 C 15.972656 -24.867188 15.972656 -23.324219 16.0625 -21.871094 C 16.15625 -20.421875 16.246094 -18.96875 16.335938 -17.515625 C 16.335938 -15.882812 16.425781 -14.160156 16.609375 -12.433594 C 16.699219 -10.800781 16.789062 -9.257812 16.609375 -7.625 C 16.609375 -7.167969 16.519531 -6.808594 16.335938 -6.445312 C 16.246094 -6.261719 16.15625 -6.082031 15.972656 -5.898438 C 15.792969 -5.628906 15.609375 -5.445312 15.429688 -5.265625 C 15.246094 -5.171875 15.066406 -5.082031 14.882812 -4.992188 C 14.429688 -4.808594 14.066406 -4.628906 13.613281 -4.628906 C 13.160156 -4.539062 12.707031 -4.539062 12.253906 -4.628906 C 11.796875 -4.71875 11.253906 -4.808594 10.890625 -4.992188 C 10.4375 -5.171875 9.984375 -5.355469 9.621094 -5.628906 C 9.347656 -5.808594 9.167969 -6.082031 8.894531 -6.351562 C 8.621094 -6.714844 8.441406 -7.167969 8.167969 -7.625 C 7.804688 -8.621094 7.53125 -9.710938 7.261719 -10.800781 C 6.988281 -11.980469 6.808594 -13.25 6.625 -14.519531 C 6.445312 -15.882812 6.261719 -17.242188 6.171875 -18.605469 C 5.988281 -20.058594 5.898438 -21.601562 5.808594 -23.050781 C 5.628906 -26.046875 5.628906 -29.042969 5.71875 -32.039062 C 5.808594 -34.851562 5.988281 -37.574219 6.351562 -40.296875 C 6.535156 -41.75 6.808594 -44.199219 7.351562 -45.5625 C 7.53125 -45.921875 7.714844 -46.285156 7.988281 -46.648438 C 8.167969 -47.011719 8.351562 -47.285156 8.621094 -47.648438 C 8.894531 -47.921875 9.167969 -48.191406 9.4375 -48.464844 C 9.621094 -48.648438 9.800781 -48.738281 9.984375 -48.828125 C 10.253906 -48.917969 10.527344 -48.917969 10.800781 -49.007812 C 11.4375 -49.101562 11.980469 -49.007812 12.617188 -49.007812 C 12.976562 -48.917969 13.339844 -48.828125 13.796875 -48.738281 C 14.066406 -48.554688 14.339844 -48.375 14.613281 -48.191406 C 15.429688 -47.464844 16.0625 -46.648438 16.789062 -45.832031 C 17.0625 -45.46875 17.605469 -45.289062 18.0625 -45.289062 C 18.515625 -45.289062 18.96875 -45.46875 19.332031 -45.832031 C 19.605469 -46.105469 19.875 -46.648438 19.875 -47.105469 C 19.785156 -47.285156 19.785156 -47.375 19.785156 -47.558594 C 19.695312 -47.828125 19.511719 -48.101562 19.332031 -48.375 C 18.878906 -48.917969 18.425781 -49.554688 17.878906 -50.097656 C 17.605469 -50.371094 17.242188 -50.644531 16.972656 -50.914062 C 16.519531 -51.277344 16.0625 -51.550781 15.609375 -51.824219 C 15.246094 -52.003906 14.882812 -52.09375 14.429688 -52.277344 C 14.160156 -52.367188 13.886719 -52.457031 13.613281 -52.457031 C 13.070312 -52.550781 12.617188 -52.640625 12.070312 -52.640625 C 11.890625 -52.640625 11.707031 -52.640625 11.527344 -52.640625 C 11.34375 -52.640625 11.253906 -52.640625 11.074219 -52.640625 Z M 11.074219 -52.640625 "/></g></g></g><g fill="#80481a" fill-opacity="1"><g transform="translate(164.427941, 238.027238)"><g/></g></g><g fill="#80481a" fill-opacity="1"><g transform="translate(183.123703, 238.027238)"><g><path d="M 18.332031 -50.734375 C 18.242188 -51.1875 17.96875 -51.550781 17.515625 -51.730469 C 17.152344 -52.003906 16.519531 -52.09375 16.15625 -51.914062 C 16.0625 -51.914062 16.0625 -51.914062 15.972656 -51.914062 C 15.609375 -51.824219 15.246094 -51.824219 14.882812 -51.824219 C 14.339844 -51.824219 13.886719 -51.824219 13.339844 -51.824219 C 12.34375 -51.824219 11.34375 -51.824219 10.347656 -51.824219 C 10.164062 -51.824219 9.984375 -51.824219 9.894531 -51.824219 C 9.621094 -51.914062 9.4375 -52.003906 9.257812 -52.003906 C 8.984375 -52.003906 8.710938 -51.914062 8.53125 -51.824219 C 8.078125 -51.824219 7.53125 -51.824219 7.078125 -51.824219 C 6.082031 -51.824219 4.992188 -51.824219 3.992188 -51.914062 C 3.628906 -52.003906 3.265625 -52.003906 2.902344 -52.09375 C 2.722656 -52.09375 2.542969 -52.1875 2.449219 -52.1875 C 2.085938 -52.1875 1.816406 -52.09375 1.542969 -51.914062 C 1.089844 -51.730469 0.816406 -51.277344 0.726562 -50.824219 C 0.542969 -50.371094 0.636719 -49.828125 0.90625 -49.464844 C 1.089844 -49.101562 1.542969 -48.738281 1.996094 -48.648438 C 2.722656 -48.464844 3.449219 -48.375 4.265625 -48.285156 C 4.808594 -48.191406 5.445312 -48.191406 6.082031 -48.191406 C 6.535156 -48.191406 6.898438 -48.191406 7.351562 -48.191406 C 7.351562 -47.195312 7.351562 -46.285156 7.351562 -45.289062 C 7.261719 -43.746094 7.261719 -42.113281 7.167969 -40.570312 C 7.167969 -37.574219 7.078125 -34.578125 7.078125 -31.492188 C 7.078125 -29.949219 7.078125 -28.40625 7.078125 -26.863281 C 7.078125 -25.414062 7.078125 -23.871094 7.167969 -22.417969 C 7.167969 -20.875 7.261719 -19.332031 7.351562 -17.878906 C 7.441406 -16.335938 7.53125 -14.882812 7.53125 -13.433594 C 7.625 -11.707031 7.625 -8.621094 7.625 -6.898438 C 7.625 -5.355469 7.625 -3.8125 7.714844 -2.269531 C 7.714844 -1.269531 8.441406 -0.453125 9.4375 -0.453125 C 10.4375 -0.453125 11.34375 -1.269531 11.253906 -2.269531 C 11.253906 -3.628906 11.253906 -4.902344 11.253906 -6.171875 C 11.253906 -7.625 11.253906 -9.074219 11.164062 -10.527344 C 11.164062 -11.980469 11.074219 -14.882812 11.074219 -16.425781 C 10.980469 -17.96875 10.890625 -19.421875 10.800781 -20.964844 C 10.710938 -23.960938 10.710938 -26.957031 10.710938 -30.042969 C 10.710938 -33.035156 10.710938 -36.121094 10.800781 -39.117188 C 10.890625 -42.203125 10.890625 -45.199219 10.980469 -48.191406 C 11.707031 -48.191406 12.433594 -48.191406 13.160156 -48.191406 C 13.703125 -48.191406 14.339844 -48.191406 14.882812 -48.191406 C 15.15625 -48.191406 15.429688 -48.191406 15.792969 -48.285156 C 15.882812 -48.285156 16.0625 -48.285156 16.15625 -48.285156 C 16.519531 -48.375 16.789062 -48.375 17.0625 -48.464844 C 17.242188 -48.554688 17.425781 -48.554688 17.515625 -48.648438 C 17.789062 -48.828125 17.96875 -49.007812 18.152344 -49.28125 C 18.425781 -49.734375 18.515625 -50.1875 18.332031 -50.734375 Z M 18.332031 -50.734375 "/></g></g></g><g fill="#80481a" fill-opacity="1"><g transform="translate(202.364013, 238.027238)"><g><path d="M 16.699219 -6.171875 C 16.609375 -7.625 16.519531 -9.984375 16.425781 -11.34375 C 16.335938 -14.339844 16.0625 -17.335938 15.882812 -20.328125 C 15.609375 -23.234375 15.339844 -26.136719 14.613281 -29.042969 C 14.25 -30.402344 13.886719 -31.855469 13.339844 -33.125 C 13.070312 -33.851562 12.707031 -34.578125 12.34375 -35.304688 C 12.160156 -35.488281 12.070312 -35.757812 11.890625 -35.941406 C 12.160156 -36.210938 12.34375 -36.394531 12.523438 -36.667969 C 13.070312 -37.300781 13.433594 -37.9375 13.796875 -38.664062 C 14.25 -39.390625 14.429688 -40.117188 14.613281 -40.933594 C 14.703125 -41.75 14.703125 -42.566406 14.703125 -43.382812 C 14.703125 -44.289062 14.613281 -45.105469 14.429688 -45.921875 C 14.429688 -46.285156 14.339844 -46.648438 14.25 -47.011719 C 13.976562 -47.738281 13.703125 -48.464844 13.160156 -49.101562 C 12.886719 -49.464844 12.707031 -49.734375 12.34375 -50.007812 C 12.160156 -50.28125 11.890625 -50.371094 11.707031 -50.550781 C 11.34375 -50.824219 10.980469 -51.097656 10.527344 -51.277344 C 9.710938 -51.730469 8.804688 -52.003906 7.894531 -52.277344 C 6.988281 -52.550781 6.082031 -52.640625 5.082031 -52.820312 C 4.992188 -52.820312 4.808594 -52.914062 4.628906 -52.914062 C 4.355469 -52.914062 3.992188 -52.820312 3.722656 -52.640625 C 3.628906 -52.550781 3.449219 -52.457031 3.359375 -52.367188 C 2.996094 -52.277344 2.632812 -52.09375 2.359375 -51.824219 C 1.996094 -51.460938 1.816406 -51.097656 1.816406 -50.550781 C 1.722656 -48.828125 1.632812 -47.011719 1.632812 -45.289062 C 1.542969 -43.746094 1.632812 -42.292969 1.542969 -40.839844 C 1.542969 -37.753906 1.542969 -34.761719 1.632812 -31.675781 C 1.722656 -30.222656 1.816406 -28.679688 1.90625 -27.226562 C 1.996094 -25.683594 2.085938 -24.140625 2.179688 -22.597656 C 2.269531 -19.605469 2.449219 -16.609375 2.632812 -13.613281 C 2.722656 -11.796875 2.902344 -9.984375 2.996094 -8.167969 C 2.996094 -7.261719 3.085938 -5.445312 3.085938 -4.539062 C 3.085938 -4.175781 3.175781 -3.722656 3.175781 -3.359375 C 3.175781 -2.902344 3.175781 -2.542969 3.175781 -2.179688 C 3.175781 -1.996094 3.265625 -1.816406 3.265625 -1.632812 C 3.359375 -1.363281 3.539062 -1.089844 3.722656 -0.816406 C 4.085938 -0.542969 4.539062 -0.363281 4.992188 -0.363281 C 5.445312 -0.363281 5.988281 -0.542969 6.261719 -0.816406 C 6.625 -1.179688 6.898438 -1.722656 6.808594 -2.179688 C 6.808594 -2.449219 6.808594 -2.722656 6.808594 -3.085938 C 6.808594 -3.449219 6.714844 -3.8125 6.714844 -4.085938 C 6.714844 -4.902344 6.625 -6.535156 6.625 -7.261719 C 6.625 -8.710938 6.445312 -10.164062 6.351562 -11.617188 C 6.082031 -14.703125 5.988281 -17.699219 5.808594 -20.785156 C 5.808594 -22.234375 5.71875 -23.777344 5.628906 -25.230469 C 5.535156 -26.773438 5.355469 -28.316406 5.355469 -29.859375 C 5.265625 -30.949219 5.265625 -32.128906 5.265625 -33.21875 C 5.628906 -33.308594 5.988281 -33.308594 6.351562 -33.398438 C 6.988281 -33.488281 7.625 -33.761719 8.257812 -33.945312 C 8.441406 -33.945312 8.621094 -34.035156 8.804688 -34.125 C 8.894531 -33.945312 8.984375 -33.851562 9.074219 -33.671875 C 9.347656 -33.21875 9.621094 -32.671875 9.894531 -32.21875 C 10.347656 -31.039062 10.710938 -29.769531 10.980469 -28.5 C 11.34375 -27.136719 11.617188 -25.777344 11.890625 -24.414062 C 12.253906 -21.507812 12.34375 -18.605469 12.617188 -15.703125 C 12.707031 -14.25 12.796875 -12.707031 12.796875 -11.253906 C 12.886719 -9.800781 12.976562 -7.53125 13.070312 -6.082031 C 13.070312 -4.71875 13.160156 -3.359375 12.976562 -2.085938 C 12.976562 -1.632812 13.25 -1.089844 13.523438 -0.816406 C 13.886719 -0.453125 14.339844 -0.273438 14.792969 -0.273438 C 15.339844 -0.273438 15.792969 -0.453125 16.0625 -0.816406 C 16.15625 -0.90625 16.246094 -1 16.425781 -1.179688 C 16.519531 -1.453125 16.609375 -1.722656 16.609375 -2.085938 C 16.789062 -3.449219 16.699219 -4.808594 16.699219 -6.171875 Z M 5.171875 -36.847656 C 5.171875 -37.574219 5.171875 -38.210938 5.171875 -38.933594 C 5.171875 -40.75 5.171875 -42.566406 5.265625 -44.382812 C 5.265625 -45.921875 5.265625 -47.558594 5.355469 -49.101562 C 6.445312 -48.917969 7.441406 -48.648438 8.441406 -48.285156 C 8.894531 -48.101562 9.257812 -47.828125 9.710938 -47.558594 C 9.894531 -47.375 10.074219 -47.285156 10.253906 -47.011719 C 10.347656 -46.832031 10.4375 -46.648438 10.617188 -46.46875 C 10.800781 -45.921875 10.890625 -45.378906 10.980469 -44.925781 C 11.074219 -43.835938 11.164062 -42.839844 11.074219 -41.75 C 10.980469 -41.386719 10.890625 -41.023438 10.800781 -40.660156 C 10.527344 -40.023438 10.164062 -39.570312 9.800781 -39.027344 C 9.53125 -38.664062 9.167969 -38.390625 8.894531 -38.027344 C 8.621094 -37.9375 8.441406 -37.753906 8.167969 -37.664062 C 7.625 -37.484375 7.078125 -37.300781 6.535156 -37.210938 C 6.082031 -37.03125 5.628906 -36.9375 5.171875 -36.847656 Z M 5.171875 -36.847656 "/></g></g></g><g fill="#80481a" fill-opacity="1"><g transform="translate(221.059775, 238.027238)"><g><path d="M 23.597656 -1.90625 C 23.050781 -5.265625 22.597656 -7.441406 22.054688 -10.617188 C 21.238281 -15.429688 20.328125 -19.875 19.605469 -24.6875 C 18.605469 -32.402344 18.695312 -39.84375 16.972656 -46.832031 C 16.699219 -48.738281 15.972656 -50.550781 14.976562 -52.277344 C 14.160156 -53.730469 12.070312 -53.273438 11.707031 -51.914062 C 11.074219 -51.097656 10.980469 -50.734375 10.980469 -50.460938 C 10.800781 -49.28125 10.617188 -48.191406 10.527344 -47.011719 C 10.347656 -45.5625 9.984375 -44.199219 9.800781 -42.746094 C 8.984375 -38.390625 8.167969 -33.488281 7.167969 -29.40625 C 6.171875 -22.960938 4.902344 -17.335938 3.8125 -11.617188 C 3.265625 -8.710938 2.722656 -5.808594 2.269531 -2.902344 C 2.269531 -1 3.722656 -0.179688 4.902344 -0.816406 C 5.355469 -1 5.71875 -1.453125 5.808594 -1.90625 C 6.535156 -6.625 7.167969 -10.800781 8.078125 -14.882812 C 8.894531 -19.421875 9.800781 -23.871094 10.710938 -28.316406 C 10.980469 -29.679688 11.253906 -30.949219 11.527344 -32.308594 C 12.886719 -32.128906 14.066406 -32.128906 15.246094 -32.039062 C 16.0625 -24.777344 16.609375 -18.0625 18.332031 -11.164062 C 18.605469 -9.53125 19.511719 -1.453125 20.421875 -0.273438 C 20.964844 0.453125 22.054688 1 22.871094 0.363281 C 23.6875 -0.0898438 24.050781 -1.179688 23.597656 -1.90625 Z M 14.882812 -35.667969 C 13.976562 -35.757812 13.070312 -35.757812 12.160156 -35.847656 C 12.617188 -38.84375 13.339844 -41.75 13.796875 -44.652344 C 14.339844 -41.386719 14.703125 -38.480469 14.882812 -35.667969 Z M 14.882812 -35.667969 "/></g></g></g><g fill="#80481a" fill-opacity="1"><g transform="translate(247.288307, 238.027238)"><g><path d="M 10.164062 -3.449219 C 9.894531 -3.8125 9.53125 -4.175781 9.074219 -4.265625 C 8.710938 -4.355469 8.351562 -4.355469 7.988281 -4.445312 C 7.894531 -5.265625 7.804688 -6.082031 7.804688 -6.988281 C 7.714844 -8.441406 7.625 -9.894531 7.625 -11.34375 C 7.625 -12.796875 7.53125 -14.339844 7.53125 -15.882812 C 7.441406 -17.335938 7.441406 -18.785156 7.441406 -20.328125 C 7.351562 -23.234375 7.261719 -26.230469 7.167969 -29.222656 C 7.078125 -30.765625 7.078125 -32.21875 6.988281 -33.671875 C 6.898438 -35.214844 6.898438 -36.667969 6.898438 -38.210938 C 6.898438 -40.117188 7.261719 -45.832031 7.167969 -46.742188 C 7.261719 -47.648438 7.167969 -48.554688 6.988281 -49.371094 C 7.167969 -49.371094 7.351562 -49.371094 7.53125 -49.371094 C 7.351562 -49.371094 7.261719 -49.464844 7.078125 -49.464844 C 7.078125 -49.464844 7.078125 -49.464844 7.167969 -49.464844 C 7.261719 -49.464844 7.441406 -49.371094 7.625 -49.371094 C 7.988281 -49.371094 8.257812 -49.464844 8.53125 -49.644531 C 8.894531 -49.828125 9.257812 -50.28125 9.347656 -50.734375 C 9.53125 -51.1875 9.4375 -51.640625 9.167969 -52.09375 C 8.984375 -52.457031 8.53125 -52.914062 8.078125 -52.914062 C 7.714844 -53.003906 7.351562 -53.003906 6.988281 -53.003906 C 6.898438 -53.003906 6.898438 -53.003906 6.808594 -53.003906 C 6.351562 -53.003906 5.988281 -52.914062 5.535156 -52.914062 C 4.628906 -52.820312 3.628906 -52.820312 2.722656 -52.914062 C 1.722656 -53.003906 0.90625 -52.003906 0.90625 -51.097656 C 0.90625 -50.644531 1.089844 -50.1875 1.453125 -49.828125 C 1.816406 -49.464844 2.179688 -49.28125 2.722656 -49.28125 C 2.902344 -49.28125 3.175781 -49.28125 3.449219 -49.28125 C 3.449219 -49.101562 3.449219 -48.917969 3.449219 -48.828125 C 3.539062 -48.101562 3.628906 -47.464844 3.628906 -46.742188 C 3.085938 -43.65625 3.265625 -38.027344 3.265625 -36.484375 C 3.265625 -35.03125 3.359375 -33.582031 3.449219 -32.128906 C 3.539062 -29.042969 3.628906 -26.046875 3.722656 -23.050781 C 3.722656 -21.507812 3.8125 -20.058594 3.8125 -18.515625 C 3.8125 -17.0625 3.902344 -15.609375 3.902344 -14.160156 C 3.992188 -12.253906 3.992188 -10.253906 4.085938 -8.351562 C 4.175781 -7.441406 4.175781 -6.445312 4.265625 -5.535156 C 4.265625 -5.171875 4.265625 -4.808594 4.355469 -4.539062 C 4.085938 -4.445312 3.902344 -4.445312 3.628906 -4.445312 C 2.632812 -4.445312 1.816406 -3.628906 1.816406 -2.632812 C 1.816406 -1.722656 2.632812 -0.816406 3.628906 -0.816406 C 4.445312 -0.90625 5.171875 -0.90625 5.988281 -1 C 6.625 -1 7.261719 -0.90625 7.804688 -0.816406 C 7.894531 -0.816406 7.988281 -0.816406 8.078125 -0.816406 C 8.621094 -0.726562 9.074219 -0.726562 9.53125 -1 C 9.894531 -1.179688 10.164062 -1.542969 10.347656 -1.996094 C 10.4375 -2.542969 10.347656 -2.996094 10.164062 -3.449219 Z M 10.164062 -3.449219 "/></g></g></g><g fill="#80481a" fill-opacity="1"><g transform="translate(258.72359, 238.027238)"><g><path d="M 2.996094 -51.460938 C 2.996094 -50.644531 2.996094 -49.917969 2.996094 -49.101562 C 2.996094 -48.285156 2.902344 -47.558594 2.8125 -46.832031 C 2.632812 -45.378906 2.542969 -43.925781 2.449219 -42.476562 C 2.359375 -39.480469 2.359375 -36.484375 2.359375 -33.488281 C 2.269531 -30.402344 2.179688 -27.226562 2.085938 -24.140625 C 1.996094 -22.691406 1.90625 -21.238281 1.90625 -19.695312 C 1.90625 -18.332031 1.90625 -16.882812 1.90625 -15.429688 C 1.816406 -13.976562 1.816406 -12.433594 1.90625 -10.980469 C 1.90625 -9.621094 1.996094 -8.257812 1.996094 -6.988281 C 1.996094 -6.171875 1.996094 -5.355469 2.179688 -4.628906 C 2.179688 -4.265625 2.269531 -3.992188 2.359375 -3.722656 C 2.449219 -3.449219 2.542969 -3.175781 2.722656 -2.996094 C 2.902344 -2.542969 3.265625 -2.179688 3.628906 -1.90625 C 3.992188 -1.632812 4.445312 -1.542969 4.902344 -1.363281 C 5.265625 -1.363281 5.535156 -1.269531 5.898438 -1.179688 C 6.714844 -1 7.53125 -1 8.441406 -1 C 8.53125 -1 8.621094 -1 8.804688 -1 C 9.167969 -1 9.53125 -1 9.894531 -1 C 10.4375 -0.90625 10.890625 -0.816406 11.4375 -0.816406 C 11.980469 -0.726562 12.523438 -0.726562 12.976562 -0.726562 C 13.523438 -0.816406 14.066406 -0.816406 14.519531 -0.90625 C 15.066406 -0.90625 15.429688 -1.089844 15.792969 -1.363281 C 16.15625 -1.722656 16.335938 -2.179688 16.335938 -2.722656 C 16.335938 -3.175781 16.15625 -3.628906 15.792969 -3.992188 C 15.519531 -4.265625 14.976562 -4.539062 14.519531 -4.445312 C 13.886719 -4.445312 13.25 -4.355469 12.617188 -4.355469 C 11.980469 -4.355469 11.253906 -4.445312 10.617188 -4.445312 C 10.347656 -4.539062 9.984375 -4.539062 9.710938 -4.628906 C 9.347656 -4.628906 9.074219 -4.628906 8.710938 -4.628906 C 8.078125 -4.628906 7.53125 -4.628906 6.898438 -4.628906 C 6.535156 -4.71875 6.171875 -4.808594 5.808594 -4.902344 C 5.71875 -5.082031 5.71875 -5.171875 5.628906 -5.355469 C 5.628906 -5.898438 5.628906 -6.445312 5.628906 -6.988281 C 5.628906 -7.625 5.628906 -8.257812 5.535156 -8.894531 C 5.535156 -10.347656 5.445312 -11.796875 5.445312 -13.25 C 5.445312 -14.703125 5.445312 -16.246094 5.535156 -17.699219 C 5.535156 -19.148438 5.535156 -20.511719 5.535156 -21.964844 C 5.628906 -23.507812 5.71875 -25.050781 5.808594 -26.683594 C 5.808594 -28.226562 5.898438 -29.769531 5.898438 -31.3125 C 5.988281 -34.308594 5.988281 -37.300781 5.988281 -40.386719 C 6.082031 -42.113281 6.082031 -43.925781 6.261719 -45.742188 C 6.351562 -46.648438 6.535156 -47.558594 6.535156 -48.464844 C 6.625 -49.464844 6.625 -50.460938 6.535156 -51.460938 C 6.535156 -51.914062 6.351562 -52.367188 6.082031 -52.730469 C 5.71875 -53.09375 5.265625 -53.273438 4.808594 -53.273438 C 3.8125 -53.273438 2.902344 -52.457031 2.996094 -51.460938 Z M 2.996094 -51.460938 "/></g></g></g><g clip-path="url(#728d0fd462)"><g clip-path="url(#2e8d1562e1)"><g clip-path="url(#d2ed1d468b)"><path fill="#694f00" d="M 277.984375 117.503906 C 278.179688 117.835938 278.210938 118.253906 278.027344 118.625 C 277.210938 120.277344 276.269531 121.898438 275.222656 123.445312 C 274.863281 123.980469 274.125 124.121094 273.589844 123.757812 C 273.050781 123.398438 272.910156 122.660156 273.273438 122.121094 C 274.261719 120.660156 275.148438 119.132812 275.914062 117.582031 C 276.203125 116.996094 276.914062 116.761719 277.480469 117.042969 C 277.714844 117.152344 277.875 117.320312 277.984375 117.503906 Z M 271.941406 126.460938 C 272.191406 126.886719 272.15625 127.449219 271.800781 127.84375 C 270.574219 129.214844 269.234375 130.53125 267.835938 131.742188 C 267.347656 132.167969 266.605469 132.113281 266.175781 131.621094 C 265.761719 131.125 265.804688 130.390625 266.292969 129.960938 C 267.621094 128.808594 268.878906 127.570312 270.039062 126.269531 C 270.464844 125.785156 271.214844 125.746094 271.695312 126.171875 C 271.808594 126.261719 271.882812 126.359375 271.941406 126.460938 Z M 263.773438 133.535156 C 264.089844 134.074219 263.929688 134.769531 263.40625 135.109375 C 262.785156 135.523438 262.152344 135.914062 261.511719 136.292969 C 260.546875 136.859375 259.566406 137.390625 258.582031 137.863281 C 257.992188 138.148438 257.304688 137.921875 257.011719 137.320312 C 256.726562 136.734375 256.964844 136.035156 257.550781 135.75 C 258.484375 135.292969 259.421875 134.789062 260.324219 134.253906 C 260.929688 133.898438 261.53125 133.527344 262.117188 133.136719 C 262.660156 132.769531 263.382812 132.929688 263.75 133.472656 C 263.746094 133.488281 263.757812 133.511719 263.773438 133.535156 Z M 254.070312 138.269531 C 254.109375 138.339844 254.136719 138.414062 254.175781 138.5 C 254.382812 139.117188 254.050781 139.78125 253.433594 139.988281 C 251.785156 140.542969 250.097656 140.980469 248.410156 141.3125 L 248.035156 141.378906 C 247.394531 141.496094 246.78125 141.085938 246.664062 140.441406 C 246.546875 139.800781 246.964844 139.199219 247.597656 139.070312 L 247.957031 139 C 249.542969 138.679688 251.136719 138.269531 252.6875 137.757812 C 253.210938 137.570312 253.792969 137.800781 254.070312 138.269531 Z M 233.503906 117.652344 C 233.828125 118.203125 234.089844 118.730469 234.335938 119.25 C 234.609375 119.84375 234.335938 120.53125 233.742188 120.804688 C 233.144531 121.078125 232.441406 120.796875 232.183594 120.207031 C 231.5 118.679688 230.546875 117.296875 229.378906 116.050781 C 228.929688 115.578125 228.953125 114.835938 229.4375 114.394531 C 229.910156 113.945312 230.652344 113.972656 231.089844 114.457031 C 232.039062 115.457031 232.839844 116.53125 233.503906 117.652344 Z M 235.527344 124.386719 C 235.625 124.546875 235.691406 124.738281 235.6875 124.941406 C 235.738281 126.257812 235.605469 127.523438 235.292969 128.746094 C 235.125 129.402344 234.902344 130.070312 234.636719 130.722656 C 234.394531 131.328125 233.710938 131.609375 233.101562 131.363281 C 232.496094 131.121094 232.214844 130.433594 232.460938 129.828125 C 232.6875 129.273438 232.871094 128.71875 233.015625 128.15625 C 233.273438 127.152344 233.378906 126.101562 233.332031 125.03125 C 233.304688 124.382812 233.816406 123.835938 234.464844 123.808594 C 234.925781 123.785156 235.320312 124.03125 235.527344 124.386719 Z M 227.058594 111.253906 C 227.277344 111.621094 227.292969 112.09375 227.050781 112.464844 C 226.710938 113.019531 225.980469 113.191406 225.4375 112.847656 C 225.074219 112.625 224.722656 112.417969 224.355469 112.214844 C 223.199219 111.585938 222.007812 111.082031 220.808594 110.722656 C 220.1875 110.535156 219.824219 109.898438 220.007812 109.265625 C 220.195312 108.644531 220.832031 108.28125 221.464844 108.464844 C 222.828125 108.867188 224.179688 109.429688 225.480469 110.148438 C 225.890625 110.371094 226.285156 110.597656 226.679688 110.847656 C 226.835938 110.953125 226.964844 111.09375 227.058594 111.253906 Z M 243.445312 140.238281 C 243.539062 140.398438 243.597656 140.582031 243.605469 140.777344 C 243.632812 141.425781 243.140625 141.976562 242.496094 142.003906 C 240.648438 142.089844 238.773438 142.050781 236.925781 141.902344 C 236.28125 141.851562 235.804688 141.28125 235.855469 140.636719 C 235.90625 139.988281 236.472656 139.511719 237.121094 139.5625 C 238.871094 139.707031 240.636719 139.746094 242.378906 139.664062 C 242.828125 139.644531 243.226562 139.871094 243.445312 140.238281 Z M 216.785156 108.429688 C 216.867188 108.566406 216.917969 108.738281 216.945312 108.90625 C 217 109.554688 216.535156 110.121094 215.894531 110.191406 C 214.757812 110.304688 213.699219 110.605469 212.738281 111.09375 C 212.527344 111.203125 212.316406 111.3125 212.121094 111.429688 C 211.878906 111.570312 211.65625 111.714844 211.441406 111.875 C 210.910156 112.25 210.183594 112.121094 209.808594 111.585938 C 209.429688 111.050781 209.558594 110.328125 210.089844 109.949219 C 210.363281 109.757812 210.644531 109.578125 210.941406 109.402344 C 211.183594 109.261719 211.429688 109.132812 211.6875 108.996094 C 212.902344 108.386719 214.234375 108.003906 215.671875 107.851562 C 216.128906 107.8125 216.554688 108.039062 216.785156 108.429688 Z M 231.769531 134.28125 C 232.011719 134.695312 231.992188 135.234375 231.65625 135.632812 C 230.953125 136.480469 230.164062 137.316406 229.277344 138.117188 C 230.148438 138.359375 231.023438 138.585938 231.90625 138.777344 C 232.539062 138.914062 232.941406 139.539062 232.808594 140.175781 C 232.671875 140.8125 232.046875 141.214844 231.410156 141.078125 C 229.867188 140.734375 228.335938 140.308594 226.847656 139.796875 C 226.59375 139.792969 226.34375 139.707031 226.144531 139.546875 C 226.105469 139.539062 226.082031 139.523438 226.050781 139.523438 C 225.441406 139.296875 225.125 138.632812 225.351562 138.023438 C 225.550781 137.472656 226.125 137.164062 226.679688 137.269531 C 227.890625 136.261719 228.949219 135.203125 229.859375 134.128906 C 230.277344 133.632812 231.003906 133.558594 231.511719 133.972656 C 231.613281 134.066406 231.703125 134.167969 231.769531 134.28125 Z M 222.507812 135.636719 C 222.710938 135.980469 222.730469 136.402344 222.535156 136.777344 C 222.242188 137.351562 221.523438 137.574219 220.941406 137.269531 C 219.285156 136.394531 217.683594 135.40625 216.195312 134.320312 C 215.671875 133.933594 215.550781 133.203125 215.9375 132.679688 C 216.324219 132.160156 217.054688 132.035156 217.574219 132.425781 C 218.976562 133.4375 220.472656 134.378906 222.03125 135.191406 C 222.242188 135.3125 222.40625 135.460938 222.507812 135.636719 Z M 208.59375 114.574219 C 208.753906 114.851562 208.800781 115.191406 208.699219 115.515625 C 208.273438 116.910156 208.242188 118.503906 208.632812 120.269531 C 208.773438 120.898438 208.375 121.53125 207.746094 121.671875 C 207.121094 121.808594 206.484375 121.410156 206.34375 120.785156 C 205.863281 118.609375 205.902344 116.609375 206.453125 114.816406 C 206.640625 114.195312 207.300781 113.851562 207.921875 114.042969 C 208.226562 114.140625 208.449219 114.335938 208.59375 114.574219 Z M 223.375 141.058594 C 223.375 141.058594 223.382812 141.066406 223.382812 141.066406 C 223.703125 141.636719 223.507812 142.355469 222.941406 142.671875 C 221.371094 143.566406 219.683594 144.394531 217.945312 145.109375 C 217.347656 145.351562 216.660156 145.078125 216.410156 144.46875 C 216.167969 143.871094 216.441406 143.183594 217.046875 142.933594 C 218.699219 142.253906 220.289062 141.472656 221.777344 140.625 C 222.347656 140.304688 223.050781 140.507812 223.375 141.058594 Z M 213.773438 129.273438 C 214.042969 129.730469 213.980469 130.328125 213.589844 130.710938 C 213.132812 131.167969 212.386719 131.160156 211.929688 130.699219 C 210.699219 129.449219 209.558594 127.957031 208.625 126.375 C 208.625 126.375 208.617188 126.363281 208.617188 126.363281 L 208.484375 126.136719 C 208.152344 125.574219 208.347656 124.855469 208.914062 124.539062 C 209.464844 124.214844 210.179688 124.410156 210.503906 124.960938 C 210.503906 124.960938 210.511719 124.96875 210.511719 124.96875 L 210.632812 125.175781 C 210.632812 125.175781 210.640625 125.1875 210.640625 125.1875 C 211.472656 126.597656 212.496094 127.941406 213.597656 129.054688 C 213.667969 129.121094 213.726562 129.195312 213.773438 129.273438 Z M 213.398438 145.195312 C 213.445312 145.277344 213.488281 145.375 213.519531 145.480469 C 213.699219 146.097656 213.328125 146.75 212.710938 146.929688 C 210.84375 147.457031 209 147.835938 207.242188 148.070312 C 206.597656 148.15625 206.003906 147.699219 205.917969 147.058594 C 205.832031 146.414062 206.285156 145.820312 206.929688 145.734375 C 208.574219 145.519531 210.300781 145.152344 212.066406 144.667969 C 212.589844 144.527344 213.132812 144.75 213.398438 145.195312 Z M 202.683594 146.539062 C 202.789062 146.722656 202.859375 146.945312 202.839844 147.171875 C 202.820312 147.816406 202.269531 148.328125 201.625 148.304688 C 199.855469 148.238281 197.996094 148.066406 196.097656 147.796875 C 195.453125 147.699219 195.011719 147.109375 195.097656 146.46875 C 195.195312 145.824219 195.785156 145.382812 196.421875 145.472656 C 198.226562 145.734375 200.003906 145.894531 201.695312 145.964844 C 202.128906 145.96875 202.484375 146.207031 202.683594 146.539062 Z M 191.96875 145.007812 C 192.117188 145.261719 192.171875 145.566406 192.09375 145.875 C 191.941406 146.507812 191.308594 146.898438 190.675781 146.742188 C 188.882812 146.316406 187.09375 145.796875 185.359375 145.210938 C 184.746094 145.003906 184.410156 144.335938 184.617188 143.71875 C 184.824219 143.101562 185.492188 142.769531 186.109375 142.976562 C 187.78125 143.535156 189.5 144.039062 191.21875 144.445312 C 191.554688 144.542969 191.8125 144.746094 191.96875 145.007812 Z M 181.707031 141.527344 C 181.894531 141.847656 181.929688 142.246094 181.769531 142.601562 C 181.5 143.191406 180.8125 143.460938 180.21875 143.191406 C 178.480469 142.410156 176.808594 141.539062 175.285156 140.628906 C 174.730469 140.292969 174.554688 139.578125 174.875 139.019531 C 175.210938 138.464844 175.917969 138.277344 176.484375 138.609375 C 177.941406 139.480469 179.515625 140.296875 181.179688 141.050781 C 181.414062 141.160156 181.585938 141.320312 181.707031 141.527344 Z M 164.191406 112.480469 C 164.355469 112.757812 164.410156 113.109375 164.292969 113.441406 C 163.859375 114.796875 163.613281 116.207031 163.546875 117.667969 C 163.515625 118.320312 162.972656 118.8125 162.328125 118.789062 C 161.675781 118.757812 161.183594 118.210938 161.203125 117.566406 C 161.273438 115.902344 161.5625 114.277344 162.0625 112.71875 C 162.257812 112.109375 162.917969 111.765625 163.539062 111.953125 C 163.816406 112.054688 164.050781 112.242188 164.191406 112.480469 Z M 172.46875 135.910156 C 172.714844 136.320312 172.691406 136.859375 172.367188 137.253906 C 171.957031 137.757812 171.222656 137.820312 170.714844 137.40625 C 170.074219 136.871094 169.464844 136.335938 168.894531 135.761719 C 168.132812 135.019531 167.410156 134.210938 166.742188 133.367188 C 166.339844 132.863281 166.425781 132.121094 166.925781 131.714844 C 167.429688 131.3125 168.171875 131.398438 168.578125 131.898438 C 169.1875 132.667969 169.84375 133.394531 170.535156 134.066406 C 171.058594 134.59375 171.621094 135.097656 172.214844 135.582031 C 172.3125 135.691406 172.402344 135.792969 172.46875 135.910156 Z M 163.902344 122.402344 C 163.964844 122.507812 164.011719 122.617188 164.03125 122.726562 C 164.410156 124.359375 165 125.988281 165.789062 127.5625 C 166.074219 128.152344 165.835938 128.847656 165.269531 129.140625 C 164.679688 129.421875 163.992188 129.195312 163.695312 128.613281 C 162.828125 126.882812 162.175781 125.074219 161.757812 123.265625 C 161.613281 122.625 162.003906 122.007812 162.636719 121.851562 C 163.132812 121.726562 163.644531 121.96875 163.902344 122.402344 Z M 163.902344 122.402344 " fill-opacity="1" fill-rule="nonzero"/></g></g></g><path fill="#ffffff" d="M 137.445312 113.320312 C 137.445312 113.320312 109.808594 95.1875 123.972656 84.535156 C 138.128906 73.878906 137.445312 113.320312 137.445312 113.320312 Z M 137.445312 113.320312 " fill-opacity="1" fill-rule="nonzero"/><path fill="#ffffff" d="M 136.335938 112.964844 C 136.335938 112.964844 165.203125 96.851562 151.84375 85.214844 C 138.488281 73.578125 136.335938 112.964844 136.335938 112.964844 Z M 136.335938 112.964844 " fill-opacity="1" fill-rule="nonzero"/><g clip-path="url(#65120523ef)"><path fill="#ffca3a" d="M 136.371094 105.277344 C 123.066406 104.371094 89.492188 105.277344 89.492188 133.804688 C 89.492188 164.320312 130.773438 164.3125 140.378906 164.3125 C 149.980469 164.3125 179.660156 162.453125 180.664062 134.878906 C 181.671875 107.304688 142.234375 105.675781 136.371094 105.277344 Z M 136.371094 105.277344 " fill-opacity="1" fill-rule="nonzero"/></g><path fill="#231f20" d="M 129.890625 165.507812 C 129.808594 165.507812 129.726562 165.5 129.640625 165.484375 C 128.992188 165.347656 128.578125 164.710938 128.714844 164.0625 C 134.96875 134.535156 128.339844 104.738281 128.273438 104.441406 C 128.125 103.796875 128.53125 103.152344 129.179688 103.007812 C 129.824219 102.863281 130.46875 103.265625 130.617188 103.910156 C 130.683594 104.214844 137.433594 134.503906 131.066406 164.558594 C 130.945312 165.121094 130.449219 165.507812 129.890625 165.507812 Z M 129.890625 165.507812 " fill-opacity="1" fill-rule="nonzero"/><g clip-path="url(#bdc43cf1e2)"><path fill="#231f20" d="M 143.199219 166.582031 C 143.117188 166.582031 143.035156 166.570312 142.949219 166.554688 C 142.300781 166.417969 141.886719 165.78125 142.023438 165.136719 C 148.285156 135.578125 142.039062 105.621094 141.976562 105.320312 C 141.839844 104.671875 142.253906 104.039062 142.902344 103.902344 C 143.554688 103.761719 144.1875 104.175781 144.328125 104.820312 C 144.390625 105.125 150.738281 135.582031 144.375 165.628906 C 144.253906 166.191406 143.753906 166.578125 143.199219 166.578125 Z M 143.199219 166.582031 " fill-opacity="1" fill-rule="nonzero"/></g><path fill="#231f20" d="M 156.46875 164.640625 C 156.390625 164.640625 156.304688 164.632812 156.222656 164.613281 C 155.574219 164.480469 155.15625 163.84375 155.292969 163.195312 C 161.546875 133.671875 155.941406 108.09375 155.882812 107.839844 C 155.738281 107.195312 156.144531 106.554688 156.792969 106.410156 C 157.441406 106.265625 158.082031 106.671875 158.226562 107.316406 C 158.285156 107.578125 164.011719 133.636719 157.644531 163.691406 C 157.527344 164.253906 157.027344 164.640625 156.472656 164.640625 Z M 156.46875 164.640625 " fill-opacity="1" fill-rule="nonzero"/><path fill="#231f20" d="M 169.886719 159.371094 C 169.804688 159.371094 169.71875 159.363281 169.636719 159.347656 C 168.988281 159.210938 168.570312 158.574219 168.707031 157.929688 C 174.929688 128.554688 170.351562 114.710938 170.304688 114.574219 C 170.089844 113.949219 170.421875 113.269531 171.046875 113.054688 C 171.671875 112.839844 172.355469 113.167969 172.574219 113.792969 C 172.773438 114.371094 177.441406 128.296875 171.058594 158.421875 C 170.941406 158.984375 170.441406 159.371094 169.886719 159.371094 Z M 169.886719 159.371094 " fill-opacity="1" fill-rule="nonzero"/><path fill="#231f20" d="M 101.320312 131.738281 C 102.574219 131.738281 103.78125 130.636719 103.722656 129.347656 C 103.664062 128.050781 102.667969 126.953125 101.320312 126.953125 C 100.0625 126.953125 98.859375 128.054688 98.917969 129.347656 C 98.976562 130.644531 99.972656 131.738281 101.320312 131.738281 Z M 101.320312 131.738281 " fill-opacity="1" fill-rule="nonzero"/><path fill="#231f20" d="M 113.535156 131.738281 C 114.792969 131.738281 115.996094 130.636719 115.9375 129.347656 C 115.878906 128.050781 114.882812 126.953125 113.535156 126.953125 C 112.277344 126.953125 111.074219 128.054688 111.132812 129.347656 C 111.191406 130.644531 112.1875 131.738281 113.535156 131.738281 Z M 113.535156 131.738281 " fill-opacity="1" fill-rule="nonzero"/><g fill="#000000" fill-opacity="1"><g transform="translate(135.160072, 259.985601)"><g><path d="M 6.796875 -0.4375 C 6.804688 -0.382812 6.8125 -0.34375 6.8125 -0.3125 C 6.8125 -0.21875 6.78125 -0.140625 6.71875 -0.078125 C 6.65625 -0.015625 6.578125 0.015625 6.484375 0.015625 C 6.410156 0.015625 6.34375 -0.00390625 6.28125 -0.046875 C 6.226562 -0.0859375 6.191406 -0.140625 6.171875 -0.203125 L 5.34375 -2.234375 L 1.75 -2.234375 L 0.9375 -0.203125 C 0.875 -0.0546875 0.773438 0.015625 0.640625 0.015625 C 0.535156 0.015625 0.457031 -0.0078125 0.40625 -0.0625 C 0.351562 -0.113281 0.320312 -0.1875 0.3125 -0.28125 L 0.3125 -0.3125 C 0.3125 -0.351562 0.316406 -0.382812 0.328125 -0.40625 L 3.25 -7.53125 C 3.300781 -7.675781 3.410156 -7.75 3.578125 -7.75 C 3.648438 -7.75 3.710938 -7.726562 3.765625 -7.6875 C 3.816406 -7.65625 3.859375 -7.601562 3.890625 -7.53125 Z M 2 -2.875 L 5.078125 -2.875 L 3.53125 -6.65625 Z M 2 -2.875 "/></g></g></g><g fill="#000000" fill-opacity="1"><g transform="translate(143.905538, 259.985601)"><g/></g></g><g fill="#000000" fill-opacity="1"><g transform="translate(148.526713, 259.985601)"><g><path d="M 5.15625 -4.109375 C 5.601562 -3.992188 5.960938 -3.769531 6.234375 -3.4375 C 6.515625 -3.113281 6.65625 -2.6875 6.65625 -2.15625 C 6.65625 -1.425781 6.429688 -0.882812 5.984375 -0.53125 C 5.546875 -0.175781 4.992188 0 4.328125 0 L 1.375 0 C 1.269531 0 1.1875 -0.03125 1.125 -0.09375 C 1.0625 -0.15625 1.03125 -0.234375 1.03125 -0.328125 L 1.03125 -7.390625 C 1.03125 -7.484375 1.0625 -7.5625 1.125 -7.625 C 1.1875 -7.6875 1.269531 -7.71875 1.375 -7.71875 L 4.296875 -7.71875 C 4.910156 -7.71875 5.390625 -7.546875 5.734375 -7.203125 C 6.085938 -6.867188 6.265625 -6.410156 6.265625 -5.828125 C 6.265625 -5.429688 6.164062 -5.078125 5.96875 -4.765625 C 5.78125 -4.460938 5.507812 -4.242188 5.15625 -4.109375 Z M 5.5625 -5.765625 C 5.5625 -6.171875 5.441406 -6.488281 5.203125 -6.71875 C 4.960938 -6.957031 4.628906 -7.078125 4.203125 -7.078125 L 1.75 -7.078125 L 1.75 -4.3125 L 4.203125 -4.3125 C 4.597656 -4.320312 4.921875 -4.453125 5.171875 -4.703125 C 5.429688 -4.953125 5.5625 -5.304688 5.5625 -5.765625 Z M 4.296875 -0.65625 C 4.796875 -0.65625 5.195312 -0.78125 5.5 -1.03125 C 5.800781 -1.28125 5.953125 -1.65625 5.953125 -2.15625 C 5.953125 -2.664062 5.796875 -3.039062 5.484375 -3.28125 C 5.171875 -3.53125 4.769531 -3.65625 4.28125 -3.65625 L 1.75 -3.65625 L 1.75 -0.65625 Z M 4.296875 -0.65625 "/></g></g></g><g fill="#000000" fill-opacity="1"><g transform="translate(157.31629, 259.985601)"><g><path d="M 6.5 -7.71875 C 6.59375 -7.71875 6.671875 -7.6875 6.734375 -7.625 C 6.796875 -7.5625 6.828125 -7.484375 6.828125 -7.390625 L 6.828125 -2.828125 C 6.828125 -2.285156 6.695312 -1.789062 6.4375 -1.34375 C 6.1875 -0.894531 5.835938 -0.539062 5.390625 -0.28125 C 4.953125 -0.03125 4.46875 0.09375 3.9375 0.09375 C 3.40625 0.09375 2.914062 -0.03125 2.46875 -0.28125 C 2.03125 -0.539062 1.679688 -0.894531 1.421875 -1.34375 C 1.160156 -1.789062 1.03125 -2.285156 1.03125 -2.828125 L 1.03125 -7.390625 C 1.03125 -7.484375 1.0625 -7.5625 1.125 -7.625 C 1.1875 -7.6875 1.273438 -7.71875 1.390625 -7.71875 C 1.472656 -7.71875 1.546875 -7.6875 1.609375 -7.625 C 1.679688 -7.5625 1.71875 -7.484375 1.71875 -7.390625 L 1.71875 -2.828125 C 1.71875 -2.410156 1.816406 -2.03125 2.015625 -1.6875 C 2.210938 -1.34375 2.484375 -1.066406 2.828125 -0.859375 C 3.171875 -0.660156 3.539062 -0.5625 3.9375 -0.5625 C 4.34375 -0.5625 4.71875 -0.660156 5.0625 -0.859375 C 5.40625 -1.066406 5.675781 -1.34375 5.875 -1.6875 C 6.070312 -2.03125 6.171875 -2.410156 6.171875 -2.828125 L 6.171875 -7.390625 C 6.171875 -7.484375 6.203125 -7.5625 6.265625 -7.625 C 6.328125 -7.6875 6.40625 -7.71875 6.5 -7.71875 Z M 6.5 -7.71875 "/></g></g></g><g fill="#000000" fill-opacity="1"><g transform="translate(166.789573, 259.985601)"><g><path d="M 6.671875 -3.890625 C 6.765625 -3.890625 6.84375 -3.859375 6.90625 -3.796875 C 6.96875 -3.734375 7 -3.65625 7 -3.5625 L 7 -0.90625 C 7 -0.78125 6.945312 -0.679688 6.84375 -0.609375 C 6.507812 -0.378906 6.140625 -0.203125 5.734375 -0.078125 C 5.328125 0.046875 4.914062 0.109375 4.5 0.109375 C 3.75 0.109375 3.070312 -0.0625 2.46875 -0.40625 C 1.863281 -0.75 1.390625 -1.222656 1.046875 -1.828125 C 0.703125 -2.429688 0.53125 -3.109375 0.53125 -3.859375 C 0.53125 -4.609375 0.703125 -5.285156 1.046875 -5.890625 C 1.390625 -6.492188 1.863281 -6.96875 2.46875 -7.3125 C 3.070312 -7.65625 3.75 -7.828125 4.5 -7.828125 C 4.882812 -7.828125 5.257812 -7.78125 5.625 -7.6875 C 5.988281 -7.59375 6.316406 -7.457031 6.609375 -7.28125 C 6.710938 -7.21875 6.765625 -7.125 6.765625 -7 C 6.765625 -6.90625 6.734375 -6.820312 6.671875 -6.75 C 6.609375 -6.6875 6.535156 -6.65625 6.453125 -6.65625 C 6.378906 -6.65625 6.3125 -6.675781 6.25 -6.71875 C 5.695312 -7.019531 5.113281 -7.171875 4.5 -7.171875 C 3.875 -7.171875 3.3125 -7.023438 2.8125 -6.734375 C 2.320312 -6.453125 1.9375 -6.054688 1.65625 -5.546875 C 1.375 -5.046875 1.234375 -4.484375 1.234375 -3.859375 C 1.234375 -3.234375 1.375 -2.664062 1.65625 -2.15625 C 1.9375 -1.65625 2.320312 -1.257812 2.8125 -0.96875 C 3.3125 -0.6875 3.875 -0.546875 4.5 -0.546875 C 4.8125 -0.546875 5.128906 -0.585938 5.453125 -0.671875 C 5.773438 -0.765625 6.0625 -0.890625 6.3125 -1.046875 L 6.3125 -3.234375 L 4.5625 -3.234375 C 4.46875 -3.234375 4.382812 -3.265625 4.3125 -3.328125 C 4.25 -3.390625 4.21875 -3.46875 4.21875 -3.5625 C 4.21875 -3.65625 4.25 -3.734375 4.3125 -3.796875 C 4.382812 -3.859375 4.46875 -3.890625 4.5625 -3.890625 Z M 6.671875 -3.890625 "/></g></g></g><g fill="#000000" fill-opacity="1"><g transform="translate(176.064367, 259.985601)"><g/></g></g><g fill="#000000" fill-opacity="1"><g transform="translate(180.685545, 259.985601)"><g><path d="M 5.953125 -7.71875 C 6.046875 -7.71875 6.125 -7.6875 6.1875 -7.625 C 6.25 -7.570312 6.28125 -7.5 6.28125 -7.40625 C 6.28125 -7.3125 6.25 -7.234375 6.1875 -7.171875 C 6.125 -7.117188 6.046875 -7.09375 5.953125 -7.09375 L 3.671875 -7.09375 L 3.671875 -0.328125 C 3.671875 -0.234375 3.632812 -0.15625 3.5625 -0.09375 C 3.5 -0.03125 3.421875 0 3.328125 0 C 3.222656 0 3.140625 -0.03125 3.078125 -0.09375 C 3.015625 -0.15625 2.984375 -0.234375 2.984375 -0.328125 L 2.984375 -7.09375 L 0.703125 -7.09375 C 0.609375 -7.09375 0.53125 -7.117188 0.46875 -7.171875 C 0.40625 -7.234375 0.375 -7.3125 0.375 -7.40625 C 0.375 -7.5 0.40625 -7.570312 0.46875 -7.625 C 0.53125 -7.6875 0.609375 -7.71875 0.703125 -7.71875 Z M 5.953125 -7.71875 "/></g></g></g><g fill="#000000" fill-opacity="1"><g transform="translate(188.95683, 259.985601)"><g><path d="M 6.671875 -0.59375 C 6.785156 -0.519531 6.84375 -0.425781 6.84375 -0.3125 C 6.84375 -0.28125 6.828125 -0.234375 6.796875 -0.171875 C 6.765625 -0.117188 6.722656 -0.078125 6.671875 -0.046875 C 6.617188 -0.0234375 6.566406 -0.015625 6.515625 -0.015625 C 6.429688 -0.015625 6.367188 -0.03125 6.328125 -0.0625 C 6.117188 -0.175781 5.953125 -0.363281 5.828125 -0.625 C 5.703125 -0.894531 5.640625 -1.316406 5.640625 -1.890625 C 5.640625 -2.410156 5.492188 -2.773438 5.203125 -2.984375 C 4.921875 -3.191406 4.582031 -3.296875 4.1875 -3.296875 L 1.734375 -3.296875 L 1.734375 -0.328125 C 1.734375 -0.234375 1.703125 -0.15625 1.640625 -0.09375 C 1.585938 -0.03125 1.507812 0 1.40625 0 C 1.300781 0 1.210938 -0.03125 1.140625 -0.09375 C 1.066406 -0.15625 1.03125 -0.234375 1.03125 -0.328125 L 1.03125 -7.390625 C 1.03125 -7.484375 1.0625 -7.5625 1.125 -7.625 C 1.1875 -7.6875 1.269531 -7.71875 1.375 -7.71875 L 4.34375 -7.71875 C 4.757812 -7.71875 5.132812 -7.628906 5.46875 -7.453125 C 5.800781 -7.273438 6.0625 -7.023438 6.25 -6.703125 C 6.4375 -6.390625 6.53125 -6.035156 6.53125 -5.640625 C 6.53125 -5.171875 6.40625 -4.753906 6.15625 -4.390625 C 5.914062 -4.035156 5.597656 -3.789062 5.203125 -3.65625 C 5.523438 -3.53125 5.785156 -3.316406 5.984375 -3.015625 C 6.191406 -2.722656 6.300781 -2.363281 6.3125 -1.9375 C 6.320312 -1.476562 6.351562 -1.15625 6.40625 -0.96875 C 6.457031 -0.789062 6.546875 -0.664062 6.671875 -0.59375 Z M 4.375 -3.90625 C 4.632812 -3.925781 4.875 -4.007812 5.09375 -4.15625 C 5.3125 -4.300781 5.488281 -4.5 5.625 -4.75 C 5.757812 -5 5.828125 -5.285156 5.828125 -5.609375 C 5.828125 -6.035156 5.679688 -6.382812 5.390625 -6.65625 C 5.109375 -6.9375 4.742188 -7.078125 4.296875 -7.078125 L 1.734375 -7.078125 L 1.734375 -3.90625 Z M 4.375 -3.90625 "/></g></g></g><g fill="#000000" fill-opacity="1"><g transform="translate(197.955933, 259.985601)"><g><path d="M 6.796875 -0.4375 C 6.804688 -0.382812 6.8125 -0.34375 6.8125 -0.3125 C 6.8125 -0.21875 6.78125 -0.140625 6.71875 -0.078125 C 6.65625 -0.015625 6.578125 0.015625 6.484375 0.015625 C 6.410156 0.015625 6.34375 -0.00390625 6.28125 -0.046875 C 6.226562 -0.0859375 6.191406 -0.140625 6.171875 -0.203125 L 5.34375 -2.234375 L 1.75 -2.234375 L 0.9375 -0.203125 C 0.875 -0.0546875 0.773438 0.015625 0.640625 0.015625 C 0.535156 0.015625 0.457031 -0.0078125 0.40625 -0.0625 C 0.351562 -0.113281 0.320312 -0.1875 0.3125 -0.28125 L 0.3125 -0.3125 C 0.3125 -0.351562 0.316406 -0.382812 0.328125 -0.40625 L 3.25 -7.53125 C 3.300781 -7.675781 3.410156 -7.75 3.578125 -7.75 C 3.648438 -7.75 3.710938 -7.726562 3.765625 -7.6875 C 3.816406 -7.65625 3.859375 -7.601562 3.890625 -7.53125 Z M 2 -2.875 L 5.078125 -2.875 L 3.53125 -6.65625 Z M 2 -2.875 "/></g></g></g><g fill="#000000" fill-opacity="1"><g transform="translate(206.7014, 259.985601)"><g><path d="M 6.671875 -7.140625 C 6.785156 -7.078125 6.84375 -6.988281 6.84375 -6.875 C 6.84375 -6.800781 6.816406 -6.726562 6.765625 -6.65625 C 6.691406 -6.570312 6.609375 -6.53125 6.515625 -6.53125 C 6.453125 -6.53125 6.390625 -6.546875 6.328125 -6.578125 C 5.742188 -6.972656 5.101562 -7.171875 4.40625 -7.171875 C 3.8125 -7.171875 3.269531 -7.03125 2.78125 -6.75 C 2.300781 -6.46875 1.921875 -6.078125 1.640625 -5.578125 C 1.367188 -5.078125 1.234375 -4.503906 1.234375 -3.859375 C 1.234375 -3.203125 1.375 -2.625 1.65625 -2.125 C 1.9375 -1.625 2.316406 -1.234375 2.796875 -0.953125 C 3.273438 -0.679688 3.8125 -0.546875 4.40625 -0.546875 C 5.101562 -0.546875 5.742188 -0.734375 6.328125 -1.109375 C 6.378906 -1.148438 6.441406 -1.171875 6.515625 -1.171875 C 6.609375 -1.171875 6.691406 -1.125 6.765625 -1.03125 C 6.816406 -0.976562 6.84375 -0.910156 6.84375 -0.828125 C 6.84375 -0.710938 6.789062 -0.625 6.6875 -0.5625 C 6.394531 -0.375 6.039062 -0.210938 5.625 -0.078125 C 5.207031 0.046875 4.800781 0.109375 4.40625 0.109375 C 3.707031 0.109375 3.0625 -0.0546875 2.46875 -0.390625 C 1.875 -0.722656 1.398438 -1.191406 1.046875 -1.796875 C 0.703125 -2.398438 0.53125 -3.085938 0.53125 -3.859375 C 0.53125 -4.597656 0.703125 -5.269531 1.046875 -5.875 C 1.390625 -6.488281 1.851562 -6.96875 2.4375 -7.3125 C 3.03125 -7.65625 3.6875 -7.828125 4.40625 -7.828125 C 4.8125 -7.828125 5.210938 -7.765625 5.609375 -7.640625 C 6.003906 -7.523438 6.359375 -7.359375 6.671875 -7.140625 Z M 6.671875 -7.140625 "/></g></g></g><g fill="#000000" fill-opacity="1"><g transform="translate(215.513034, 259.985601)"><g><path d="M 6.84375 -0.546875 C 6.894531 -0.472656 6.921875 -0.394531 6.921875 -0.3125 C 6.921875 -0.195312 6.882812 -0.109375 6.8125 -0.046875 C 6.738281 0.015625 6.648438 0.046875 6.546875 0.046875 C 6.453125 0.046875 6.375 0.00390625 6.3125 -0.078125 L 3.234375 -3.953125 L 1.734375 -2.53125 L 1.734375 -0.34375 C 1.722656 -0.238281 1.679688 -0.15625 1.609375 -0.09375 C 1.546875 -0.03125 1.46875 0 1.375 0 C 1.269531 0 1.1875 -0.03125 1.125 -0.09375 C 1.0625 -0.15625 1.03125 -0.238281 1.03125 -0.34375 L 1.03125 -7.375 C 1.03125 -7.476562 1.0625 -7.5625 1.125 -7.625 C 1.195312 -7.6875 1.285156 -7.71875 1.390625 -7.71875 C 1.492188 -7.71875 1.578125 -7.6875 1.640625 -7.625 C 1.703125 -7.5625 1.734375 -7.476562 1.734375 -7.375 L 1.734375 -3.375 L 6.1875 -7.59375 C 6.25 -7.664062 6.332031 -7.703125 6.4375 -7.703125 C 6.519531 -7.703125 6.59375 -7.664062 6.65625 -7.59375 C 6.71875 -7.53125 6.75 -7.457031 6.75 -7.375 C 6.75 -7.289062 6.71875 -7.210938 6.65625 -7.140625 L 3.765625 -4.453125 Z M 6.84375 -0.546875 "/></g></g></g><g fill="#000000" fill-opacity="1"><g transform="translate(224.56727, 259.985601)"><g><path d="M 5.421875 -0.65625 C 5.515625 -0.65625 5.59375 -0.617188 5.65625 -0.546875 C 5.71875 -0.484375 5.75 -0.40625 5.75 -0.3125 C 5.75 -0.21875 5.71875 -0.140625 5.65625 -0.078125 C 5.59375 -0.0234375 5.515625 0 5.421875 0 L 1.375 0 C 1.269531 0 1.1875 -0.03125 1.125 -0.09375 C 1.0625 -0.15625 1.03125 -0.234375 1.03125 -0.328125 L 1.03125 -7.390625 C 1.03125 -7.484375 1.0625 -7.5625 1.125 -7.625 C 1.1875 -7.6875 1.269531 -7.71875 1.375 -7.71875 L 5.421875 -7.71875 C 5.515625 -7.71875 5.59375 -7.6875 5.65625 -7.625 C 5.71875 -7.5625 5.75 -7.484375 5.75 -7.390625 C 5.75 -7.296875 5.71875 -7.21875 5.65625 -7.15625 C 5.59375 -7.101562 5.515625 -7.078125 5.421875 -7.078125 L 1.734375 -7.078125 L 1.734375 -4.296875 L 4.921875 -4.296875 C 5.015625 -4.296875 5.09375 -4.265625 5.15625 -4.203125 C 5.21875 -4.140625 5.25 -4.0625 5.25 -3.96875 C 5.25 -3.875 5.21875 -3.796875 5.15625 -3.734375 C 5.09375 -3.679688 5.015625 -3.65625 4.921875 -3.65625 L 1.734375 -3.65625 L 1.734375 -0.65625 Z M 5.421875 -0.65625 "/></g></g></g><g fill="#000000" fill-opacity="1"><g transform="translate(232.441564, 259.985601)"><g><path d="M 6.671875 -0.59375 C 6.785156 -0.519531 6.84375 -0.425781 6.84375 -0.3125 C 6.84375 -0.28125 6.828125 -0.234375 6.796875 -0.171875 C 6.765625 -0.117188 6.722656 -0.078125 6.671875 -0.046875 C 6.617188 -0.0234375 6.566406 -0.015625 6.515625 -0.015625 C 6.429688 -0.015625 6.367188 -0.03125 6.328125 -0.0625 C 6.117188 -0.175781 5.953125 -0.363281 5.828125 -0.625 C 5.703125 -0.894531 5.640625 -1.316406 5.640625 -1.890625 C 5.640625 -2.410156 5.492188 -2.773438 5.203125 -2.984375 C 4.921875 -3.191406 4.582031 -3.296875 4.1875 -3.296875 L 1.734375 -3.296875 L 1.734375 -0.328125 C 1.734375 -0.234375 1.703125 -0.15625 1.640625 -0.09375 C 1.585938 -0.03125 1.507812 0 1.40625 0 C 1.300781 0 1.210938 -0.03125 1.140625 -0.09375 C 1.066406 -0.15625 1.03125 -0.234375 1.03125 -0.328125 L 1.03125 -7.390625 C 1.03125 -7.484375 1.0625 -7.5625 1.125 -7.625 C 1.1875 -7.6875 1.269531 -7.71875 1.375 -7.71875 L 4.34375 -7.71875 C 4.757812 -7.71875 5.132812 -7.628906 5.46875 -7.453125 C 5.800781 -7.273438 6.0625 -7.023438 6.25 -6.703125 C 6.4375 -6.390625 6.53125 -6.035156 6.53125 -5.640625 C 6.53125 -5.171875 6.40625 -4.753906 6.15625 -4.390625 C 5.914062 -4.035156 5.597656 -3.789062 5.203125 -3.65625 C 5.523438 -3.53125 5.785156 -3.316406 5.984375 -3.015625 C 6.191406 -2.722656 6.300781 -2.363281 6.3125 -1.9375 C 6.320312 -1.476562 6.351562 -1.15625 6.40625 -0.96875 C 6.457031 -0.789062 6.546875 -0.664062 6.671875 -0.59375 Z M 4.375 -3.90625 C 4.632812 -3.925781 4.875 -4.007812 5.09375 -4.15625 C 5.3125 -4.300781 5.488281 -4.5 5.625 -4.75 C 5.757812 -5 5.828125 -5.285156 5.828125 -5.609375 C 5.828125 -6.035156 5.679688 -6.382812 5.390625 -6.65625 C 5.109375 -6.9375 4.742188 -7.078125 4.296875 -7.078125 L 1.734375 -7.078125 L 1.734375 -3.90625 Z M 4.375 -3.90625 "/></g></g></g></svg>