<svg xmlns="http://www.w3.org/2000/svg" xmlns:xlink="http://www.w3.org/1999/xlink" width="500" zoomAndPan="magnify" viewBox="0 0 375 374.999991" height="500" preserveAspectRatio="xMidYMid meet" version="1.0"><defs><g/><clipPath id="5cd22b70ed"><path d="M 194 63.019531 L 209 63.019531 L 209 109 L 194 109 Z M 194 63.019531 " clip-rule="nonzero"/></clipPath><clipPath id="8954bf21ac"><path d="M 181 171 L 190 171 L 190 257.269531 L 181 257.269531 Z M 181 171 " clip-rule="nonzero"/></clipPath><clipPath id="3dd4c0bef8"><path d="M 183 180 L 240 180 L 240 257.269531 L 183 257.269531 Z M 183 180 " clip-rule="nonzero"/></clipPath><clipPath id="24b01b0a9c"><path d="M 101.539062 135 L 173 135 L 173 201 L 101.539062 201 Z M 101.539062 135 " clip-rule="nonzero"/></clipPath></defs><path fill="#8bc349" d="M 265.066406 157.472656 L 262.667969 158.644531 C 256.265625 161.878906 249.886719 164.6875 243.523438 167.074219 C 239.554688 168.40625 237.175781 169.140625 236.386719 169.269531 L 224.792969 171.871094 C 221.152344 172.984375 219.027344 173.777344 218.414062 174.25 C 214.320312 176.164062 210.941406 179.90625 208.277344 185.476562 C 207.417969 187.332031 206.703125 189.289062 206.128906 191.355469 L 205.402344 194.46875 C 205 196.570312 204.800781 198.648438 204.796875 200.699219 C 204.792969 202.75 205.03125 204.683594 205.503906 206.5 L 206.421875 209.070312 L 207.757812 211.335938 L 209.539062 213.222656 C 212.363281 215.460938 216.097656 216.566406 220.738281 216.542969 C 223.757812 216.539062 226.902344 216.085938 230.175781 215.191406 C 234.222656 213.894531 236.632812 212.992188 237.402344 212.488281 C 241.273438 210.425781 243.527344 209.078125 244.164062 208.433594 C 245.578125 207.390625 246.90625 206.257812 248.144531 205.03125 L 250.765625 202.121094 C 252.394531 200.082031 253.835938 197.875 255.085938 195.503906 C 257.546875 190.722656 259.472656 185.480469 260.859375 179.765625 C 262.007812 175.574219 263.410156 168.140625 265.066406 157.472656 " fill-opacity="1" fill-rule="nonzero"/><path fill="#8bc349" d="M 112.925781 148.261719 L 114.296875 149.296875 C 119.292969 153.179688 123.609375 155.691406 127.25 156.832031 C 128.289062 157.167969 129.355469 157.421875 130.445312 157.597656 L 132.109375 157.800781 C 137.914062 157.972656 141.511719 158.199219 142.902344 158.484375 C 145.441406 158.828125 148.046875 159.761719 150.722656 161.28125 C 156.703125 165.089844 161.320312 170.824219 164.578125 178.484375 C 165.949219 182.039062 166.199219 185.25 165.332031 188.109375 C 164.304688 190.90625 161.988281 192.933594 158.378906 194.1875 C 157.152344 194.769531 154.679688 195.226562 150.964844 195.554688 C 148.785156 195.664062 146.546875 195.554688 144.246094 195.230469 C 140.238281 194.511719 137.441406 193.753906 135.851562 192.964844 C 133.691406 192.078125 131.699219 190.957031 129.871094 189.605469 C 128.070312 188.246094 126.46875 186.671875 125.066406 184.878906 L 123.082031 182.058594 C 121.851562 180.082031 120.761719 177.945312 119.816406 175.652344 C 117.382812 169.996094 115.085938 160.867188 112.925781 148.261719 " fill-opacity="1" fill-rule="nonzero"/><path fill="#000000" d="M 154.359375 109.550781 L 154.410156 128.464844 L 153.621094 126.835938 C 157.003906 129.527344 160.625 132.472656 162.152344 141.050781 C 162.457031 142.765625 162.675781 144.699219 162.902344 146.671875 L 162.902344 146.675781 C 163.160156 148.949219 163.433594 151.316406 163.851562 153.667969 C 164.839844 159.234375 166.582031 164.242188 170.386719 167.328125 C 173.761719 170.0625 179.0625 171.542969 184.628906 171.488281 C 190.535156 171.433594 196.25 169.65625 199.777344 166.425781 C 205.210938 161.445312 206.128906 152.511719 206.867188 144.398438 C 207.058594 142.28125 207.246094 140.214844 207.527344 138.421875 C 208.914062 129.601562 212.640625 127.179688 216.144531 125.019531 L 215.152344 126.714844 L 215.945312 107.910156 L 218.085938 110.089844 L 152.316406 111.644531 L 154.359375 109.550781 M 150.175781 109.5625 C 150.171875 108.421875 151.078125 107.492188 152.21875 107.464844 L 217.988281 105.910156 C 218.566406 105.894531 219.125 106.121094 219.53125 106.535156 C 219.9375 106.949219 220.152344 107.507812 220.128906 108.085938 L 220.128906 108.089844 L 219.335938 126.890625 C 219.304688 127.582031 218.933594 128.21875 218.339844 128.582031 C 215.457031 130.359375 212.792969 131.871094 211.660156 139.070312 C 211.40625 140.699219 211.230469 142.617188 211.035156 144.777344 C 210.34375 152.390625 209.46875 163.222656 202.605469 169.507812 C 198.078125 173.65625 191.230469 175.605469 184.671875 175.671875 C 178.480469 175.730469 172.113281 174.113281 167.75 170.578125 C 162.714844 166.492188 160.757812 160.175781 159.730469 154.398438 C 159.285156 151.898438 159 149.40625 158.742188 147.148438 C 158.511719 145.140625 158.308594 143.34375 158.03125 141.78125 C 156.757812 134.617188 154.003906 132.488281 151.011719 130.105469 C 150.515625 129.710938 150.226562 129.113281 150.222656 128.476562 Z M 150.175781 109.5625 " fill-opacity="1" fill-rule="nonzero"/><g clip-path="url(#5cd22b70ed)"><path fill="#000000" d="M 194.710938 105.757812 C 194.644531 91.511719 194.554688 76.714844 196.457031 69.460938 C 197.144531 66.832031 198.257812 64.507812 200.066406 63.519531 C 200.59375 63.230469 201.195312 63.050781 201.839844 63.046875 C 202.515625 63.039062 203.144531 63.222656 203.691406 63.523438 C 205.710938 64.636719 206.875 67.429688 207.507812 70.5625 C 209.042969 78.191406 208.25 92.546875 207.507812 106.390625 C 207.445312 107.542969 206.457031 108.429688 205.304688 108.367188 C 204.148438 108.304688 203.265625 107.320312 203.328125 106.167969 C 204.089844 92.003906 204.804688 78.355469 203.402344 71.386719 C 202.78125 68.296875 201.886719 67.304688 201.671875 67.1875 C 201.679688 67.191406 201.757812 67.230469 201.878906 67.226562 C 201.996094 67.226562 202.066406 67.191406 202.070312 67.1875 C 201.917969 67.273438 201.160156 68.011719 200.503906 70.519531 C 198.78125 77.09375 198.828125 91.140625 198.898438 105.738281 C 198.902344 106.894531 197.96875 107.832031 196.8125 107.839844 C 195.65625 107.84375 194.714844 106.914062 194.710938 105.757812 Z M 194.710938 105.757812 " fill-opacity="1" fill-rule="nonzero"/></g><path fill="#000000" d="M 180.128906 125.925781 L 213.945312 126.210938 C 215.101562 126.222656 216.03125 127.167969 216.023438 128.320312 C 216.011719 129.476562 215.066406 130.402344 213.910156 130.394531 L 180.09375 130.105469 C 178.9375 130.097656 178.007812 129.152344 178.019531 127.996094 C 178.027344 126.84375 178.972656 125.914062 180.128906 125.925781 Z M 180.128906 125.925781 " fill-opacity="1" fill-rule="nonzero"/><path fill="#000000" d="M 153.972656 126.792969 L 164.730469 126.6875 C 165.882812 126.675781 166.832031 127.605469 166.839844 128.757812 C 166.851562 129.914062 165.925781 130.859375 164.769531 130.871094 L 154.011719 130.972656 C 152.855469 130.984375 151.910156 130.058594 151.898438 128.902344 C 151.886719 127.746094 152.816406 126.800781 153.972656 126.792969 Z M 153.972656 126.792969 " fill-opacity="1" fill-rule="nonzero"/><path fill="#000000" d="M 161.941406 108.40625 L 161.941406 108.410156 C 160.730469 94.210938 159.453125 79.46875 160.765625 72.085938 L 160.765625 72.089844 C 161.242188 69.410156 162.164062 67.003906 163.886719 65.875 C 164.390625 65.546875 164.976562 65.320312 165.617188 65.261719 C 166.292969 65.199219 166.929688 65.332031 167.503906 65.589844 C 169.605469 66.535156 170.992188 69.226562 171.871094 72.300781 C 174.015625 79.78125 174.378906 94.15625 174.746094 108.011719 C 174.777344 109.167969 173.867188 110.128906 172.710938 110.160156 C 171.554688 110.191406 170.59375 109.277344 170.5625 108.125 C 170.1875 93.949219 169.804688 80.285156 167.847656 73.449219 C 166.980469 70.421875 166.007812 69.503906 165.785156 69.402344 C 165.792969 69.40625 165.871094 69.4375 165.992188 69.425781 C 166.109375 69.417969 166.175781 69.375 166.183594 69.371094 C 166.035156 69.46875 165.339844 70.265625 164.886719 72.820312 C 163.699219 79.507812 164.871094 93.507812 166.113281 108.050781 C 166.210938 109.203125 165.359375 110.214844 164.207031 110.3125 C 163.054688 110.410156 162.042969 109.558594 161.941406 108.40625 Z M 161.941406 108.40625 " fill-opacity="1" fill-rule="nonzero"/><g clip-path="url(#8954bf21ac)"><path fill="#000000" d="M 186.945312 173.886719 C 186.035156 185.144531 185.136719 196.292969 185.519531 209.722656 C 185.90625 223.183594 187.578125 238.957031 189.261719 254.835938 C 189.386719 255.984375 188.550781 257.015625 187.402344 257.136719 C 186.253906 257.257812 185.222656 256.425781 185.101562 255.277344 C 183.421875 239.441406 181.726562 223.496094 181.335938 209.84375 C 180.945312 196.160156 181.863281 184.800781 182.773438 173.550781 C 182.863281 172.398438 183.875 171.539062 185.027344 171.632812 C 186.179688 171.726562 187.035156 172.734375 186.945312 173.886719 Z M 186.945312 173.886719 " fill-opacity="1" fill-rule="nonzero"/></g><g clip-path="url(#3dd4c0bef8)"><path fill="#000000" d="M 184.492188 255.34375 C 183.210938 245.839844 181.835938 235.734375 190.816406 223.039062 L 190.816406 223.042969 C 199.519531 210.734375 218.070312 195.914062 236.207031 181.402344 C 237.109375 180.679688 238.425781 180.824219 239.148438 181.726562 C 239.871094 182.628906 239.726562 183.945312 238.824219 184.664062 C 220.457031 199.363281 202.511719 213.75 194.234375 225.453125 C 186.226562 236.773438 187.386719 245.472656 188.640625 254.785156 C 188.796875 255.929688 187.992188 256.980469 186.847656 257.136719 C 185.699219 257.289062 184.648438 256.488281 184.492188 255.34375 Z M 184.492188 255.34375 " fill-opacity="1" fill-rule="nonzero"/></g><path fill="#000000" d="M 197.832031 205.359375 C 197.574219 202.085938 197.316406 198.714844 198.722656 192.039062 C 200.101562 185.503906 203.210938 175.058594 213.410156 168.960938 C 219.5 165.316406 228.027344 163.332031 235.792969 161.5 C 240.824219 160.316406 245.570312 159.195312 249.496094 157.753906 C 259.414062 154.117188 264.214844 148.398438 269.292969 142.316406 C 269.90625 141.582031 270.9375 141.355469 271.800781 141.765625 C 272.664062 142.175781 273.136719 143.121094 272.953125 144.054688 L 272.953125 144.058594 C 267.730469 170.65625 262.371094 198.402344 250.644531 210.796875 C 244.246094 217.558594 236.109375 219.710938 227.492188 219.796875 C 219.742188 219.871094 211.390625 218.269531 203.304688 216.730469 C 202.171875 216.515625 201.425781 215.417969 201.644531 214.285156 C 201.859375 213.152344 202.953125 212.40625 204.089844 212.621094 L 204.089844 212.625 C 212.277344 214.183594 220.199219 215.683594 227.449219 215.613281 C 235.382812 215.539062 242.25 213.582031 247.601562 207.925781 C 258.277344 196.640625 263.492188 170.519531 268.84375 143.25 L 272.507812 144.992188 C 267.382812 151.132812 261.976562 157.632812 250.941406 161.679688 C 246.730469 163.222656 241.71875 164.402344 236.753906 165.570312 C 228.777344 167.449219 220.972656 169.3125 215.558594 172.550781 C 206.945312 177.699219 204.148438 186.605469 202.820312 192.898438 L 202.820312 192.902344 C 201.523438 199.054688 201.765625 201.992188 202.003906 205.03125 C 202.09375 206.183594 201.234375 207.1875 200.082031 207.28125 C 198.929688 207.371094 197.921875 206.511719 197.832031 205.359375 Z M 197.832031 205.359375 " fill-opacity="1" fill-rule="nonzero"/><path fill="#000000" d="M 182.402344 231.355469 C 182.726562 223.566406 183.027344 216.308594 175.4375 206.921875 C 167.5625 197.183594 151.339844 185.28125 134.722656 173.113281 C 133.789062 172.429688 133.585938 171.121094 134.269531 170.191406 C 134.953125 169.257812 136.261719 169.058594 137.195312 169.738281 C 153.59375 181.75 170.390625 194.027344 178.691406 204.292969 C 187.28125 214.914062 186.921875 223.488281 186.585938 231.527344 C 186.535156 232.683594 185.5625 233.578125 184.40625 233.53125 C 183.253906 233.484375 182.355469 232.507812 182.402344 231.355469 Z M 182.402344 231.355469 " fill-opacity="1" fill-rule="nonzero"/><g clip-path="url(#24b01b0a9c)"><path fill="#000000" d="M 167.015625 200.234375 L 167.003906 200.234375 L 167.007812 200.234375 C 164.332031 200.308594 161.632812 200.382812 158.960938 200.40625 C 145.554688 200.539062 131.945312 199.519531 122.5 190.417969 C 111.445312 179.761719 106.601562 158.296875 101.917969 137.90625 C 101.699219 136.949219 102.175781 135.972656 103.058594 135.550781 C 103.945312 135.128906 105.003906 135.378906 105.609375 136.152344 C 108.65625 140.054688 111.457031 143.640625 119.023438 145.921875 C 121.675781 146.722656 124.921875 147.363281 128.539062 148.078125 C 132.632812 148.882812 137.152344 149.769531 141.457031 151.070312 C 144.488281 151.984375 147.46875 153.117188 150.175781 154.601562 C 160.074219 160.035156 165.648438 169.816406 168.492188 175.757812 C 171.40625 181.847656 171.722656 184.511719 172.007812 187.148438 C 172.132812 188.292969 171.300781 189.324219 170.152344 189.449219 C 169 189.574219 167.96875 188.742188 167.847656 187.59375 C 167.605469 185.367188 167.402344 183.171875 164.714844 177.5625 C 161.957031 171.800781 156.859375 163.039062 148.160156 158.265625 C 145.792969 156.964844 143.105469 155.933594 140.25 155.074219 C 136.171875 153.84375 131.859375 152.992188 127.726562 152.179688 C 124.171875 151.480469 120.707031 150.796875 117.8125 149.925781 C 108.988281 147.265625 105.523438 142.839844 102.308594 138.726562 L 106 136.972656 C 110.8125 157.9375 115.464844 177.828125 125.40625 187.40625 L 125.40625 187.410156 C 133.5 195.203125 145.445312 196.355469 158.917969 196.226562 C 161.546875 196.199219 164.210938 196.128906 166.890625 196.054688 L 166.902344 196.054688 C 168.054688 196.023438 169.019531 196.933594 169.050781 198.089844 C 169.082031 199.242188 168.167969 200.203125 167.015625 200.234375 Z M 167.015625 200.234375 " fill-opacity="1" fill-rule="nonzero"/></g><g fill="#0b3b36" fill-opacity="1"><g transform="translate(159.307347, 307.580956)"><g><path d="M 2.960938 -4 L 4.941406 -9.007812 L 6.910156 -4 Z M 9.710938 0 L 4.941406 -11.628906 L 0.160156 0 L 1.375 0 L 2.542969 -2.960938 L 7.328125 -2.960938 L 8.496094 0 Z M 9.710938 0 "/></g></g></g><g fill="#0b3b36" fill-opacity="1"><g transform="translate(169.528971, 307.580956)"><g/></g></g><g fill="#0b3b36" fill-opacity="1"><g transform="translate(174.199936, 307.580956)"><g><path d="M 8.300781 -3.023438 C 8.300781 -3.792969 8.109375 -4.449219 7.742188 -4.960938 C 7.359375 -5.472656 6.847656 -5.824219 6.222656 -6 C 6.589844 -6.160156 6.910156 -6.445312 7.152344 -6.878906 C 7.261719 -7.070312 7.34375 -7.261719 7.40625 -7.472656 C 7.472656 -7.679688 7.503906 -7.964844 7.503906 -8.335938 C 7.503906 -8.6875 7.40625 -9.054688 7.246094 -9.40625 C 6.765625 -10.382812 5.726562 -10.878906 4.144531 -10.878906 L 1.199219 -10.878906 L 1.199219 0 L 4.527344 0 C 5.632812 0 6.511719 -0.238281 7.183594 -0.75 C 7.519531 -1.007812 7.789062 -1.34375 8 -1.757812 C 8.191406 -2.160156 8.300781 -2.574219 8.300781 -3.023438 Z M 6.382812 -8.160156 C 6.382812 -7.566406 6.207031 -7.136719 5.855469 -6.847656 C 5.503906 -6.558594 5.039062 -6.414062 4.464844 -6.414062 L 2.320312 -6.414062 L 2.320312 -9.804688 L 4.144531 -9.804688 C 5.632812 -9.804688 6.382812 -9.246094 6.382812 -8.160156 Z M 7.183594 -3.246094 C 7.183594 -2.589844 6.957031 -2.0625 6.511719 -1.664062 C 6.078125 -1.265625 5.519531 -1.070312 4.847656 -1.070312 L 2.320312 -1.070312 L 2.320312 -5.296875 L 5.023438 -5.296875 C 5.582031 -5.296875 6.078125 -5.101562 6.511719 -4.71875 C 6.703125 -4.542969 6.863281 -4.335938 6.992188 -4.09375 C 7.117188 -3.839844 7.183594 -3.566406 7.183594 -3.246094 Z M 7.183594 -3.246094 "/></g></g></g><g fill="#0b3b36" fill-opacity="1"><g transform="translate(183.173868, 307.580956)"><g><path d="M 2.320312 -1.121094 L 2.320312 -10.878906 L 1.199219 -10.878906 L 1.199219 0 L 6.207031 0 L 6.207031 -1.121094 Z M 2.320312 -1.121094 "/></g></g></g><g fill="#0b3b36" fill-opacity="1"><g transform="translate(190.052296, 307.580956)"><g><path d="M 10.78125 -5.472656 C 10.78125 -4.222656 10.335938 -3.167969 9.46875 -2.304688 C 8.589844 -1.421875 7.535156 -0.992188 6.304688 -0.992188 C 5.070312 -0.992188 4.015625 -1.421875 3.152344 -2.304688 C 2.273438 -3.167969 1.839844 -4.222656 1.839844 -5.472656 C 1.839844 -6.6875 2.273438 -7.742188 3.152344 -8.621094 C 4.015625 -9.488281 5.070312 -9.933594 6.304688 -9.933594 C 7.535156 -9.933594 8.589844 -9.488281 9.46875 -8.621094 C 10.335938 -7.742188 10.78125 -6.6875 10.78125 -5.472656 Z M 11.902344 -5.472656 C 11.902344 -6.238281 11.742188 -6.957031 11.453125 -7.648438 C 11.167969 -8.320312 10.765625 -8.910156 10.253906 -9.421875 C 9.742188 -9.917969 9.152344 -10.320312 8.480469 -10.605469 C 7.789062 -10.894531 7.070312 -11.054688 6.304688 -11.054688 C 5.535156 -11.054688 4.800781 -10.894531 4.128906 -10.605469 C 3.457031 -10.320312 2.863281 -9.917969 2.351562 -9.421875 C 1.839844 -8.910156 1.441406 -8.320312 1.152344 -7.648438 C 0.863281 -6.957031 0.71875 -6.238281 0.71875 -5.472656 C 0.71875 -4.703125 0.863281 -3.96875 1.152344 -3.296875 C 1.441406 -2.609375 1.839844 -2.015625 2.351562 -1.503906 C 2.863281 -0.992188 3.457031 -0.59375 4.128906 -0.304688 C 4.800781 -0.015625 5.535156 0.128906 6.304688 0.128906 C 7.070312 0.128906 7.789062 -0.015625 8.480469 -0.304688 C 9.152344 -0.59375 9.742188 -0.992188 10.253906 -1.503906 C 10.765625 -2.015625 11.167969 -2.609375 11.453125 -3.296875 C 11.742188 -3.96875 11.902344 -4.703125 11.902344 -5.472656 Z M 11.902344 -5.472656 "/></g></g></g><g fill="#0b3b36" fill-opacity="1"><g transform="translate(203.025263, 307.580956)"><g><path d="M 11.933594 -5.085938 L 6.269531 -5.085938 L 6.269531 -4.113281 L 10.6875 -4.113281 C 10.351562 -3.167969 9.789062 -2.398438 8.992188 -1.839844 C 8.191406 -1.265625 7.292969 -0.992188 6.320312 -0.992188 C 5.070312 -0.992188 4.015625 -1.421875 3.136719 -2.304688 C 2.273438 -3.183594 1.839844 -4.253906 1.839844 -5.488281 C 1.839844 -6.71875 2.273438 -7.773438 3.152344 -8.65625 C 4.015625 -9.519531 5.070312 -9.964844 6.320312 -9.964844 C 7.246094 -9.964844 8.09375 -9.695312 8.847656 -9.167969 C 9.613281 -8.636719 10.160156 -7.949219 10.511719 -7.070312 L 11.695312 -7.070312 C 11.328125 -8.269531 10.636719 -9.230469 9.648438 -9.964844 C 8.65625 -10.703125 7.503906 -11.085938 6.207031 -11.085938 C 5.503906 -11.085938 4.816406 -10.925781 4.144531 -10.636719 C 3.457031 -10.351562 2.863281 -9.949219 2.351562 -9.4375 C 1.839844 -8.925781 1.441406 -8.335938 1.152344 -7.664062 C 0.863281 -6.976562 0.71875 -6.238281 0.71875 -5.472656 C 0.71875 -4.703125 0.863281 -3.96875 1.152344 -3.296875 C 1.441406 -2.609375 1.839844 -2.015625 2.351562 -1.503906 C 2.863281 -0.992188 3.457031 -0.59375 4.144531 -0.304688 C 4.816406 -0.015625 5.550781 0.128906 6.320312 0.128906 C 7.628906 0.128906 8.816406 -0.289062 9.871094 -1.136719 C 10.925781 -2 11.582031 -3.085938 11.820312 -4.414062 Z M 11.933594 -5.085938 "/></g></g></g><g fill="#0b3b36" fill-opacity="1"><g transform="translate(66.460504, 287.58092)"><g><path d="M 9.3125 -4.777344 C 9.3125 -3.695312 8.398438 -2.808594 7.320312 -2.808594 L 5.039062 -2.808594 L 5.039062 -6.742188 L 7.320312 -6.742188 C 8.398438 -6.742188 9.3125 -5.832031 9.3125 -4.777344 Z M 8.183594 -11.59375 C 8.183594 -10.558594 7.320312 -9.695312 6.289062 -9.695312 L 5.039062 -9.695312 L 5.039062 -13.488281 L 6.289062 -13.488281 C 7.320312 -13.488281 8.183594 -12.648438 8.183594 -11.59375 Z M 12.984375 -4.679688 C 12.984375 -6.886719 11.496094 -8.351562 9.671875 -8.785156 C 10.894531 -9.335938 11.617188 -10.585938 11.617188 -12.238281 C 11.617188 -14.472656 9.839844 -16.320312 7.054688 -16.320312 L 1.441406 -16.320312 L 1.441406 0 L 8.039062 0 C 11.160156 0 12.984375 -1.871094 12.984375 -4.679688 Z M 12.984375 -4.679688 "/></g></g></g><g fill="#0b3b36" fill-opacity="1"><g transform="translate(81.316529, 287.58092)"><g><path d="M 6.214844 0 L 9.816406 0 L 9.816406 -7.800781 L 15.839844 -16.320312 L 11.542969 -16.320312 L 8.015625 -10.679688 L 4.488281 -16.320312 L 0.191406 -16.320312 L 6.214844 -7.800781 Z M 6.214844 0 "/></g></g></g><g fill="#0b3b36" fill-opacity="1"><g transform="translate(98.980556, 287.58092)"><g><path d="M 8.375 -13.054688 L 13.03125 -13.054688 L 13.03125 -16.320312 L 0.121094 -16.320312 L 0.121094 -13.054688 L 4.777344 -13.054688 L 4.777344 0 L 8.375 0 Z M 8.375 -13.054688 "/></g></g></g><g fill="#0b3b36" fill-opacity="1"><g transform="translate(113.764585, 287.58092)"><g><path d="M 10.894531 -3.265625 L 5.039062 -3.265625 L 5.039062 -6.550781 L 10.65625 -6.550781 L 10.65625 -9.816406 L 5.039062 -9.816406 L 5.039062 -13.054688 L 10.894531 -13.054688 L 10.894531 -16.320312 L 1.441406 -16.320312 L 1.441406 0 L 10.894531 0 Z M 10.894531 -3.265625 "/></g></g></g><g fill="#0b3b36" fill-opacity="1"><g transform="translate(127.732608, 287.58092)"><g><path d="M 7.777344 -2.542969 C 6 -2.542969 4.464844 -3.433594 4.367188 -5.375 L 0.71875 -5.375 C 0.742188 -1.390625 4.03125 0.382812 7.632812 0.382812 C 10.96875 0.382812 14.398438 -1.03125 14.398438 -4.871094 C 14.398438 -11.089844 4.96875 -9 4.96875 -11.902344 C 4.96875 -13.128906 6.382812 -13.609375 7.390625 -13.609375 C 9.191406 -13.609375 10.175781 -13.054688 10.367188 -11.351562 L 13.847656 -11.351562 C 13.726562 -15.070312 10.703125 -16.558594 7.34375 -16.558594 C 4.367188 -16.558594 1.246094 -14.976562 1.246094 -11.617188 C 1.246094 -5.59375 10.679688 -7.632812 10.679688 -4.464844 C 10.679688 -3 8.902344 -2.542969 7.777344 -2.542969 Z M 7.777344 -2.542969 "/></g></g></g><g fill="#0b3b36" fill-opacity="1"><g transform="translate(144.484634, 287.58092)"><g/></g></g><g fill="#0b3b36" fill-opacity="1"><g transform="translate(152.116647, 287.58092)"><g><path d="M 8.59375 -4.105469 C 7.945312 -3.480469 6.984375 -2.6875 6.023438 -2.6875 C 4.894531 -2.6875 3.886719 -3.71875 3.886719 -4.824219 C 3.886719 -5.832031 5.257812 -6.769531 6 -7.273438 Z M 6.839844 -13.777344 C 7.488281 -13.777344 7.992188 -13.414062 7.992188 -12.695312 C 7.992188 -11.953125 7.175781 -11.449219 6.648438 -11.089844 C 6.265625 -11.566406 5.710938 -12.046875 5.710938 -12.742188 C 5.710938 -13.390625 6.289062 -13.777344 6.839844 -13.777344 Z M 15.9375 0.0234375 L 12.671875 -4.007812 C 13.320312 -4.726562 13.945312 -5.449219 14.496094 -6.238281 L 12.40625 -8.375 C 11.878906 -7.679688 11.328125 -7.007812 10.753906 -6.359375 L 8.519531 -9.070312 C 9.769531 -10.007812 10.945312 -11.0625 10.945312 -12.769531 C 10.945312 -15.097656 9.097656 -16.558594 6.863281 -16.558594 C 4.511719 -16.558594 2.761719 -15 2.761719 -12.601562 C 2.761719 -11.425781 3.335938 -10.441406 4.105469 -9.574219 C 3.816406 -9.359375 3.527344 -9.191406 3.238281 -8.976562 C 1.777344 -7.945312 0.839844 -6.625 0.839844 -4.777344 C 0.839844 -1.800781 3.238281 0.238281 6.144531 0.238281 C 7.847656 0.238281 9.335938 -0.625 10.535156 -1.777344 L 11.976562 0.0234375 Z M 15.9375 0.0234375 "/></g></g></g><g fill="#0b3b36" fill-opacity="1"><g transform="translate(169.804686, 287.58092)"><g/></g></g><g fill="#0b3b36" fill-opacity="1"><g transform="translate(177.436693, 287.58092)"><g><path d="M 9.3125 -4.777344 C 9.3125 -3.695312 8.398438 -2.808594 7.320312 -2.808594 L 5.039062 -2.808594 L 5.039062 -6.742188 L 7.320312 -6.742188 C 8.398438 -6.742188 9.3125 -5.832031 9.3125 -4.777344 Z M 8.183594 -11.59375 C 8.183594 -10.558594 7.320312 -9.695312 6.289062 -9.695312 L 5.039062 -9.695312 L 5.039062 -13.488281 L 6.289062 -13.488281 C 7.320312 -13.488281 8.183594 -12.648438 8.183594 -11.59375 Z M 12.984375 -4.679688 C 12.984375 -6.886719 11.496094 -8.351562 9.671875 -8.785156 C 10.894531 -9.335938 11.617188 -10.585938 11.617188 -12.238281 C 11.617188 -14.472656 9.839844 -16.320312 7.054688 -16.320312 L 1.441406 -16.320312 L 1.441406 0 L 8.039062 0 C 11.160156 0 12.984375 -1.871094 12.984375 -4.679688 Z M 12.984375 -4.679688 "/></g></g></g><g fill="#0b3b36" fill-opacity="1"><g transform="translate(192.292713, 287.58092)"><g><path d="M 5.039062 -5.832031 L 5.0625 -5.832031 L 8.953125 0 L 13.511719 0 L 8.832031 -6 C 10.894531 -6.503906 12.550781 -8.328125 12.550781 -11.089844 C 12.550781 -14.183594 10.199219 -16.320312 7.558594 -16.320312 L 1.441406 -16.320312 L 1.441406 0 L 5.039062 0 Z M 6.960938 -13.488281 C 8.015625 -13.488281 9.121094 -12.574219 9.121094 -11.089844 C 9.121094 -9.527344 8.015625 -8.664062 6.960938 -8.664062 L 5.039062 -8.664062 L 5.039062 -13.488281 Z M 6.960938 -13.488281 "/></g></g></g><g fill="#0b3b36" fill-opacity="1"><g transform="translate(207.148734, 287.58092)"><g><path d="M 10.320312 -6.238281 L 6.191406 -6.238281 L 8.257812 -12.046875 Z M 16.414062 0 L 9.792969 -16.320312 L 6.742188 -16.320312 L 0.121094 0 L 3.984375 0 L 5.160156 -3.289062 L 11.375 -3.289062 L 12.550781 0 Z M 16.414062 0 "/></g></g></g><g fill="#0b3b36" fill-opacity="1"><g transform="translate(225.316767, 287.58092)"><g><path d="M 14.257812 0 L 14.257812 -16.320312 L 10.65625 -16.320312 L 10.65625 -6.144531 L 5.039062 -16.320312 L 1.441406 -16.320312 L 1.441406 0 L 5.039062 0 L 5.039062 -10.175781 L 10.65625 0 Z M 14.257812 0 "/></g></g></g><g fill="#0b3b36" fill-opacity="1"><g transform="translate(242.644791, 287.58092)"><g><path d="M 13.222656 -5.542969 C 12.550781 -4.105469 10.921875 -3.121094 9.238281 -3.121094 C 6.601562 -3.121094 4.488281 -5.375 4.488281 -8.160156 C 4.488281 -10.921875 6.601562 -13.199219 9.238281 -13.199219 C 10.894531 -13.199219 12.527344 -12.289062 13.199219 -10.824219 L 17.207031 -10.824219 C 16.105469 -14.160156 12.960938 -16.558594 9.238281 -16.558594 C 4.609375 -16.558594 0.839844 -12.792969 0.839844 -8.160156 C 0.839844 -3.527344 4.609375 0.238281 9.238281 0.238281 C 12.960938 0.238281 16.128906 -2.183594 17.230469 -5.542969 Z M 13.222656 -5.542969 "/></g></g></g><g fill="#0b3b36" fill-opacity="1"><g transform="translate(262.108821, 287.58092)"><g><path d="M 10.414062 -16.320312 L 10.414062 -9.816406 L 5.039062 -9.816406 L 5.039062 -16.320312 L 1.441406 -16.320312 L 1.441406 0 L 5.039062 0 L 5.039062 -6.550781 L 10.414062 -6.550781 L 10.414062 0 L 14.257812 0 L 14.257812 -16.320312 Z M 10.414062 -16.320312 "/></g></g></g><g fill="#0b3b36" fill-opacity="1"><g transform="translate(279.436846, 287.58092)"><g><path d="M 10.894531 -3.265625 L 5.039062 -3.265625 L 5.039062 -6.550781 L 10.65625 -6.550781 L 10.65625 -9.816406 L 5.039062 -9.816406 L 5.039062 -13.054688 L 10.894531 -13.054688 L 10.894531 -16.320312 L 1.441406 -16.320312 L 1.441406 0 L 10.894531 0 Z M 10.894531 -3.265625 "/></g></g></g><g fill="#0b3b36" fill-opacity="1"><g transform="translate(293.404862, 287.58092)"><g><path d="M 7.777344 -2.542969 C 6 -2.542969 4.464844 -3.433594 4.367188 -5.375 L 0.71875 -5.375 C 0.742188 -1.390625 4.03125 0.382812 7.632812 0.382812 C 10.96875 0.382812 14.398438 -1.03125 14.398438 -4.871094 C 14.398438 -11.089844 4.96875 -9 4.96875 -11.902344 C 4.96875 -13.128906 6.382812 -13.609375 7.390625 -13.609375 C 9.191406 -13.609375 10.175781 -13.054688 10.367188 -11.351562 L 13.847656 -11.351562 C 13.726562 -15.070312 10.703125 -16.558594 7.34375 -16.558594 C 4.367188 -16.558594 1.246094 -14.976562 1.246094 -11.617188 C 1.246094 -5.59375 10.679688 -7.632812 10.679688 -4.464844 C 10.679688 -3 8.902344 -2.542969 7.777344 -2.542969 Z M 7.777344 -2.542969 "/></g></g></g></svg>