<?xml version="1.0" encoding="UTF-8" standalone="no"?>
<!-- Created with Inkscape (http://www.inkscape.org/) -->

<svg
   width="38.243774mm"
   height="41.373749mm"
   viewBox="0 0 38.243774 41.373749"
   version="1.1"
   id="svg5"
   inkscape:version="1.2.2 (732a01da63, 2022-12-09)"
   sodipodi:docname="Rebecca Copeland Logo Ideas.svg"
   xml:space="preserve"
   xmlns:inkscape="http://www.inkscape.org/namespaces/inkscape"
   xmlns:sodipodi="http://sodipodi.sourceforge.net/DTD/sodipodi-0.dtd"
   xmlns="http://www.w3.org/2000/svg"
   xmlns:svg="http://www.w3.org/2000/svg"><sodipodi:namedview
     id="namedview7"
     pagecolor="#ffffff"
     bordercolor="#000000"
     borderopacity="0.25"
     inkscape:showpageshadow="2"
     inkscape:pageopacity="0.0"
     inkscape:pagecheckerboard="0"
     inkscape:deskcolor="#d1d1d1"
     inkscape:document-units="mm"
     showgrid="false"
     inkscape:zoom="2.9825758"
     inkscape:cx="-1656.4541"
     inkscape:cy="434.02082"
     inkscape:window-width="977"
     inkscape:window-height="1008"
     inkscape:window-x="2854"
     inkscape:window-y="0"
     inkscape:window-maximized="0"
     inkscape:current-layer="layer1"
     showguides="true" /><defs
     id="defs2" /><g
     inkscape:label="Layer 1"
     inkscape:groupmode="layer"
     id="layer1"
     transform="translate(688.0381,-195.63607)"><path
       id="path7443"
       style="color:#000000;-inkscape-font-specification:'High Tower Text';fill:#ffffff;-inkscape-stroke:none;paint-order:stroke markers fill"
       d="m -666.05444,195.63664 c -6.01098,0 -11.13755,1.95018 -15.37942,5.85029 -4.40269,4.04083 -6.60425,9.10663 -6.60425,15.19804 0,5.97077 2.13093,10.86623 6.3929,14.68592 4.20166,3.75938 9.45911,5.63893 15.77164,5.63893 3.81969,0 7.19707,-0.45236 10.1322,-1.35702 2.69388,-0.84435 4.24157,-1.79893 4.64364,-2.86443 0.60312,-1.64849 1.03574,-3.80954 1.29708,-6.48332 0.0603,-0.68352 -0.31155,-1.11615 -1.11569,-1.29708 -1.12581,-0.24125 -1.84979,0.0704 -2.17144,0.93483 -1.1057,2.97533 -2.5329,5.11665 -4.28191,6.42338 -1.82944,1.36704 -4.33273,2.05052 -7.50911,2.05052 -4.88517,0 -8.89565,-1.67857 -12.03182,-5.03587 -3.21658,-3.41762 -4.82503,-7.90071 -4.82503,-13.44931 0,-5.58881 1.52795,-9.99191 4.5837,-13.20849 2.8145,-2.95523 6.45364,-4.43281 10.91665,-4.43281 3.55834,0 6.22161,0.66374 7.99072,1.99058 2.71074,2.80596 4.29856,5.45965 4.16733,8.87929 -0.0561,2.30957 -0.7762,6.27612 -2.03216,9.47642 -0.99409,2.53303 -1.54043,3.14217 -2.34465,3.80024 -0.40211,0.32903 -0.81991,0.20482 -1.15177,0.22122 -0.32799,0.0162 -0.64832,-0.0967 -1.02113,-0.4377 -1.31156,-1.58121 -2.30822,-3.08088 -3.27939,-5.18521 1.45591,-0.47844 2.65265,-1.13271 3.45871,-2.05465 0.9059,-1.03612 1.35754,-2.35802 1.35754,-3.88504 0,-1.804 -0.77032,-3.26257 -2.23242,-4.19716 -1.30523,-0.84391 -3.03723,-1.2423 -5.17385,-1.2423 -1.01375,0 -2.11021,0.0157 -3.2892,0.047 -1.17462,0.0312 -1.9137,0.047 -2.18902,0.047 -0.86147,0 -1.4975,-0.0341 -1.88102,-0.0899 h -0.004 c -0.15252,-0.0233 -0.29895,-0.0351 -0.43925,-0.0351 -0.26702,0 -0.54868,0.0737 -0.75035,0.27544 -0.20165,0.20167 -0.27543,0.48074 -0.27543,0.74776 0,0.2957 0.20101,0.56049 0.4222,0.70125 0.22119,0.14076 0.48008,0.22189 0.79685,0.28525 0.51717,0.1025 0.85698,0.27951 1.06246,0.4961 0.20548,0.21657 0.31058,0.48333 0.31058,0.89038 v 14.94948 c 0,0.42923 -0.10168,0.69382 -0.26562,0.87281 -0.16393,0.17899 -0.42639,0.30732 -0.86351,0.35192 -0.26655,0.0251 -0.50236,0.0797 -0.71262,0.22634 -0.2113,0.14743 -0.35967,0.42926 -0.35967,0.68781 0,0.28204 0.0975,0.58818 0.33228,0.77928 0.23477,0.1911 0.52895,0.23307 0.81804,0.21291 h 0.002 c 2.21076,-0.16527 4.24804,-0.20723 6.1097,-0.12506 0.22487,0.0109 0.41083,0.0129 0.57206,0 0.16123,-0.0129 0.28948,-0.0121 0.47646,-0.13694 0.16615,-0.11073 0.24596,-0.27352 0.28732,-0.41599 0.0414,-0.14248 0.0527,-0.28237 0.0527,-0.43925 0,-0.29273 -0.17121,-0.58784 -0.40256,-0.7519 -0.23134,-0.16405 -0.50475,-0.246 -0.82992,-0.2992 h -0.004 -0.002 c -0.79647,-0.12098 -1.31312,-0.2926 -1.40611,-0.3514 -0.0706,-0.0502 -0.16382,-0.19814 -0.16382,-0.61133 v -6.12521 c 0.0635,-0.003 0.062,-0.002 0.14625,-0.006 0.28041,-0.0128 0.72769,-0.0355 1.20923,-0.0589 1.63608,3.09274 3.39478,5.47091 5.148,6.766 0.90362,0.6675 1.81733,1.06251 2.72077,1.08572 0.60565,0.0156 1.17346,-0.21312 1.711,-0.5488 0.41677,-0.27853 0.60574,-0.36735 0.78135,-0.56224 1.82971,-2.03646 3.41666,-5.15126 4.56458,-8.27392 1.14793,-3.12265 1.53197,-5.50559 1.83606,-8.33386 0.027,-0.25125 -0.006,-0.51719 -0.002,-0.75809 0,-3.43772 -0.11063,-5.92025 -0.33177,-7.44812 -0.10052,-0.78405 -1.43734,-1.62852 -4.0106,-2.53318 -2.89493,-1.02529 -6.4733,-1.53789 -10.73527,-1.53789 z m -1.50223,12.00598 h 5.2e-4 c 1.68085,7e-5 2.83856,0.32795 3.50521,0.88057 0.65817,0.54559 1.02371,1.48447 1.02371,2.94762 0,1.4631 -0.44577,2.43476 -1.3441,3.0856 v 0.002 c -0.90598,0.65812 -2.53053,1.05872 -4.72065,1.18391 v -6.8461 c 0,-0.65042 0.15419,-0.96037 0.23048,-1.01906 l 0.004,-0.002 0.006,-0.004 c 0.10692,-0.0864 0.5563,-0.22834 1.29449,-0.22841 z"
       sodipodi:nodetypes="scscsccccccscscsccsssccsscsssccsssscsssscssssccscsssccccscccssccsacccssssscccscccsss" /></g></svg>
