<?xml version="1.0" encoding="UTF-8" standalone="no"?>
<!-- Created with Inkscape (http://www.inkscape.org/) -->

<svg
   width="38.243774mm"
   height="41.373192mm"
   viewBox="0 0 38.243774 41.373192"
   version="1.1"
   id="svg5"
   inkscape:version="1.2.2 (732a01da63, 2022-12-09)"
   sodipodi:docname="Rebecca Copeland Logo Ideas.svg"
   xml:space="preserve"
   xmlns:inkscape="http://www.inkscape.org/namespaces/inkscape"
   xmlns:sodipodi="http://sodipodi.sourceforge.net/DTD/sodipodi-0.dtd"
   xmlns="http://www.w3.org/2000/svg"
   xmlns:svg="http://www.w3.org/2000/svg"><sodipodi:namedview
     id="namedview7"
     pagecolor="#ffffff"
     bordercolor="#000000"
     borderopacity="0.25"
     inkscape:showpageshadow="2"
     inkscape:pageopacity="0.0"
     inkscape:pagecheckerboard="0"
     inkscape:deskcolor="#d1d1d1"
     inkscape:document-units="mm"
     showgrid="false"
     inkscape:zoom="1.4912879"
     inkscape:cx="-1379.0094"
     inkscape:cy="-33.192786"
     inkscape:window-width="1197"
     inkscape:window-height="1008"
     inkscape:window-x="2634"
     inkscape:window-y="0"
     inkscape:window-maximized="0"
     inkscape:current-layer="layer1"
     showguides="true" /><defs
     id="defs2" /><g
     inkscape:label="Layer 1"
     inkscape:groupmode="layer"
     id="layer1"
     transform="translate(567.91005,-93.970494)"><path
       id="path13294"
       style="font-size:35.7222px;font-family:'a Aksentuasi';-inkscape-font-specification:'High Tower Text';fill:#ffffff;stroke-width:5.07611;paint-order:stroke markers fill"
       d="m -545.92637,93.970492 c -6.01098,0 -11.13755,1.950185 -15.37942,5.850288 -4.4027,4.04083 -6.60425,9.10664 -6.60425,15.19804 0,5.97077 2.13144,10.86623 6.39341,14.68592 4.20166,3.75938 9.4586,5.63894 15.77113,5.63894 3.81969,0 7.19707,-0.45237 10.1322,-1.35703 2.69388,-0.84435 4.24209,-1.79893 4.64416,-2.86442 0.60311,-1.6485 1.03521,-3.80954 1.29656,-6.48333 0.0603,-0.68352 -0.31155,-1.11614 -1.11569,-1.29707 -1.12581,-0.24125 -1.84979,0.0704 -2.17145,0.93482 -1.1057,2.97534 -2.53289,5.11665 -4.28191,6.42338 -1.82943,1.36705 -4.3322,2.05052 -7.50858,2.05052 -4.88518,0 -8.89617,-1.67856 -12.03234,-5.03586 -3.21658,-3.41762 -4.82451,-7.90071 -4.82451,-13.44931 0,-5.58881 1.52743,-9.99192 4.58318,-13.2085 2.8145,-2.955236 6.45364,-4.432804 10.91665,-4.432804 3.55834,0 6.22212,0.663737 7.99124,1.990577 1.62296,1.203542 2.94695,3.278387 3.97443,6.218737 0.13255,0.81518 0.21479,1.75236 0.18656,2.79001 -0.1425,5.23773 -2.10373,17.19932 -6.08129,13.51443 -1.60471,-1.9303 -2.82245,-3.71218 -4.00854,-6.40995 3.72107,-1.03492 5.58157,-3.16254 5.58157,-6.38359 0,-1.88379 -0.75587,-3.30849 -2.26756,-4.27364 -1.34888,-0.87213 -3.18614,-1.30793 -5.51181,-1.30793 -1.12795,0 -2.34882,0.0173 -3.66282,0.0522 -1.314,0.0349 -2.13421,0.0522 -2.4598,0.0522 -0.97678,0 -1.70347,-0.0351 -2.18023,-0.10491 -0.15117,-0.0233 -0.29067,-0.0346 -0.41858,-0.0346 -0.43025,0 -0.64544,0.21519 -0.64544,0.64544 0,0.27908 0.32008,0.48239 0.95963,0.6103 1.29075,0.25583 1.9358,0.93601 1.9358,2.0407 v 16.71009 c 0,1.12795 -0.56937,1.75026 -1.70894,1.86655 -0.50002,0.0465 -0.75034,0.22064 -0.75034,0.52297 0,0.44186 0.25032,0.6452 0.75034,0.6103 2.48846,-0.18604 4.78478,-0.23253 6.88951,-0.13953 0.47676,0.0232 0.76764,4e-5 0.87229,-0.0698 0.10468,-0.0698 0.1571,-0.24983 0.1571,-0.54054 0,-0.34885 -0.32008,-0.5754 -0.95963,-0.68006 -0.91864,-0.13954 -1.51177,-0.29687 -1.77922,-0.47129 -0.26745,-0.18605 -0.40101,-0.55211 -0.40101,-1.09864 v -7.32617 c 0.093,0 0.85485,-0.0346 2.28513,-0.10438 3.70943,7.15141 8.0629,10.73701 10.93887,7.71115 1.90784,-2.00726 5.56026,-10.7237 5.60896,-17.44028 7.8e-4,-0.107 -0.0133,-0.21505 -0.0388,-0.32401 -0.005,-3.3103 -0.1149,-5.717708 -0.33073,-7.208859 -0.10052,-0.784041 -1.43734,-1.628515 -4.01061,-2.533179 -2.89492,-1.025284 -6.47329,-1.53789 -10.73526,-1.53789 z m -1.50223,10.012828 c 1.94193,0 3.35475,0.36658 4.2385,1.09915 0.88375,0.73259 1.3255,1.9589 1.3255,3.67988 0,1.74425 -0.56989,3.02946 -1.70946,3.85507 -1.23259,0.89537 -3.25586,1.38959 -6.06991,1.48259 v -8.21552 c 0,-0.79072 0.15139,-1.30223 0.45372,-1.53479 0.30234,-0.2442 0.88953,-0.36638 1.76165,-0.36638 z" /></g></svg>
