<?xml version="1.0" encoding="UTF-8" standalone="no"?>
<!-- Created with Inkscape (http://www.inkscape.org/) -->

<svg
   width="38.243286mm"
   height="41.373177mm"
   viewBox="0 0 38.243286 41.373177"
   version="1.1"
   id="svg5"
   inkscape:version="1.2.2 (732a01da63, 2022-12-09)"
   sodipodi:docname="Rebecca Copeland Logo Ideas.svg"
   xml:space="preserve"
   xmlns:inkscape="http://www.inkscape.org/namespaces/inkscape"
   xmlns:sodipodi="http://sodipodi.sourceforge.net/DTD/sodipodi-0.dtd"
   xmlns="http://www.w3.org/2000/svg"
   xmlns:svg="http://www.w3.org/2000/svg"><sodipodi:namedview
     id="namedview7"
     pagecolor="#ffffff"
     bordercolor="#000000"
     borderopacity="0.25"
     inkscape:showpageshadow="2"
     inkscape:pageopacity="0.0"
     inkscape:pagecheckerboard="0"
     inkscape:deskcolor="#d1d1d1"
     inkscape:document-units="mm"
     showgrid="false"
     inkscape:zoom="1.4912879"
     inkscape:cx="-1379.0094"
     inkscape:cy="-33.192786"
     inkscape:window-width="1197"
     inkscape:window-height="1008"
     inkscape:window-x="2634"
     inkscape:window-y="0"
     inkscape:window-maximized="0"
     inkscape:current-layer="layer1"
     showguides="true" /><defs
     id="defs2" /><g
     inkscape:label="Layer 1"
     inkscape:groupmode="layer"
     id="layer1"
     transform="translate(636.83711,-94.059377)"><path
       id="path14121"
       style="font-size:35.7222px;font-family:'a Aksentuasi';-inkscape-font-specification:'High Tower Text';fill:#ffffff;stroke-width:4.34977;paint-order:stroke markers fill"
       d="m -614.85394,94.059375 c -6.01098,0 -11.13756,1.950185 -15.37943,5.850289 -4.40269,4.040826 -6.60373,9.106636 -6.60373,15.198036 0,5.97078 2.13093,10.86624 6.39289,14.68593 4.20167,3.75937 9.4586,5.63893 15.77113,5.63893 3.81969,0 7.19707,-0.45236 10.1322,-1.35702 2.69389,-0.84436 4.24209,-1.79945 4.64416,-2.86494 0.60312,-1.6485 1.03522,-3.80955 1.29657,-6.48333 0.0603,-0.68352 -0.31156,-1.11563 -1.1157,-1.29656 -1.1258,-0.24125 -1.84978,0.0704 -2.17144,0.93483 -1.1057,2.97533 -2.5329,5.11613 -4.28191,6.42286 -1.82943,1.36704 -4.33221,2.05104 -7.50859,2.05104 -4.88517,0 -8.89565,-1.67908 -12.03182,-5.03639 -3.21658,-3.41761 -4.82503,-7.90071 -4.82503,-13.44931 0,-5.5888 1.52795,-9.9914 4.5837,-13.20798 2.8145,-2.955232 6.45312,-4.4328 10.91613,-4.4328 3.55834,0 6.22212,0.66322 7.99124,1.990059 1.73592,1.287312 3.7955,4.199611 4.18476,6.845581 0.34952,2.37586 0.232,2.7945 0.0496,4.94077 -0.38019,4.4738 -3.19998,13.90787 -6.60838,10.75026 -1.37509,-1.6541 -2.41907,-3.18094 -3.43545,-5.49269 3.18863,-0.88683 4.78317,-2.71033 4.78317,-5.47047 0,-1.61424 -0.64765,-2.83475 -1.94303,-3.66179 -1.15586,-0.74734 -2.73034,-1.12138 -4.72323,-1.12138 -0.96655,0 -2.01285,0.0151 -3.13883,0.045 -1.12598,0.0299 -1.82836,0.045 -2.10736,0.045 -0.83702,0 -1.46008,-0.0301 -1.86862,-0.0899 -0.12954,-0.0199 -0.24904,-0.03 -0.35864,-0.03 -0.36869,0 -0.55293,0.18426 -0.55293,0.55294 0,0.23915 0.27414,0.41387 0.82217,0.52348 1.10606,0.21922 1.65881,0.80211 1.65881,1.74873 v 14.31902 c 0,0.96655 -0.48801,1.49927 -1.46451,1.59887 -0.42848,0.0399 -0.64285,0.18948 -0.64285,0.44855 0,0.37863 0.21437,0.55287 0.64285,0.52297 2.13238,-0.15947 4.10048,-0.19907 5.90403,-0.11937 0.40854,0.0199 0.65755,-1.5e-4 0.74724,-0.06 0.0897,-0.0598 0.13436,-0.21391 0.13436,-0.46302 0,-0.29894 -0.27413,-0.49321 -0.82217,-0.58291 -0.78719,-0.11958 -1.29527,-0.25413 -1.52445,-0.40359 -0.22918,-0.15943 -0.34365,-0.47373 -0.34365,-0.94206 v -6.27714 c 0.0797,0 0.7324,-0.0301 1.95802,-0.0899 3.17864,6.12813 6.90914,9.20076 9.37359,6.60787 1.63484,-1.72004 6.39103,-10.97838 6.53138,-16.73231 -4.4e-4,-0.19222 0.006,-0.36377 0.0114,-0.53692 0,-3.43772 -0.11062,-5.920253 -0.33176,-7.448126 -0.10052,-0.784041 -1.43735,-1.628515 -4.01061,-2.533178 -2.89492,-1.025285 -6.47329,-1.537891 -10.73526,-1.537891 z m -0.89866,12.480375 c 1.66406,0 2.87452,0.3138 3.63182,0.94154 0.75729,0.62777 1.13637,1.67909 1.13637,3.15382 0,1.49466 -0.48853,2.59568 -1.46503,3.30315 -1.05623,0.76726 -2.78984,1.19051 -5.20123,1.27021 v -7.03988 c 0,-0.67757 0.12954,-1.11588 0.38861,-1.31516 0.25908,-0.20926 0.76213,-0.31368 1.50946,-0.31368 z"
       sodipodi:nodetypes="scscsccccccscscscssccscssscsscsscsccssccsccsccccssssccscss" /></g></svg>
